<?xml version="1.0" encoding="UTF-8"?><svg id="Layer_1" xmlns="http://www.w3.org/2000/svg" viewBox="0 0 49.06 25.36"><defs><style>.cls-1{fill:#fff;}</style></defs><path class="cls-1" d="m8.15,13.11c.23.13.49.19.78.19.22,0,.44-.04.64-.13.2-.08.37-.21.51-.37l-.42-.43c-.09.1-.2.18-.32.23-.13.05-.26.08-.41.08-.17,0-.32-.04-.46-.11-.13-.07-.23-.18-.31-.31-.03-.06-.03-.14-.05-.21h2.12c.01-.06.02-.12.03-.17,0-.05,0-.1,0-.15,0-.28-.06-.52-.18-.74-.12-.22-.28-.39-.49-.51s-.44-.19-.71-.19-.53.07-.75.2c-.23.13-.41.31-.54.54s-.2.48-.2.77.07.54.2.77c.13.23.32.41.55.54Zm0-1.79c.07-.13.16-.23.29-.3.12-.07.27-.11.44-.11s.3.03.41.1.19.16.25.28c.03.06.04.15.05.23h-1.48c.02-.06.01-.14.04-.19Zm18.74,6.66c0-.1,0-.2,0-.29,0-.13,0-.24,0-.33h0c-.01-2.87-.05-6.28-.23-9.72,0-.8-.38-1.53-1.02-1.95-.17-.11-.42-.27-.64-.42-.13-.08-.25-.16-.34-.22-1.32-.88-2.7-1.73-4.03-2.56-1.12-.7-2.28-1.41-3.4-2.14-.17-.12-.37-.21-.58-.26-.09-.07-.24-.09-.47-.09-.17,0-.23.02-.4.07h-.01s-.07.02-.09.03q-.06.02-.19.06l-.42.13c-2.7.84-5.53,1.68-7.69,2.32l-1.2.36-1.02.31c-.11.03-.17.05-.19.06h0c-.55.18-1.03.61-1.28,1.15-1.1,2.33-2.14,4.66-3.36,7.44v.03c-.11.22-.22.46-.26.7-.14.76-.02,1.31.37,1.7,0,0,.73,1.02.73,1.02.81,1.14,1.95,2.68,3.05,4.18,1.12,1.52,2.28,3.1,3.11,4.25.03.04.09.18.15.32.06.14.12.28.15.32.35.51.92.85,1.53.89.04,0,.08,0,.12,0,.2,0,.44-.02.69-.04.24-.02.46-.03.62-.03.89-.02,1.87-.01,2.82,0,1.12,0,2.28,0,3.33-.02.25,0,.5-.02.75-.03.95-.04,1.85-.08,2.82-.05.05,0,.11,0,.17.01l.17.02c.19.02.36.02.52,0,.26-.04.52-.14.74-.29.24-.15.43-.42.62-.69.09-.13.18-.26.26-.36l.83-.93c.19-.24.51-.62.85-1.04.57-.7,1.22-1.5,1.53-1.88.02-.03.08-.1.14-.18.07-.09.16-.2.23-.29.04-.04.11-.11.17-.16.05-.04.07-.06.08-.08.21-.29.27-.45.32-.8,0-.06,0-.17-.01-.28,0-.09-.02-.18-.02-.25Zm-1.31.15c-.01.14-.04.3-.05.41,0,.04-.01.07-.01.09,0,0,0,0,0,.01-.04.11-.12.31-.18.39l-.22.31c-.25.36-.55.78-.87,1.22-.69.98-1.48,2.09-2.04,2.87l-.04.06c-.2.24-.26.3-.47.48-.48.35-.59.41-.99.42-.45.02-.89.04-1.32.07-.9.05-1.75.1-2.66.06-1.44-.03-3.1-.05-4.71-.07-.54,0-1.07-.01-1.57-.02-.12,0-.26,0-.42,0-.27,0-.58,0-.8-.02-.02,0-.04,0-.06,0-.29-.05-.57-.22-.73-.47,0,0-.02-.04-.05-.07-.03-.04-.06-.08-.06-.09-.05-.08-.15-.22-.24-.36-.11-.16-.22-.33-.28-.42-.74-1.11-1.68-2.5-2.68-3.99-.4-.62-.8-1.24-1.19-1.87-.8-1.26-1.56-2.45-2.2-3.42l-.03-.05c-.14-.2-.36-.54-.32-.75.01-.05.03-.11.05-.16,0-.02.02-.04.02-.06,0-.02.02-.04.02-.05,0-.01.01-.03.02-.04.02-.04.04-.09.06-.13,1.01-2.21,1.96-4.33,2.82-6.3.07-.15.13-.31.2-.45.11-.24.21-.48.3-.7.09-.22.28-.41.51-.51.35-.13.69-.26,1.02-.38.23-.09.47-.17.69-.26.09-.03.18-.07.27-.1.04-.02.09-.03.13-.05.13-.05.26-.1.39-.14.06-.02.11-.04.17-.06.05-.02.1-.03.14-.05.11-.04.21-.08.32-.12.56-.2,1.14-.4,1.77-.62.13-.04.25-.09.39-.13,0,0,0,0,.01,0,.54-.18,1.12-.37,1.76-.57l2.57-.84c.21-.06.39-.12.57-.19.47-.17.84-.3,1.2-.16.04.06.16.11.34.19.03.02.07.03.1.04.06.03.13.07.18.11l.24.18s0,0,0,0c.62.47,1.17.9,1.7,1.32.52.41,1.03.81,1.57,1.22.57.43,1.19.89,1.98,1.42l1.65,1.21c.63.6.68,1.7.68,1.72.22,1.92.26,3.52.29,5.07v.14c.01.51.03.98.05,1.44.04,1.17.08,2.18,0,3.2Zm-2.39-3.28c-.17-.11-.36-.17-.58-.17s-.4.05-.57.15c-.12.07-.2.18-.29.29v-.37h-.66v2.88h.66v-1.66c0-.13.03-.24.08-.34s.13-.18.23-.23c.1-.06.21-.08.34-.08.19,0,.35.06.47.19.12.12.18.28.18.47v1.66h.66v-1.81c0-.19-.05-.37-.14-.54-.1-.17-.23-.32-.4-.43Zm-5.32,1.57v-1.67h-.66v1.64c0,.21-.05.38-.15.49-.1.11-.25.17-.44.17-.12,0-.23-.03-.32-.08-.09-.05-.16-.13-.2-.23s-.07-.22-.07-.36v-1.64h-.66v1.67c0,.25.05.47.16.66s.25.34.44.45.41.16.65.16.47-.05.65-.16.33-.25.44-.44.16-.41.16-.66Zm2.14-1.73c-.33,0-.57.11-.73.34,0,0,0,.02-.02.03v-.31h-.66v2.88h.66v-1.6c0-.25.06-.43.18-.55s.27-.17.46-.17c.08,0,.16.01.22.04s.12.06.17.12l.43-.44c-.1-.12-.21-.2-.32-.25-.12-.05-.25-.08-.39-.08Zm.81-4.85c.12,0,.21-.04.28-.11.07-.08.11-.17.11-.28s-.04-.21-.11-.28c-.07-.08-.17-.11-.28-.11s-.21.04-.28.11c-.07.08-.11.17-.11.28s.04.21.11.28c.07.08.17.11.28.11Zm-2.5,3.41c.15.04.3.06.46.06.34,0,.6-.08.8-.25s.29-.39.29-.67c0-.18-.04-.32-.11-.43-.07-.11-.17-.2-.28-.26-.11-.07-.23-.12-.36-.16-.13-.04-.25-.07-.36-.1-.11-.03-.21-.07-.28-.11-.07-.04-.11-.11-.11-.19s.04-.13.11-.17c.07-.04.17-.06.31-.06.14,0,.26.03.37.08.11.05.2.13.29.23l.42-.42c-.12-.16-.27-.29-.45-.37-.18-.08-.38-.12-.62-.12-.22,0-.41.04-.57.11-.16.07-.28.17-.37.31-.09.13-.13.29-.13.47,0,.17.04.31.11.42.07.11.17.19.28.25.11.06.23.11.36.15s.25.07.36.1c.11.03.21.08.28.12.07.05.11.12.11.2s-.04.15-.11.19c-.08.04-.19.07-.34.07-.16,0-.31-.03-.44-.09s-.25-.15-.34-.26l-.42.42c.09.11.2.21.32.28s.26.14.41.18Zm2.17,0h.66v-2.88h-.66v2.88Zm1.9,0h.66v-2.28h.69v-.6h-.69v-1.2h-.66v1.2h-.69v.6h.69v2.28Zm-16.24-2.52c-.09-.11-.17-.21-.3-.28-.17-.09-.37-.14-.59-.14-.26,0-.49.07-.7.2-.21.13-.38.31-.5.54-.12.23-.18.48-.18.77s.06.53.18.76.29.4.5.54c.21.13.44.2.7.2.22,0,.42-.05.59-.14.12-.07.21-.18.29-.28v.36h.66v-4.32h-.66v1.8Zm-.06,1.53c-.07.13-.16.23-.29.31-.12.07-.27.11-.43.11s-.3-.04-.42-.11c-.12-.07-.22-.18-.29-.31-.07-.13-.11-.28-.11-.46s.04-.32.11-.46c.07-.13.17-.23.29-.31.12-.07.26-.11.42-.11s.31.04.43.11c.12.07.22.18.29.31s.1.28.1.46-.03.32-.1.46Zm6.31,4.93l-.42-.43c-.09.1-.2.18-.32.23-.13.05-.26.08-.41.08-.17,0-.32-.04-.46-.11-.13-.07-.23-.18-.31-.31-.03-.06-.03-.14-.05-.21h2.12c.01-.06.02-.12.03-.17,0-.05,0-.1,0-.15,0-.28-.06-.52-.18-.74-.12-.22-.28-.39-.49-.51s-.44-.19-.71-.19-.53.07-.75.2c-.23.13-.41.31-.54.54s-.2.48-.2.77.07.54.2.77c.13.23.32.41.55.54.23.13.49.19.78.19.22,0,.44-.04.64-.13.2-.08.37-.21.51-.37Zm-1.92-1.48c.07-.13.16-.23.29-.3.12-.07.27-.11.44-.11s.3.03.41.1.19.16.25.28c.03.06.04.15.05.23h-1.48c.02-.06.01-.14.04-.19Zm3.07-2.16v1.2h-.69v.6h.69v2.28h.66v-2.28h.69v-.6h-.69v-1.2h-.66Zm-4.64,1.14c-.33,0-.57.11-.73.34,0,0,0,.02-.02.03v-.31h-.66v2.88h.66v-1.6c0-.25.06-.43.18-.55s.27-.17.46-.17c.08,0,.16.01.22.04s.12.06.17.12l.43-.44c-.1-.12-.21-.2-.32-.25-.12-.05-.25-.08-.39-.08Zm6.05-1.58c.23.13.48.2.76.2s.54-.07.77-.2c.23-.13.41-.31.54-.54.13-.23.2-.48.2-.76s-.07-.53-.2-.76c-.13-.23-.31-.4-.54-.54-.23-.13-.48-.2-.77-.2s-.53.07-.76.2c-.23.13-.41.31-.54.54-.13.22-.2.48-.2.76s.07.53.2.76c.13.23.31.41.54.54Zm.04-1.75c.07-.13.17-.23.29-.3.13-.07.27-.11.43-.11s.31.04.43.11c.12.07.22.17.29.3.07.13.11.28.11.44s-.04.32-.1.45c-.07.13-.17.24-.29.31-.13.07-.27.11-.44.11s-.3-.04-.43-.11c-.13-.07-.22-.18-.29-.31-.07-.13-.1-.28-.1-.45s.04-.32.1-.44Zm-3.48,2.83v-1.3c.09.11.17.21.29.28.17.09.37.14.59.14.26,0,.49-.07.7-.2.21-.13.38-.31.5-.54s.18-.48.18-.76-.06-.54-.18-.77c-.12-.23-.29-.41-.5-.54-.21-.13-.44-.2-.7-.2-.22,0-.41.05-.58.14-.13.07-.21.18-.3.28v-.37h-.66v3.85c.15-.03.29-.06.45-.06.07,0,.14.02.21.03Zm.06-2.83c.07-.13.16-.23.29-.31.12-.07.27-.11.43-.11s.3.04.42.11c.12.07.22.18.29.31.07.13.1.28.1.46s-.04.32-.1.46c-.07.13-.17.23-.29.31-.12.07-.26.11-.42.11s-.3-.04-.43-.11c-.12-.07-.22-.18-.29-.31-.07-.13-.1-.28-.1-.46s.03-.32.1-.46Zm27.57,1.16h.45v-1.64h-.45v1.64Zm5.59,0h.44v-1.25h.49v-.39h-.49v-.19c0-.08.02-.14.07-.19.04-.04.11-.07.19-.07.04,0,.08,0,.11.02.03.01.06.03.08.06l.28-.29c-.06-.06-.13-.11-.21-.15s-.17-.05-.27-.05c-.14,0-.26.03-.37.09-.1.06-.18.14-.24.24s-.08.22-.08.35v.18h-.38v.39h.38v1.25Zm-10.39-.06c.11.06.24.09.38.09s.27-.03.39-.09c.11-.06.2-.14.26-.25.06-.11.09-.24.09-.38v-.95h-.44v.94c0,.1-.03.18-.08.24-.05.06-.12.08-.22.08-.06,0-.11-.01-.16-.04-.04-.02-.08-.06-.1-.11s-.03-.11-.03-.17v-.94h-.45v.95c0,.14.03.27.1.38.06.11.15.19.26.25Zm13.89-.85c0-.12.03-.21.09-.27s.14-.09.23-.09c.04,0,.08,0,.12.02s.07.03.09.06l.28-.32c-.05-.06-.11-.1-.17-.13s-.13-.04-.21-.04c-.18,0-.32.06-.42.17,0,0,0,0,0,0v-.15h-.44v1.64h.44v-.91Zm-8.88-1c.07,0,.13-.02.18-.07.05-.05.07-.11.07-.18s-.02-.13-.07-.18c-.05-.05-.11-.08-.18-.08s-.13.03-.18.08c-.05.05-.07.11-.07.18s.02.13.07.18c.05.05.11.07.18.07Zm.3,3.06h-.68v2.42h1.68v-.58h-1v-1.84Zm3.36-2.63s-.08-.1-.14-.13c-.09-.05-.2-.07-.32-.07-.15,0-.28.04-.4.11s-.21.17-.28.29c-.07.12-.1.26-.1.41s.03.29.1.42c.07.12.16.22.28.29s.25.11.4.11c.12,0,.23-.02.32-.07.06-.03.1-.08.14-.13v.16c0,.12-.04.22-.12.29-.08.07-.19.11-.33.11-.11,0-.21-.02-.28-.06-.08-.04-.15-.1-.21-.17l-.28.28c.08.11.19.2.32.26s.29.09.46.09.33-.03.46-.1c.13-.07.24-.16.31-.28.08-.12.11-.26.11-.43v-1.55h-.44v.16Zm-.03.83c-.03.06-.08.11-.14.15-.06.04-.13.05-.21.05s-.15-.02-.21-.05-.11-.09-.14-.15c-.03-.06-.05-.13-.05-.21s.02-.15.05-.21c.03-.06.08-.11.14-.15s.13-.05.21-.05.15.02.21.05.11.08.14.14c.03.06.05.13.05.21s-.02.15-.05.21Zm-4.52-.94c-.09-.06-.2-.09-.32-.09s-.24.03-.33.08c-.06.03-.1.09-.14.14v-.18h-.44v1.64h.44v-.94c0-.07.01-.12.04-.17s.07-.09.12-.12.11-.04.17-.04c.1,0,.18.03.24.09s.09.14.09.24v.94h.44v-1.04c0-.11-.03-.21-.08-.31-.05-.1-.13-.17-.22-.23Zm2.61.64v.94h.44v-1.04c0-.11-.03-.21-.08-.31-.05-.1-.13-.17-.22-.23-.09-.06-.2-.09-.32-.09s-.24.03-.33.08c-.06.03-.1.09-.14.14v-.18h-.44v1.64h.44v-.94c0-.07.01-.12.04-.17s.07-.09.12-.12.11-.04.17-.04c.1,0,.18.03.24.09s.09.14.09.24Zm.73,2.1l-.92,2.42h.69l.14-.41h.85l.13.41h.71l-.91-2.42h-.69Zm.09,1.48l.25-.75.25.75h-.5Zm6.64-1.15c-.12-.11-.26-.19-.42-.24-.16-.06-.33-.08-.52-.08h-1.02v2.42h1.02c.19,0,.36-.03.52-.08s.3-.14.41-.24.21-.23.27-.38.1-.31.1-.5-.03-.35-.1-.5-.16-.28-.27-.38Zm-.4,1.23c-.05.09-.12.17-.21.21-.09.05-.2.07-.33.07h-.34v-1.26h.34c.13,0,.24.02.33.07.09.05.16.12.21.21s.08.21.08.35-.03.26-.08.35Zm-2.84-.28l-1.02-1.28h-.47v2.42h.68v-1.24l.98,1.24h.51v-2.42h-.68v1.28Zm-15.51-.78c.09,0,.17.02.24.05.08.04.15.09.22.16l.43-.42c-.1-.11-.23-.19-.38-.25s-.32-.09-.5-.09-.34.03-.48.09c-.14.06-.24.15-.32.26-.08.11-.11.25-.11.4,0,.12.02.22.06.3.04.08.09.15.16.21.07.05.14.1.22.14.08.04.16.07.24.1.08.03.15.05.22.08.07.03.12.06.16.09.04.03.06.07.06.12s-.02.09-.07.12c-.05.03-.12.04-.21.04-.11,0-.21-.02-.31-.07-.1-.04-.19-.11-.28-.19l-.42.42c.13.13.27.23.42.29.15.06.33.09.54.09.32,0,.57-.07.74-.2.18-.13.26-.33.26-.57,0-.12-.02-.23-.06-.31-.04-.09-.09-.16-.16-.22s-.14-.11-.22-.14-.16-.07-.24-.1-.15-.05-.22-.08c-.07-.02-.12-.05-.16-.08s-.06-.07-.06-.12c0-.04.02-.08.06-.1s.1-.03.17-.03Zm17.28-1.74c.13-.08.24-.18.31-.31.08-.13.12-.28.12-.44s-.04-.31-.12-.43c-.08-.13-.18-.23-.31-.31-.13-.08-.28-.11-.45-.11s-.31.04-.44.11c-.13.08-.24.18-.32.31-.08.13-.12.27-.12.43s.04.31.12.44.18.23.32.31c.13.08.28.11.45.11s.31-.04.45-.11Zm-.67-.36c-.06-.04-.11-.09-.15-.16-.04-.07-.05-.14-.05-.23s.02-.16.05-.23c.04-.07.09-.12.15-.15.06-.04.14-.06.22-.06s.16.02.22.06.11.09.15.15.05.14.05.23-.02.16-.05.23c-.04.07-.08.12-.15.16-.06.04-.14.06-.22.06s-.15-.02-.22-.06Zm-9.29,1.59h-.72v.58h.72v1.84h.68v-1.84h.73v-.58h-1.4Zm-5.43-1.12c.13,0,.26-.02.37-.07.11-.05.21-.12.29-.21l-.26-.26c-.05.06-.11.1-.18.13-.07.03-.14.04-.23.04-.09,0-.17-.02-.24-.06-.07-.04-.12-.1-.16-.17-.01-.03-.01-.06-.02-.09h1.18s.01-.08.02-.11c0-.03,0-.06,0-.09,0-.16-.03-.3-.1-.42-.07-.12-.16-.22-.29-.29s-.26-.11-.42-.11-.31.04-.44.11c-.13.08-.24.18-.31.31-.08.13-.11.27-.11.44s.04.31.12.44.18.23.32.3.29.11.46.11Zm-.41-1.12c.04-.07.08-.13.15-.17.07-.04.14-.06.23-.06s.15.02.21.05.1.09.13.15c.01.03.01.07.02.11h-.77s0-.06.02-.08Zm-1.07,0c.12-.06.21-.14.27-.24.06-.1.1-.22.1-.36s-.03-.26-.1-.36c-.06-.1-.16-.19-.27-.25-.12-.06-.25-.09-.41-.09h-.93v2.39h.46v-1h.08l.76,1h.56l-.81-1.02c.1-.01.2-.02.29-.06Zm-.88-.27v-.65h.43c.11,0,.2.03.26.09s.09.14.09.23c0,.1-.03.18-.09.24-.06.06-.15.09-.26.09h-.43Zm3.31,4.33c-.08.03-.17.05-.27.05-.09,0-.17-.02-.25-.05-.08-.03-.14-.07-.2-.13-.05-.06-.1-.12-.13-.21-.03-.08-.05-.17-.05-.27s.01-.19.05-.27c.03-.08.07-.15.13-.21s.12-.1.2-.13c.08-.03.16-.04.25-.04.1,0,.2.02.27.05s.14.08.2.14l.45-.45c-.12-.1-.25-.19-.41-.24-.16-.06-.33-.09-.52-.09s-.36.03-.52.09-.3.15-.42.26c-.12.11-.21.24-.28.39-.07.15-.1.32-.1.5s.03.34.1.5c.07.15.16.29.28.4s.26.2.42.26c.16.06.33.09.52.09.2,0,.38-.03.53-.09s.28-.14.4-.24l-.45-.46c-.06.06-.13.11-.21.14Zm4.05-4.22s.07.03.09.06l.28-.32c-.05-.06-.11-.1-.17-.13s-.13-.04-.21-.04c-.18,0-.32.06-.42.17,0,0,0,0,0,0v-.15h-.44v1.64h.44v-.91c0-.12.03-.21.09-.27s.14-.09.23-.09c.04,0,.08,0,.12.02Zm-.92,2.71c-.12-.11-.26-.2-.42-.26s-.33-.09-.52-.09-.36.03-.52.09c-.16.06-.3.15-.42.26-.12.11-.21.25-.27.4-.06.15-.1.32-.1.5s.03.35.1.5c.07.15.16.29.28.4.12.11.26.2.42.26.16.06.33.1.52.1s.36-.03.52-.09.3-.15.41-.26c.12-.11.21-.25.27-.4.07-.15.1-.32.1-.5s-.03-.35-.1-.5c-.06-.15-.16-.29-.27-.4Zm-.4,1.25c-.05.1-.12.18-.21.23-.09.05-.2.08-.33.08-.09,0-.18-.02-.26-.05-.08-.03-.14-.07-.2-.13s-.1-.13-.12-.21-.04-.17-.04-.28c0-.13.02-.25.07-.35.05-.1.12-.17.21-.23.09-.05.2-.08.33-.08.1,0,.18.01.26.05.08.03.14.07.19.13.05.06.1.13.12.21s.04.17.04.27c0,.13-.03.25-.08.35Zm-1.61-4.35h-.38v-.68h-.44v.68h-.38v.39h.38v1.25h.44v-1.25h.38v-.39Z"/></svg>