<?xml version="1.0" encoding="UTF-8"?><svg id="Layer_1" xmlns="http://www.w3.org/2000/svg" viewBox="0 0 64 64"><defs><style>.cls-1{fill:#660269;}</style></defs><path class="cls-1" d="m32,5.77c8.54,0,9.56.03,12.93.19,3.12.14,4.81.66,5.94,1.1,1.49.58,2.56,1.27,3.68,2.39,1.12,1.12,1.81,2.19,2.39,3.68.44,1.13.96,2.82,1.1,5.94.15,3.37.19,4.39.19,12.93s-.03,9.56-.19,12.93c-.14,3.12-.66,4.81-1.1,5.94-.58,1.49-1.27,2.56-2.39,3.68s-2.19,1.81-3.68,2.39c-1.13.44-2.82.96-5.94,1.1-3.37.15-4.39.19-12.93.19s-9.56-.03-12.93-.19c-3.12-.14-4.81-.66-5.94-1.1-1.49-.58-2.56-1.27-3.68-2.39-1.12-1.12-1.81-2.19-2.39-3.68-.44-1.13-.96-2.82-1.1-5.94-.15-3.37-.19-4.39-.19-12.93s.03-9.56.19-12.93c.14-3.12.66-4.81,1.1-5.94.58-1.49,1.27-2.56,2.39-3.68s2.19-1.81,3.68-2.39c1.13-.44,2.82-.96,5.94-1.1,3.37-.15,4.39-.19,12.93-.19m0-5.77c-8.69,0-9.78.04-13.19.19-3.41.16-5.73.7-7.77,1.49-2.1.82-3.89,1.91-5.67,3.69-1.78,1.78-2.87,3.56-3.69,5.67-.79,2.04-1.33,4.36-1.49,7.77-.16,3.41-.19,4.5-.19,13.19s.04,9.78.19,13.19c.16,3.41.7,5.73,1.49,7.77.82,2.1,1.91,3.89,3.69,5.67,1.78,1.78,3.56,2.87,5.67,3.69,2.04.79,4.36,1.33,7.77,1.49,3.41.16,4.5.19,13.19.19s9.78-.04,13.19-.19c3.41-.16,5.73-.7,7.77-1.49,2.1-.82,3.89-1.91,5.67-3.69,1.78-1.78,2.87-3.56,3.69-5.67.79-2.04,1.33-4.36,1.49-7.77.16-3.41.19-4.5.19-13.19s-.04-9.78-.19-13.19c-.16-3.41-.7-5.73-1.49-7.77-.82-2.1-1.91-3.89-3.69-5.67-1.78-1.78-3.56-2.87-5.67-3.69-2.04-.79-4.36-1.33-7.77-1.49-3.41-.16-4.5-.19-13.19-.19h0Z"/><path class="cls-1" d="m32,15.57c-9.08,0-16.43,7.36-16.43,16.43s7.36,16.43,16.43,16.43,16.43-7.36,16.43-16.43-7.36-16.43-16.43-16.43Zm0,27.1c-5.89,0-10.67-4.78-10.67-10.67s4.78-10.67,10.67-10.67,10.67,4.78,10.67,10.67-4.78,10.67-10.67,10.67Z"/><circle class="cls-1" cx="49.08" cy="14.92" r="3.84"/></svg>