<?xml version="1.0" encoding="utf-8"?>
<!-- Generator: Adobe Illustrator 27.4.0, SVG Export Plug-In . SVG Version: 6.00 Build 0)  -->
<svg version="1.1" id="Layer_1" xmlns="http://www.w3.org/2000/svg" xmlns:xlink="http://www.w3.org/1999/xlink" x="0px" y="0px"
	 viewBox="0 0 64 64" style="enable-background:new 0 0 64 64;" xml:space="preserve">
<style type="text/css">
	.st0{fill:none;}
	.st1{fill:#660269;}
</style>
<rect class="st0" width="64" height="64"/>
<g id="Line_84">
	<path class="st1" d="M47.2,40.6c-0.3,0-0.5-0.1-0.7-0.3L31.3,25.1c-0.4-0.4-0.4-1,0-1.4c0.4-0.4,1-0.4,1.4,0l15.2,15.2
		c0.4,0.4,0.4,1,0,1.4C47.7,40.5,47.4,40.6,47.2,40.6z"/>
</g>
<g id="Line_85">
	<path class="st1" d="M16.8,40.6c-0.3,0-0.5-0.1-0.7-0.3c-0.4-0.4-0.4-1,0-1.4l15.2-15.2c0.4-0.4,1-0.4,1.4,0c0.4,0.4,0.4,1,0,1.4
		L17.5,40.3C17.3,40.5,17.1,40.6,16.8,40.6z"/>
</g>
</svg>
