<?xml version="1.0" encoding="utf-8"?>
<!-- Generator: Adobe Illustrator 27.4.0, SVG Export Plug-In . SVG Version: 6.00 Build 0)  -->
<svg version="1.1" id="Layer_1" xmlns="http://www.w3.org/2000/svg" xmlns:xlink="http://www.w3.org/1999/xlink" x="0px" y="0px"
	 viewBox="0 0 128 128" style="enable-background:new 0 0 128 128;" xml:space="preserve">
<style type="text/css">
	.st0{fill:#660269;}
</style>
<g>
	<g>
		<path class="st0" d="M96.7,32.2c-5.7-3.7-9.8-9.7-11.1-16.6c-0.3-1.5-0.4-3-0.4-4.6H67l0,72.8c-0.3,8.2-7,14.7-15.2,14.7
			c-2.6,0-5-0.6-7.1-1.8c-4.9-2.6-8.2-7.7-8.2-13.5c0-8.4,6.9-15.3,15.3-15.3c1.6,0,3.1,0.3,4.5,0.7V54.4v-4.3
			c-1.5-0.2-3-0.3-4.5-0.3c-18.4,0-33.4,15-33.4,33.4c0,11.3,5.7,21.3,14.3,27.4c5.4,3.8,12,6.1,19.2,6.1c18.4,0,33.4-15,33.4-33.4
			V46.3c7.1,5.1,15.9,8.1,25.3,8.1V40.3v-4C105.3,36.3,100.6,34.8,96.7,32.2z"/>
	</g>
</g>
</svg>
