<?xml version="1.0" encoding="UTF-8"?><svg id="Layer_1" xmlns="http://www.w3.org/2000/svg" viewBox="0 0 521 121"><defs><style>.cls-1{fill:none;}.cls-2{fill:#ebebeb;}.cls-3{fill:#660269;}</style></defs><rect class="cls-1" x="0" width="521" height="121"/><path class="cls-2" d="m521,98.83v22.05H0v-40.82c6.93-1.07,13.75-2.13,20.5-3.18,9.93-1.54,19.73-3.06,29.39-4.56,3.83-.6,7.67-1.18,11.49-1.77,1.88-.3,3.76-.57,5.63-.86,5.52-.86,11.02-1.68,16.56-2.52,2.37-.36,4.72-.71,7.1-1.06,2.03-.31,4.07-.6,6.13-.91,4.53-.67,9.08-1.33,13.65-1.99,23.7-3.42,48.16-6.79,74.72-10.11,5.31-.66,10.73-1.33,16.22-2,.19-.02.36-.04.54-.05,22.74-2.75,47.12-5.47,73.9-8.24l108.05-12.28c8.63-.69,16.38-1.76,23.89-2.83,19.74-2.75,35.39-4.93,48.58,3.37.96,2.5,5.31,5.66,11.73,10.11,1.26.88,2.49,1.74,3.65,2.57,2.32,1.66,4.44,3.58,6.33,5.72l8.02,9.08.07.09c12.32,13.99,23.81,27.29,34.85,40.19Z"/><path id="CS_CoinShape_RGB_Outline_Lime" class="cls-3" d="m471.99,26.89c-5.91-6.06-12.86-11.01-20.53-14.6-2.96-3.23-8.56-5.53-17.61-7.22-6.42-1.22-9.02-.99-15.98-.42l-.6.06c-1.77.1-2.93.16-3.79.21-1.72.1-4.34.34-7.85.72l-17.38,1.84c-111.18,11.33-227.24,21.64-315.94,29.38l-49.4,4.44L0,43.52v48.97c7.72-1.2,15.31-2.38,22.82-3.54,9.76-1.51,19.38-3.01,28.88-4.49,3.75-.58,7.52-1.15,11.28-1.73,1.85-.29,3.69-.56,5.53-.85,5.43-.84,10.83-1.65,16.26-2.47,2.33-.35,4.64-.7,6.97-1.04,2-.3,4.01-.59,6.03-.89,4.45-.66,8.92-1.31,13.41-1.95,23.29-3.36,47.31-6.67,73.41-9.93,5.22-.65,10.54-1.31,15.93-1.96.2-.02.36-.05.54-.06,22.34-2.7,46.29-5.37,72.6-8.09l106.15-12.06c8.48-.68,16.1-1.74,23.47-2.78,19.4-2.71,34.77-4.85,47.73,3.31.95,2.45,5.22,5.56,11.52,9.94,1.24.86,2.45,1.7,3.59,2.51,2.28,1.63,4.37,3.52,6.22,5.62l7.88,8.92.07.09c14.53,16.49,27.88,32.02,40.71,47.05v-43.64c-16.49-15.77-32.9-31.66-49.01-47.56Z"/></svg>