<?xml version="1.0" encoding="UTF-8"?><svg id="Layer_1" xmlns="http://www.w3.org/2000/svg" viewBox="0 0 1920 325.5"><defs><style>.cls-1{fill:#660269;}</style></defs><g id="Mask_Group_10"><path class="cls-1" d="m1920,0v270.3c-2.64,2.56-5.2,5.01-7.67,7.36-2.83,2.41-5.66,4.73-8.5,6.87-43.52,33.27-100.82,47.47-155.43,38.18-1.93-.42-8.15-1.39-14.81-2.43-8.5-1.38-17.79-2.89-20.51-3.44-16.74-2.77-47.24-7.94-78.63-13.24-35.59-6.03-72.4-12.26-91.85-15.41-242.06-41.48-546.15-93.17-870.41-148.22-132.34-25.27-266.64-51.39-399.71-77.4C179.47,44.43,88.25,26.63,0,9.61V0h1920Z"/></g></svg>