<svg width="180" height="54" viewBox="0 0 180 54" fill="none" xmlns="http://www.w3.org/2000/svg">
<g clip-path="url(#clip0_10_2)">
<path d="M173.33 53.333H6.67041C3.00381 53.333 0.00390625 50.3331 0.00390625 46.6665V6.66748C0.00390625 3.00088 3.00381 0.000976562 6.67041 0.000976562H173.33C176.997 0.000976562 179.997 3.00088 179.997 6.66748V46.6665C179.997 50.3331 176.997 53.333 173.33 53.333Z" fill="#100F0D"/>
<path d="M173.33 0.000976562H6.67041C3.00381 0.000976562 0.00390625 3.00088 0.00390625 6.66748V46.6665C0.00390625 50.3331 3.00381 53.333 6.67041 53.333H173.33C176.997 53.333 179.997 50.3331 179.997 46.6665V6.66748C179.997 3.00088 176.997 0.000976562 173.33 0.000976562ZM173.33 1.06708C176.418 1.06708 178.93 3.57958 178.93 6.66748V46.6665C178.93 49.7544 176.418 52.2669 173.33 52.2669H6.67041C3.58251 52.2669 1.07111 49.7544 1.07111 46.6665V6.66748C1.07111 3.57958 3.58251 1.06708 6.67041 1.06708H173.33Z" fill="#A2A2A1"/>
<path d="M142.579 40H145.067V23.331H142.579V40ZM164.988 29.336L162.136 36.5624H162.051L159.091 29.336H156.411L160.851 39.436L158.319 45.0545H160.914L167.755 29.3365L164.988 29.336ZM150.878 38.1066C150.065 38.1066 148.928 37.6988 148.928 36.691C148.928 35.4045 150.344 34.9113 151.565 34.9113C152.658 34.9113 153.174 35.1468 153.838 35.4687C153.645 37.0129 152.316 38.1066 150.878 38.1066ZM151.18 28.9714C149.378 28.9714 147.513 29.7651 146.741 31.5235L148.949 32.4454C149.421 31.5235 150.3 31.2236 151.222 31.2236C152.509 31.2236 153.817 31.9949 153.838 33.3678V33.5391C153.387 33.2818 152.422 32.8959 151.244 32.8959C148.862 32.8959 146.44 34.2036 146.44 36.6483C146.44 38.8785 148.392 40.3154 150.578 40.3154C152.25 40.3154 153.174 39.5649 153.751 38.6853H153.838V39.9727H156.241V33.5817C156.241 30.6224 154.03 28.9714 151.18 28.9714ZM135.804 31.3651H132.265V25.6518H135.804C137.664 25.6518 138.719 27.1914 138.719 28.5084C138.719 29.8001 137.663 31.3651 135.804 31.3651ZM135.74 23.3314H129.778V40.0004H132.265V33.6855H135.74C138.497 33.6855 141.208 31.6897 141.208 28.509C141.208 25.3289 138.497 23.3314 135.74 23.3314ZM103.233 38.1094C101.514 38.1094 100.075 36.6698 100.075 34.6944C100.075 32.696 101.514 31.2361 103.233 31.2361C104.929 31.2361 106.261 32.6961 106.261 34.6944C106.261 36.6698 104.929 38.1094 103.233 38.1094ZM106.089 30.2691H106.003C105.445 29.6034 104.37 29.0019 103.018 29.0019C100.182 29.0019 97.5832 31.494 97.5832 34.6944C97.5832 37.873 100.182 40.3432 103.018 40.3432C104.37 40.3432 105.445 39.7416 106.003 39.0547H106.089V39.8703C106.089 42.0406 104.929 43.1999 103.061 43.1999C101.536 43.1999 100.591 42.1046 100.204 41.1811L98.0349 42.0832C98.6572 43.5862 100.311 45.4342 103.061 45.4342C105.983 45.4342 108.453 43.7154 108.453 39.5265V29.3455H106.089L106.089 30.2691ZM110.171 39.9995H112.662V23.3305H110.171V39.9995ZM116.335 34.5007C116.271 32.3096 118.033 31.1929 119.3 31.1929C120.288 31.1929 121.125 31.6872 121.406 32.3955L116.335 34.5007ZM124.068 32.6101C123.596 31.3435 122.157 29.0019 119.214 29.0019C116.292 29.0019 113.865 31.3002 113.865 34.6726C113.865 37.8517 116.271 40.3433 119.493 40.3433C122.092 40.3433 123.596 38.7543 124.219 37.8303L122.286 36.5413C121.641 37.4866 120.761 38.1095 119.493 38.1095C118.226 38.1095 117.323 37.5294 116.744 36.3909L124.326 33.255L124.068 32.6101ZM63.6591 30.7419V33.1476H69.4156C69.2437 34.5008 68.7926 35.4887 68.1052 36.1762C67.2672 37.0137 65.9569 37.9376 63.659 37.9376C60.1147 37.9376 57.344 35.0809 57.344 31.5367C57.344 27.9925 60.1147 25.1354 63.659 25.1354C65.5708 25.1354 66.9667 25.8874 67.9978 26.854L69.6952 25.1567C68.2556 23.7822 66.3442 22.7297 63.659 22.7297C58.8038 22.7297 54.7227 26.6821 54.7227 31.5367C54.7227 36.3908 58.8038 40.3433 63.659 40.3433C66.2792 40.3433 68.2557 39.484 69.802 37.8731C71.3916 36.2835 71.8858 34.0497 71.8858 32.2451C71.8858 31.6873 71.8424 31.1717 71.7566 30.7419H63.6591ZM78.4311 38.1094C76.7123 38.1094 75.2301 36.6917 75.2301 34.6726C75.2301 32.632 76.7123 31.2362 78.4311 31.2362C80.1492 31.2362 81.6314 32.632 81.6314 34.6726C81.6314 36.6917 80.1492 38.1094 78.4311 38.1094ZM78.4311 29.0019C75.2941 29.0019 72.7384 31.3861 72.7384 34.6726C72.7384 37.9376 75.2941 40.3433 78.4311 40.3433C81.5669 40.3433 84.1231 37.9376 84.1231 34.6726C84.1231 31.3861 81.5669 29.0019 78.4311 29.0019ZM90.8481 38.1094C89.1305 38.1094 87.6478 36.6917 87.6478 34.6726C87.6478 32.632 89.1306 31.2362 90.8481 31.2362C92.5669 31.2362 94.0486 32.632 94.0486 34.6726C94.0486 36.6917 92.5669 38.1094 90.8481 38.1094ZM90.8481 29.0019C87.7123 29.0019 85.1566 31.3861 85.1566 34.6726C85.1566 37.9376 87.7123 40.3433 90.8481 40.3433C93.9851 40.3433 96.5408 37.9376 96.5408 34.6726C96.5408 31.3861 93.9851 29.0019 90.8481 29.0019Z" fill="white"/>
<path d="M27.6217 25.8991L13.4277 40.9651C13.4283 40.9682 13.4293 40.9708 13.4298 40.974C13.8652 42.61 15.3594 43.8146 17.1328 43.8146C17.8418 43.8146 18.5073 43.6229 19.0781 43.2865L19.1235 43.2599L35.1015 34.0399L27.6217 25.8991Z" fill="#EB3131"/>
<path d="M41.9823 23.334L41.9687 23.3247L35.0705 19.3257L27.2988 26.2413L35.0975 34.039L41.9593 30.0798C43.1623 29.4303 43.979 28.1621 43.979 26.6996C43.979 25.2476 43.1734 23.9856 41.9823 23.334Z" fill="#F6B60B"/>
<path d="M13.4251 12.3701C13.3398 12.6848 13.2949 13.0144 13.2949 13.3566V39.9796C13.2949 40.3212 13.3392 40.652 13.4256 40.9655L28.1096 26.2845L13.4251 12.3701Z" fill="#5778C5"/>
<path d="M27.7278 26.668L35.0751 19.3229L19.1151 10.0695C18.5349 9.72201 17.8579 9.52148 17.1334 9.52148C15.36 9.52148 13.8637 10.7283 13.4283 12.3662C13.4277 12.3678 13.4277 12.3689 13.4277 12.3703L27.7278 26.668Z" fill="#3BAD49"/>
<path d="M63.193 13.0419H59.3035V14.0044H62.2181C62.1389 14.7899 61.8263 15.4065 61.2993 15.8544C60.7722 16.3024 60.0993 16.5273 59.3035 16.5273C58.4306 16.5273 57.691 16.2232 57.0849 15.6191C56.491 15.0024 56.189 14.2399 56.189 13.3212C56.189 12.4025 56.491 11.64 57.0849 11.0234C57.691 10.4193 58.4306 10.1171 59.3035 10.1171C59.7515 10.1171 60.1785 10.1942 60.5701 10.363C60.9618 10.5317 61.2763 10.7671 61.5222 11.0693L62.2618 10.3297C61.9263 9.94836 61.5014 9.65676 60.9742 9.44424C60.4471 9.23171 59.8972 9.12971 59.3034 9.12971C58.1389 9.12971 57.1515 9.53383 56.3452 10.3401C55.5389 11.1484 55.1348 12.1442 55.1348 13.3212C55.1348 14.4982 55.5389 15.4962 56.3452 16.3025C57.1514 17.1086 58.1389 17.5129 59.3034 17.5129C60.5263 17.5129 61.5013 17.1212 62.2513 16.3253C62.9116 15.6629 63.2491 14.7671 63.2491 13.6463C63.2491 13.4567 63.2263 13.2544 63.193 13.0419ZM64.6998 9.3087V17.3336H69.385V16.3482H65.731V13.8025H69.0268V12.8399H65.731V10.2962H69.385V9.30867L64.6998 9.3087ZM75.9548 10.2963V9.3087H70.4403V10.2963H72.682V17.3336H73.7132V10.2963H75.9548ZM80.9473 9.3087H79.9161V17.3336H80.9473V9.3087ZM87.7539 10.2963V9.3087H82.2395V10.2963H84.481V17.3336H85.5122V10.2963H87.7539ZM98.1599 10.3525C97.364 9.53377 96.3891 9.12964 95.2245 9.12964C94.0579 9.12964 93.083 9.53376 92.2871 10.34C91.4912 11.1359 91.0997 12.1337 91.0997 13.3211C91.0997 14.5085 91.4912 15.5065 92.2871 16.3024C93.0829 17.1085 94.0579 17.5128 95.2245 17.5128C96.3786 17.5128 97.364 17.1086 98.1599 16.3024C98.9557 15.5066 99.3473 14.5086 99.3473 13.3211C99.3473 12.1441 98.9557 11.1482 98.1599 10.3525ZM93.0267 11.0233C93.6204 10.4192 94.3496 10.1171 95.2245 10.1171C96.0974 10.1171 96.8266 10.4192 97.4099 11.0233C98.0036 11.617 98.2952 12.3919 98.2952 13.3211C98.2952 14.2524 98.0036 15.0252 97.4099 15.619C96.8265 16.2231 96.0974 16.5273 95.2245 16.5273C94.3495 16.5273 93.6204 16.2231 93.0267 15.619C92.4453 15.0128 92.1537 14.2524 92.1537 13.3211C92.1537 12.3919 92.4453 11.6295 93.0267 11.0233ZM101.797 12.3358L101.754 10.7878H101.797L105.876 17.3335H106.953V9.30862H105.922V14.0043L105.966 15.5523H105.922L102.022 9.30862H100.766V17.3335H101.797V12.3358Z" fill="white" stroke="white" stroke-width="0.26666" stroke-miterlimit="10"/>
</g>
<defs>
<clipPath id="clip0_10_2">
<rect width="180" height="53.333" fill="white"/>
</clipPath>
</defs>
</svg>
