<?xml version="1.0" encoding="utf-8"?>
<!-- Generator: Adobe Illustrator 27.4.0, SVG Export Plug-In . SVG Version: 6.00 Build 0)  -->
<svg version="1.1" id="Layer_1" xmlns="http://www.w3.org/2000/svg" xmlns:xlink="http://www.w3.org/1999/xlink" x="0px" y="0px"
	 viewBox="0 0 195.7 553" style="enable-background:new 0 0 195.7 553;" xml:space="preserve">
<style type="text/css">
	.st0{fill:#660269;}
	.st1{fill:#C6E236;}
</style>
<polygon class="st0" points="0,553 88.4,553 14.1,296.7 166.9,0 0,0 "/>
<path id="CS_CoinShape_RGB_Outline_Lime" class="st1" d="M166.9,0l-3,5.4C123.8,77.2,81,151.4,48.3,208l-18.2,31.6l-15.3,27.1
	c-1.7,3-2.5,4.4-2.8,5.1l-0.1,0c-8,14.9-9.6,33.5-4.1,49.9c23.4,71,48.1,140.8,77.9,223.9l0.3,1c0.7,2.1,1.5,4.3,2.4,6.5h55
	c-6.1-1.6-12.8-4-15.2-8c-0.8-1.4-1.6-2.9-2.1-4.4c-0.2-0.5-0.4-1.1-0.6-1.7c-0.2-0.5-0.4-1.1-0.6-1.6c-0.1-0.4-0.3-0.8-0.4-1.2
	c-0.4-1.3-0.9-2.6-1.3-3.8C100.4,465.4,78,401.8,56.7,343.2c-1.7-4.6-3.3-9.1-4.9-13.5c-2.7-7.3-5.2-14.2-7.7-20.6
	c-2.5-6.8-2.3-14.3,0.7-20.9c4.8-9.8,9.5-19.2,14-28.4c3.2-6.5,6.4-12.9,9.5-19.3c1.2-2.5,2.5-5,3.7-7.5c0.6-1.2,1.2-2.5,1.8-3.7
	c1.8-3.6,3.6-7.2,5.4-10.8c0.8-1.6,1.5-3.1,2.3-4.6c0.7-1.3,1.3-2.7,2-4c1.5-3,3-5.9,4.5-8.9c7.8-15.4,15.9-31.3,25-48.4
	c1.8-3.4,3.7-6.9,5.5-10.4c0.1-0.1,0.1-0.2,0.2-0.3c7.8-14.6,16.3-30.1,25.8-47.1l37.5-69c3.2-5.4,5.8-10.4,8.2-15.3
	c1.9-3.7,3.7-7.2,5.5-10.4L166.9,0L166.9,0z"/>
</svg>
