<?xml version="1.0" encoding="utf-8"?>
<!-- Generator: Adobe Illustrator 27.4.0, SVG Export Plug-In . SVG Version: 6.00 Build 0)  -->
<svg version="1.1" id="Layer_1" xmlns="http://www.w3.org/2000/svg" xmlns:xlink="http://www.w3.org/1999/xlink" x="0px" y="0px"
	 viewBox="0 0 581.7 179.2" style="enable-background:new 0 0 581.7 179.2;" xml:space="preserve">
<style type="text/css">
	.st0{fill:#660269;}
	.st1{fill:#C6E236;}
</style>
<polygon class="st0" points="0,179.2 0,75.9 417.2,162.9 581.7,18.3 581.7,179.1 "/>
<path id="CS_CoinShape_RGB_Outline_Lime" class="st1" d="M501.7,71.9c-13.5,12.5-26.6,24.6-39,36.1c-3,2.7-6.6,6.1-10.4,9.6
	c-6.8,6.3-14.5,13.5-19.9,18.1c-0.5,0.4-1.1,0.8-1.6,1.2c-8.5,5.8-19,7.8-29,5.5c-0.4-0.1-1.5-0.3-2.7-0.6c-1.6-0.3-3.2-0.7-3.7-0.8
	c-3-0.7-8.6-1.9-14.3-3.2c-6.5-1.5-13.2-2.9-16.8-3.7c-44.1-10-99.6-22.4-158.8-35.7c-24.1-5.9-48.6-12-72.8-18.1
	C84.1,68.1,38.2,56.6,0,47.9v49.6l23.5,4.6c46.3,9,110.4,20.5,172.4,31.6c63.1,11.3,128.3,22.9,175.4,32.1c3.9,1.2,7.6,2.7,11.3,4.4
	c3.6,1.6,7.3,3,11.1,4.2c4.6,1,9.3,1.5,13.9,1.6c0.5,0,1.1,0,1.7,0c15.4-0.2,30.5-5.5,42.8-15.3c0.9-0.8,1.9-1.7,3-2.7
	c4.8-4.6,10.5-10.8,16.1-16.9c5.4-5.9,10.5-11.5,14.5-15.2c21.5-21.1,45.6-43.8,68.9-65.8c8.3-7.8,16.6-15.6,24.9-23.5V0
	C554.1,23.3,527.6,47.8,501.7,71.9L501.7,71.9z"/>
</svg>
