<?xml version="1.0" encoding="utf-8"?>
<!-- Generator: Adobe Illustrator 27.4.0, SVG Export Plug-In . SVG Version: 6.00 Build 0)  -->
<svg version="1.1" id="Layer_1" xmlns="http://www.w3.org/2000/svg" xmlns:xlink="http://www.w3.org/1999/xlink" x="0px" y="0px"
	 viewBox="0 0 521 121" style="enable-background:new 0 0 521 121;" xml:space="preserve">
<style type="text/css">
	.st0{fill:none;}
	.st1{fill:#660269;}
	.st2{fill:#C6E236;}
</style>
<rect class="st0" width="521" height="121"/>
<path class="st1" d="M521,98.8v22.1H0V80.1c6.9-1.1,13.8-2.1,20.5-3.2c9.9-1.5,19.7-3.1,29.4-4.6c3.8-0.6,7.7-1.2,11.5-1.8
	c1.9-0.3,3.8-0.6,5.6-0.9c5.5-0.9,11-1.7,16.6-2.5c2.4-0.4,4.7-0.7,7.1-1.1c2-0.3,4.1-0.6,6.1-0.9c4.5-0.7,9.1-1.3,13.7-2
	c23.7-3.4,48.2-6.8,74.7-10.1c5.3-0.7,10.7-1.3,16.2-2c0.2,0,0.4,0,0.5,0c22.7-2.8,47.1-5.5,73.9-8.2l108.1-12.3
	c8.6-0.7,16.4-1.8,23.9-2.8c19.7-2.8,35.4-4.9,48.6,3.4c1,2.5,5.3,5.7,11.7,10.1c1.3,0.9,2.5,1.7,3.6,2.6c2.3,1.7,4.4,3.6,6.3,5.7
	l8,9.1l0.1,0.1C498.5,72.6,510,85.9,521,98.8L521,98.8z"/>
<path id="CS_CoinShape_RGB_Outline_Lime" class="st2" d="M472,26.9c-5.9-6.1-12.9-11-20.5-14.6c-3-3.2-8.6-5.5-17.6-7.2
	c-6.4-1.2-9-1-16-0.4l-0.6,0.1c-1.8,0.1-2.9,0.2-3.8,0.2c-1.7,0.1-4.3,0.3-7.9,0.7l-17.4,1.8C277.1,18.8,161,29.1,72.3,36.9
	l-49.4,4.4L0,43.5v49c7.7-1.2,15.3-2.4,22.8-3.5c9.8-1.5,19.4-3,28.9-4.5c3.8-0.6,7.5-1.2,11.3-1.7c1.8-0.3,3.7-0.6,5.5-0.8
	c5.4-0.8,10.8-1.7,16.3-2.5c2.3-0.3,4.6-0.7,7-1c2-0.3,4-0.6,6-0.9c4.4-0.7,8.9-1.3,13.4-1.9c23.3-3.4,47.3-6.7,73.4-9.9
	c5.2-0.7,10.5-1.3,15.9-2c0.2,0,0.4,0,0.5-0.1c22.3-2.7,46.3-5.4,72.6-8.1l106.1-12.1c8.5-0.7,16.1-1.7,23.5-2.8
	c19.4-2.7,34.8-4.8,47.7,3.3c1,2.5,5.2,5.6,11.5,9.9c1.2,0.9,2.5,1.7,3.6,2.5c2.3,1.6,4.4,3.5,6.2,5.6l7.9,8.9l0.1,0.1
	c14.5,16.5,27.9,32,40.7,47V74.4C504.5,58.7,488.1,42.8,472,26.9z"/>
</svg>
