<?xml version="1.0" encoding="UTF-8"?><svg id="Layer_1" xmlns="http://www.w3.org/2000/svg" viewBox="0 0 195.69 552.97"><defs><style>.cls-1{fill:#fff;}.cls-2{fill:#c6e236;}</style></defs><polygon class="cls-1" points="0 552.97 88.43 552.97 14.07 296.74 166.89 0 0 0 0 552.97"/><path id="CS_CoinShape_RGB_Outline_Lime" class="cls-2" d="m166.89,0l-3.01,5.43c-40.09,71.72-82.86,145.94-115.63,202.61l-18.16,31.62-15.31,27.05c-1.69,3-2.48,4.37-2.75,5.07l-.08-.04c-8.01,14.89-9.56,33.54-4.13,49.88,23.39,70.97,48.06,140.82,77.89,223.87l.35.99c.74,2.1,1.52,4.29,2.37,6.49h54.98c-6.13-1.62-12.81-4.05-15.18-7.96-.85-1.39-1.57-2.86-2.14-4.39-.22-.55-.41-1.11-.62-1.67-.19-.54-.37-1.09-.56-1.62-.12-.4-.26-.78-.38-1.17-.43-1.3-.87-2.6-1.32-3.82-22.83-66.89-45.22-130.51-66.55-189.1-1.68-4.61-3.31-9.09-4.91-13.46-2.68-7.27-5.24-14.18-7.68-20.65-2.55-6.79-2.32-14.3.66-20.91,4.84-9.78,9.46-19.2,14-28.41,3.2-6.52,6.37-12.94,9.48-19.28,1.24-2.51,2.49-5.02,3.72-7.53.6-1.23,1.22-2.46,1.82-3.69,1.79-3.62,3.58-7.21,5.38-10.83.77-1.55,1.54-3.09,2.32-4.64.66-1.33,1.33-2.66,2-4,1.48-2.96,2.98-5.93,4.48-8.9,7.81-15.43,15.95-31.29,25-48.38,1.81-3.41,3.66-6.9,5.54-10.42.07-.12.12-.23.19-.34,7.81-14.59,16.3-30.14,25.77-47.13l37.52-68.99c3.17-5.39,5.75-10.42,8.23-15.3,1.9-3.71,3.68-7.19,5.51-10.38h-28.8Z"/></svg>