<?xml version="1.0" encoding="UTF-8"?><svg id="Layer_1" xmlns="http://www.w3.org/2000/svg" viewBox="0 0 581.73 179.2"><defs><style>.cls-1{fill:#fff;}.cls-2{fill:#c6e236;}</style></defs><polygon class="cls-1" points="0 179.2 0 75.9 417.23 162.87 581.71 18.3 581.73 179.14 0 179.2"/><path id="CS_CoinShape_RGB_Outline_Lime" class="cls-2" d="m501.66,71.88c-13.48,12.47-26.59,24.64-39,36.08-2.97,2.7-6.56,6.06-10.36,9.59-6.79,6.33-14.48,13.51-19.91,18.14-.54.42-1.08.82-1.64,1.19-8.48,5.75-18.97,7.75-28.97,5.53-.35-.09-1.49-.33-2.7-.59-1.56-.34-3.24-.7-3.74-.83-3.05-.67-8.62-1.92-14.34-3.2-6.49-1.46-13.21-2.95-16.75-3.72-44.14-9.97-99.61-22.44-158.75-35.7-24.1-5.93-48.57-12.04-72.81-18.11C84.12,68.09,38.17,56.6,0,47.93v49.61l23.54,4.59c46.34,9.04,110.41,20.49,172.37,31.57,63.1,11.27,128.34,22.93,175.39,32.13,3.85,1.25,7.64,2.71,11.33,4.36,3.61,1.63,7.32,3.04,11.09,4.24,4.62,1,9.28,1.54,13.93,1.6.55.01,1.1.01,1.66,0,15.43-.16,30.54-5.47,42.8-15.34.93-.79,1.93-1.69,2.96-2.67,4.8-4.55,10.51-10.81,16.07-16.88,5.39-5.9,10.45-11.48,14.47-15.22,21.53-21.13,45.65-43.85,68.95-65.84,8.26-7.78,16.6-15.63,24.9-23.49V0c-25.31,23.26-51.84,47.83-77.8,71.88Z"/></svg>