<?xml version="1.0" encoding="utf-8"?>
<!-- Generator: Adobe Illustrator 27.2.0, SVG Export Plug-In . SVG Version: 6.00 Build 0)  -->
<svg version="1.1" id="Layer_1" xmlns="http://www.w3.org/2000/svg" xmlns:xlink="http://www.w3.org/1999/xlink" x="0px" y="0px"
	 viewBox="0 0 283.46 283.46" style="enable-background:new 0 0 283.46 283.46;" xml:space="preserve">
<style type="text/css">
	.Arched_x0020_Green{fill:url(#SVGID_1_);stroke:#FFFFFF;stroke-width:0.25;stroke-miterlimit:1;}
	.st0{fill:#009DC7;}
</style>
<linearGradient id="SVGID_1_" gradientUnits="userSpaceOnUse" x1="0" y1="283.4609" x2="0.7071" y2="282.7538">
	<stop  offset="0" style="stop-color:#1DA238"/>
	<stop  offset="0.9831" style="stop-color:#24391D"/>
</linearGradient>
<path class="st0" d="M60.12,60.53c-20.92,20.93-33.84,49.77-33.84,81.7c0,31.92,12.92,60.75,33.84,81.68
	c20.93,20.91,49.77,33.83,81.69,33.83c31.92,0,60.76-12.92,81.68-33.83c20.92-20.93,33.83-49.76,33.84-81.68
	c0-31.93-12.92-60.77-33.84-81.7c-20.93-20.91-49.76-33.83-81.68-33.84C109.89,26.69,81.05,39.61,60.12,60.53 M7.89,142.23
	C7.9,68.26,67.86,8.31,141.82,8.31c73.96,0.01,133.9,59.95,133.9,133.92c0,73.96-59.95,133.9-133.9,133.9
	C67.86,276.12,7.9,216.18,7.89,142.23"/>
<g>
	<g>
		<g>
			<path class="st0" d="M58.92,120.81c0-1.94,0.56-3.26,1.63-4.64c5.96-7.78,15.61-20.32,18.69-25.96H62.88
				c-2.2,0-3.45-1.19-3.45-3.45v-3.39c0-2.19,1.25-3.45,3.45-3.45h28.91c2.19,0,3.39,1.25,3.39,3.45v2.7c0,1.94-0.19,3.2-1.13,4.89
				c-4.39,7.27-13.36,19.75-18.19,25.71h16.37c2.26,0,3.45,1.19,3.45,3.45v3.39c0,2.19-1.19,3.45-3.45,3.45H62.37
				c-2.19,0-3.45-1.25-3.45-3.45V120.81z"/>
			<path class="st0" d="M111.79,126.95c-7.84,0-11.73-4.89-11.73-12.73V83.37c0-2.19,1.19-3.45,3.39-3.45h26.46
				c2.19,0,3.45,1.25,3.45,3.45v3.39c0,2.26-1.25,3.45-3.45,3.45h-16.18v7.84h13.73c2.19,0,3.45,1.25,3.45,3.45v3.39
				c0,2.26-1.25,3.45-3.45,3.45h-13.73v3.45c0,3.89,1,4.89,4.95,4.89h11.73c2.2,0,3.45,1.19,3.45,3.45v3.39
				c0,2.19-1.25,3.45-3.45,3.45H111.79z"/>
			<path class="st0" d="M158.1,113.22h-5.9v10.28c0,2.19-1.19,3.45-3.39,3.45h-6.9c-2.19,0-3.39-1.25-3.39-3.45V83.37
				c0-2.19,1.19-3.45,3.39-3.45h17.18c11.48,0,18.63,4.64,18.63,16.18c0,6.33-2.01,10.03-7.15,13.48c3.32,2.63,7.02,8.47,9.09,13.92
				c0.19,0.44,0.25,0.88,0.25,1.25c0,1.38-1.19,2.19-2.95,2.19h-6.9c-2.26,0-3.45-1.25-4.39-3.45
				C163.93,119.43,160.73,114.98,158.1,113.22z M152.2,90.21v13.23h4.96c5.14,0,6.83-1.69,6.83-6.83c0-4.95-1.94-6.4-6.83-6.4H152.2
				z"/>
			<path class="st0" d="M181.53,104.88V102c0-14.49,7.59-22.58,22.07-22.58c14.42,0,22.01,8.09,22.01,22.58v2.88
				c0,14.48-7.59,22.58-22.01,22.58C189.11,127.46,181.53,119.36,181.53,104.88z M211.94,104.88V102c0-7.15-1.25-11.79-8.34-11.79
				c-7.09,0-8.34,4.64-8.34,11.79v2.88c0,7.15,1.25,11.79,8.34,11.79C210.69,116.67,211.94,112.03,211.94,104.88z"/>
		</g>
		<g>
			<path class="st0" d="M138.01,158.5c-0.26-0.87-0.55-1.81-0.87-2.9c-2.28-7.74-5.93-17.53-7.4-20.34h-9.79
				c-1.48,2.91-5.12,12.71-7.36,20.34c-0.33,1.09-0.61,2.04-0.87,2.91c-0.93,3.1-1.61,5.34-2.8,10.29
				c-0.05,0.18-0.09,0.35-0.09,0.52c0,0.77,0.61,1.25,1.58,1.25h4.15c1.13,0,1.84-0.62,2.16-1.87c0.27-1.2,0.6-2.51,0.96-3.91
				l0.52-2.04h12.66l0.35,1.53c0.36,1.59,0.69,3.07,1.03,4.41c0.19,0.85,0.72,1.87,2.16,1.87h4.91c0.98,0,1.59-0.48,1.59-1.25
				c0-0.16-0.04-0.33-0.09-0.52C139.62,163.84,138.94,161.6,138.01,158.5z M119.94,156.09l0.08-0.29c1.91-6.8,3.57-12.15,4.44-14.33
				l0.2-0.5l0.22,0.49c0.9,2.04,2.33,6.86,4.26,14.34l0.07,0.28H119.94z"/>
			<path class="st0" d="M107.69,135.26h-4.91c-1.12,0-1.79,0.62-1.97,1.85c-1.15,7.94-3.67,19.94-6.07,26.51l-0.21,0.57l-0.22-0.56
				c-2.5-6.45-5.24-18.54-6.45-26.52c-0.18-1.23-0.86-1.85-2.02-1.85h-3.53c-1.44,0-1.89,1.01-2.02,1.86
				c-1.27,8.48-4.02,20.72-6.4,26.52l-0.21,0.52l-0.21-0.52c-2.29-5.81-4.84-18-6.07-26.52c-0.18-1.23-0.85-1.85-1.97-1.85h-4.96
				c-1.04,0-1.63,0.49-1.63,1.35c0,0.28,0.1,0.83,0.18,1.31l0.1,0.6c1.95,11.64,5.46,24.49,8.75,32.05h10.86
				c1.83-4.51,4.24-11.57,5.26-17.31l0.17,0c1.19,6.41,3.65,13.3,5.31,17.31h10.85c3.32-8.07,6.73-20.55,8.7-31.85
				c0.03-0.24,0.07-0.5,0.12-0.76c0.08-0.5,0.17-1.02,0.17-1.36C109.32,135.49,108.43,135.26,107.69,135.26z"/>
			<path class="st0" d="M159.87,149.98l-5.58-1.52c-1.65-0.43-3.56-1.21-3.56-3.56c0-2.99,2.72-3.37,5.09-3.37h1.67
				c1.5,0,4.53,0.32,6.78,0.72c0.16,0.04,0.29,0.04,0.38,0.04c1.15,0,1.39-0.86,1.39-1.58v-2.91c0-1.19-0.64-1.93-1.87-2.16
				c-2.21-0.43-5.08-0.76-6.68-0.76h-1.86c-3.9,0-12.98,0.98-12.98,10.02c0,6.6,3.95,8.99,7.27,9.84l5.58,1.48
				c1.99,0.53,4.27,1.46,4.27,3.94c0,2.75-1.82,4.13-5.42,4.13h-1.86c-1.64,0-3.62-0.23-5.39-0.53c-0.54-0.08-1.01-0.16-1.37-0.22
				c-0.17-0.03-0.35-0.09-0.52-0.09c-1.13,0-1.54,1.11-1.47,1.59l0.44,2.96c0.17,1.17,0.44,1.86,1.66,2.17
				c0.04,0.01,0.09,0.02,0.13,0.03c1.43,0.3,3.02,0.53,4.46,0.66c0.5,0.04,1.04,0.07,1.61,0.09c0.15,0,0.32,0.01,0.46,0.01h1.86
				c6.18,0,13.55-1.87,13.55-10.79C167.9,154.67,165.35,151.44,159.87,149.98z"/>
			<path class="st0" d="M222.18,163.96h-9.58c-3.32,0-3.95-1.52-3.95-4.33v-3.61h11.58c1.21,0,1.82-0.61,1.82-1.82v-2.96
				c0-1.19-0.63-1.83-1.82-1.83h-11.58v-7.56h13.36c1.16,0,1.78-0.63,1.78-1.83v-2.96c0-1.18-0.63-1.82-1.78-1.82h-19.29
				c-1.16,0-1.83,0.66-1.83,1.82v24.03c0,6.1,3.1,9.45,8.74,9.45h12.54c1.16,0,1.82-0.66,1.82-1.82v-2.96
				C224,164.59,223.37,163.96,222.18,163.96z"/>
			<path class="st0" d="M195.29,135.26h-23.46c-1.19,0-1.82,0.63-1.82,1.82v2.96c0,1.21,0.61,1.83,1.82,1.83h7.86v26.88
				c0,1.19,0.63,1.82,1.82,1.82h4.1c1.16,0,1.82-0.66,1.82-1.82v-26.88h7.86c1.19,0,1.83-0.63,1.83-1.83v-2.96
				C197.12,135.92,196.45,135.26,195.29,135.26z"/>
		</g>
	</g>
</g>
<g>
	<path class="st0" d="M65.93,199.74h1.12c2.54,0,4.37-0.93,4.37-3.53c0-2.18-1.35-2.92-3.21-3.41l-3.47-0.93
		c-2.5-0.64-5.14-2.34-5.14-6.55c0-4.3,3.44-6.68,8.22-6.68h1c1.48,0,3.44,0.35,4.72,0.68c0.71,0.16,0.96,0.58,0.96,1.32v1.29
		c0,0.58-0.29,0.83-0.8,0.83c-0.13,0-0.26,0-0.39-0.03c-1.32-0.29-3.11-0.58-4.49-0.58h-0.93c-2.44,0-4.11,0.83-4.11,3.18
		c0,2.05,1.32,2.66,2.98,3.15l3.4,0.93c2.98,0.83,5.46,2.47,5.46,6.81c0,4.65-3.4,7.03-8.57,7.03h-1.12c-1.77,0-4.33-0.52-5.52-0.8
		c-0.74-0.19-0.96-0.58-0.96-1.32v-1.35c0-0.58,0.26-0.87,0.74-0.87c0.13,0,0.26,0.03,0.42,0.07
		C61.79,199.26,64.16,199.74,65.93,199.74z"/>
	<path class="st0" d="M97.63,191.68v-1.57c0-7.19,3.56-11.46,10.47-11.46c6.9,0,10.47,4.11,10.47,11.46v1.57
		c0,7.19-3.56,11.56-10.47,11.56C101.19,203.24,97.63,199.04,97.63,191.68z M114.33,191.68v-1.57c0-5.27-1.8-7.96-6.23-7.96
		c-4.43,0-6.23,2.7-6.23,7.96v1.57c0,5.3,1.8,8.06,6.23,8.06C112.53,199.74,114.33,196.98,114.33,191.68z"/>
	<path class="st0" d="M130.96,182.37v19.46c0,0.71-0.42,1.15-1.16,1.15h-1.8c-0.71,0-1.16-0.45-1.16-1.15v-19.46h-5.91
		c-0.74,0-1.16-0.38-1.16-1.16v-1.15c0-0.71,0.42-1.15,1.16-1.15h15.96c0.71,0,1.16,0.45,1.16,1.15v1.15c0,0.77-0.45,1.16-1.16,1.16
		H130.96z"/>
	<path class="st0" d="M147.78,202.98c-4.08,0-6.29-2.28-6.29-6.52v-16.41c0-0.71,0.45-1.15,1.16-1.15h1.8
		c0.71,0,1.15,0.45,1.15,1.15v16.15c0,2.31,0.93,3.3,2.96,3.3h5.79c0.71,0,1.11,0.38,0.98,1.16l-0.25,1.16
		c-0.2,0.81-0.61,1.15-1.41,1.15H147.78z"/>
	<path class="st0" d="M173.17,197.33h-9.86c-0.38,1.47-0.71,2.92-1.09,4.53c-0.19,0.71-0.58,1.12-1.31,1.12h-1.86
		c-0.61,0-1.03-0.29-1.03-0.8c0-0.1,0-0.19,0.03-0.32c0.96-3.95,1.57-5.91,2.54-9.15c1.51-5.14,4.17-11.91,5.17-13.8h5.23
		c1,1.89,3.66,8.67,5.17,13.8c0.96,3.24,1.57,5.17,2.5,9.15c0.03,0.13,0.03,0.22,0.03,0.32c0,0.51-0.42,0.8-1.03,0.8h-2.09
		c-0.71,0-1.12-0.42-1.28-1.12C173.94,200.25,173.56,198.81,173.17,197.33z M164.28,193.87h7.96c-0.06-0.19-0.1-0.42-0.16-0.64
		c-1.19-4.34-2.57-8.61-3.75-11.04c-1.19,2.44-2.6,6.71-3.85,11.04C164.41,193.45,164.34,193.67,164.28,193.87z"/>
	<path class="st0" d="M186.6,186.51v15.35c0,0.71-0.45,1.12-1.19,1.12h-1.77c-0.74,0-1.19-0.42-1.19-1.12v-21.8
		c0-0.71,0.45-1.15,1.19-1.15h1.35c0.71,0,0.96,0.25,1.28,0.67l10.79,15.73v-15.25c0-0.71,0.45-1.15,1.19-1.15h1.77
		c0.74,0,1.19,0.45,1.19,1.15v21.8c0,0.71-0.45,1.12-1.19,1.12h-1.35c-0.71,0-1-0.22-1.29-0.67L186.6,186.51z"/>
	<path class="st0" d="M207.05,202.98c-0.71,0-1.16-0.45-1.16-1.15v-21.77c0-0.71,0.45-1.15,1.16-1.15h6.81
		c7.48,0,11.08,3.72,11.08,10.11v3.34c0,6.26-3.18,10.62-10.79,10.62H207.05z M210,182.37v17.14h4.14c4.53,0,6.55-2.6,6.55-7.38
		v-2.92c0-4.63-2.34-6.84-6.84-6.84H210z"/>
	<path class="st0" d="M89.36,182.15c2.19,0,3.8,0.5,4.76,0.81c0.16,0.07,0.35,0.08,0.48,0.08c0.48,0.01,0.74-0.27,0.74-0.81v-1.26
		c0-0.77-0.19-1.16-0.99-1.51c-0.84-0.36-2.16-0.82-4.69-0.82c-7.03,0-11.54,3.86-11.54,10.88v2.83c0,6.61,3.76,10.88,10.98,10.88
		h0.88c1.6,0,3.5-0.55,4.37-0.8c0.74-0.16,0.99-0.58,0.99-1.35v-1.25c0-0.54-0.26-0.84-0.74-0.84c-0.13,0-0.32,0-0.48,0.07
		c-0.96,0.29-2.66,0.67-4.14,0.67h-0.88c-4.27,0-6.74-2.76-6.74-7.38v-2.92C82.36,184.4,85.22,182.15,89.36,182.15z"/>
</g>
</svg>
