<svg width="180" height="60" viewBox="0 0 180 60" fill="none" xmlns="http://www.w3.org/2000/svg">
<path d="M165.666 2.58086e-06H14.3422C13.7906 2.58086e-06 13.2456 2.58116e-06 12.6955 0.00300258C12.235 0.00600258 11.7781 0.0147176 11.3132 0.0220526C10.3031 0.0339053 9.29543 0.122517 8.29888 0.287118C7.30373 0.455302 6.33976 0.772376 5.43956 1.22762C4.54046 1.68671 3.71893 2.28325 3.00477 2.99561C2.28686 3.70596 1.68842 4.52703 1.23248 5.42724C0.775271 6.32567 0.458244 7.28841 0.292343 8.28222C0.124866 9.27478 0.0347448 10.2788 0.0227888 11.2852C0.00882972 11.7451 0.00735559 12.2066 0 12.6665V47.3379C0.00735559 47.8037 0.00882972 48.2549 0.0227888 48.7208C0.0347485 49.7271 0.12487 50.7311 0.292343 51.7236C0.457785 52.718 0.774831 53.6813 1.23248 54.5801C1.68821 55.4774 2.28673 56.2951 3.00477 57.0015C3.71622 57.717 4.53828 58.314 5.43956 58.7696C6.33975 59.226 7.30362 59.545 8.29888 59.7158C9.2956 59.879 10.3032 59.9677 11.3132 59.981C11.7781 59.9912 12.235 59.997 12.6955 59.997C13.2456 60 13.7906 60 14.3422 60H165.666C166.207 60 166.756 60 167.296 59.997C167.755 59.997 168.225 59.9912 168.683 59.981C169.691 59.9684 170.697 59.8797 171.692 59.7158C172.69 59.5438 173.657 59.2249 174.562 58.7696C175.462 58.3137 176.284 57.7168 176.995 57.0015C177.711 56.2923 178.311 55.4752 178.772 54.5801C179.226 53.6806 179.54 52.7174 179.703 51.7236C179.871 50.731 179.964 49.7272 179.982 48.7208C179.988 48.2549 179.988 47.8037 179.988 47.3379C180 46.793 180 46.251 180 45.6972V14.3042C180 13.7549 180 13.21 179.988 12.6665C179.988 12.2066 179.988 11.7451 179.982 11.2852C179.964 10.2786 179.871 9.27486 179.703 8.28216C179.54 7.28893 179.226 6.32626 178.772 5.42718C177.843 3.6228 176.371 2.15404 174.562 1.22748C173.657 0.773354 172.69 0.456363 171.692 0.286983C170.697 0.121657 169.691 0.0330142 168.683 0.0218426C168.225 0.0145226 167.755 0.00573258 167.296 0.00280758C166.756 -0.000192419 166.207 2.58086e-06 165.666 2.58086e-06Z" fill="#A6A6A6"/>
<path d="M12.7028 58.6873C12.2445 58.6873 11.7973 58.6815 11.3426 58.6713C10.4006 58.659 9.46083 58.5772 8.53098 58.4266C7.66394 58.2777 6.82401 58.0007 6.0389 57.6048C5.26098 57.2121 4.55146 56.6972 3.93751 56.0799C3.31468 55.4698 2.79614 54.7622 2.40245 53.9851C2.00442 53.203 1.72896 52.3647 1.58566 51.4993C1.43092 50.5695 1.34719 49.6293 1.33521 48.6868C1.32568 48.3705 1.31319 47.3172 1.31319 47.3172V12.6663C1.31319 12.6663 1.32649 11.6292 1.33529 11.3245C1.34676 10.3835 1.43 9.44479 1.58428 8.5164C1.72784 7.64868 2.00351 6.80793 2.40176 6.02325C2.794 5.24672 3.30966 4.5386 3.92874 3.92633C4.54713 3.30824 5.25892 2.79071 6.03816 2.39262C6.82147 1.99795 7.65981 1.72291 8.5251 1.57671C9.45801 1.42456 10.401 1.3423 11.3463 1.33062L12.7035 1.31231H167.289L168.663 1.33136C169.599 1.34246 170.534 1.42398 171.458 1.57524C172.332 1.72327 173.179 2.00023 173.971 2.39702C175.533 3.19929 176.803 4.46855 177.604 6.02691C177.996 6.80617 178.267 7.64007 178.409 8.50029C178.565 9.43629 178.653 10.3824 178.671 11.3311C178.675 11.7559 178.675 12.2122 178.675 12.6663C178.687 13.2288 178.687 13.7642 178.687 14.304V45.697C178.687 46.242 178.687 46.7737 178.675 47.3098C178.675 47.7976 178.675 48.2445 178.669 48.7044C178.652 49.6361 178.566 50.5654 178.412 51.4846C178.272 52.3562 177.998 53.2011 177.6 53.9896C177.203 54.7582 176.688 55.4597 176.072 56.0682C175.458 56.6888 174.747 57.2067 173.967 57.6019C173.177 58.0009 172.331 58.2789 171.458 58.4266C170.528 58.578 169.588 58.6598 168.646 58.6713C168.206 58.6815 167.744 58.6873 167.296 58.6873L165.666 58.6903L12.7028 58.6873Z" fill="black"/>
<path d="M37.2576 30.4508C37.2738 29.1988 37.6073 27.9713 38.2271 26.8823C38.8468 25.7934 39.7327 24.8785 40.8024 24.2227C40.1229 23.255 39.2264 22.4586 38.1843 21.8968C37.1421 21.3349 35.983 21.0232 34.7988 20.9862C32.2729 20.7218 29.8241 22.4935 28.537 22.4935C27.2249 22.4935 25.2431 21.0125 23.109 21.0563C21.7286 21.1007 20.3834 21.501 19.2042 22.2181C18.0251 22.9352 17.0524 23.9446 16.3808 25.1481C13.4717 30.1707 15.6416 37.5523 18.4283 41.6122C19.8226 43.6002 21.4521 45.8209 23.5842 45.7421C25.6706 45.6558 26.4499 44.4154 28.9684 44.4154C31.4635 44.4154 32.1946 45.7421 34.37 45.6921C36.6088 45.6558 38.0194 43.6952 39.3647 41.6883C40.3665 40.2718 41.1374 38.7062 41.6488 37.0496C40.3481 36.501 39.2381 35.5827 38.4572 34.4093C37.6763 33.2358 37.2591 31.8591 37.2576 30.4508Z" fill="white"/>
<path d="M33.1487 18.3161C34.3694 16.8548 34.9708 14.9766 34.8251 13.0802C32.9602 13.2755 31.2375 14.1644 30.0003 15.5696C29.3954 16.2561 28.9321 17.0548 28.6369 17.9199C28.3417 18.7851 28.2204 19.6998 28.2799 20.6117C29.2127 20.6213 30.1355 20.4197 30.9789 20.022C31.8223 19.6244 32.5641 19.0411 33.1487 18.3161Z" fill="white"/>
<path d="M63.6315 40.7093H56.5115L54.8016 45.744H51.7859L58.5299 27.117H61.6631L68.4071 45.744H65.3399L63.6315 40.7093ZM57.2489 38.386H62.8927L60.1105 30.2151H60.0326L57.2489 38.386Z" fill="white"/>
<path d="M82.9718 38.9544C82.9718 43.1746 80.7067 45.886 77.2884 45.886C76.4225 45.9312 75.5614 45.7323 74.8035 45.3121C74.0457 44.8919 73.4219 44.2674 73.0035 43.51H72.9388V50.2366H70.1434V32.1634H72.8492V34.4222H72.9006C73.3383 33.6685 73.9727 33.0472 74.7363 32.6244C75.4998 32.2016 76.3641 31.9932 77.237 32.0213C80.6934 32.0213 82.9718 34.7459 82.9718 38.9544ZM80.0985 38.9544C80.0985 36.2049 78.6736 34.3973 76.4996 34.3973C74.3637 34.3973 72.9271 36.243 72.9271 38.9544C72.9271 41.6907 74.3637 43.5233 76.4996 43.5233C78.6736 43.5233 80.0985 41.7288 80.0985 38.9544Z" fill="white"/>
<path d="M97.961 38.9544C97.961 43.1746 95.6959 45.886 92.2776 45.886C91.4117 45.9312 90.5506 45.7323 89.7928 45.3121C89.035 44.8919 88.4111 44.2674 87.9927 43.51H87.928V50.2366H85.1326V32.1634H87.8384V34.4222H87.8898C88.3275 33.6685 88.9618 33.0472 89.7254 32.6244C90.489 32.2017 91.3533 31.9932 92.2262 32.0213C95.6827 32.0213 97.961 34.7459 97.961 38.9544ZM95.0877 38.9544C95.0877 36.2049 93.6629 34.3973 91.4888 34.3973C89.3529 34.3973 87.9163 36.243 87.9163 38.9544C87.9163 41.6907 89.3529 43.5233 91.4888 43.5233C93.6629 43.5233 95.0877 41.7288 95.0877 38.9544Z" fill="white"/>
<path d="M107.868 40.554C108.075 42.4012 109.874 43.614 112.333 43.614C114.69 43.614 116.385 42.4011 116.385 40.7356C116.385 39.2898 115.362 38.4241 112.941 37.8308L110.521 37.2492C107.091 36.4231 105.498 34.8235 105.498 32.2278C105.498 29.0139 108.307 26.8064 112.295 26.8064C116.242 26.8064 118.948 29.0139 119.039 32.2278H116.217C116.048 30.3689 114.507 29.2468 112.255 29.2468C110.004 29.2468 108.463 30.3821 108.463 32.0344C108.463 33.3513 109.447 34.1262 111.854 34.7194L113.912 35.2233C117.745 36.1271 119.337 37.6623 119.337 40.3869C119.337 43.8718 116.554 46.0544 112.126 46.0544C107.984 46.0544 105.187 43.923 105.006 40.5539L107.868 40.554Z" fill="white"/>
<path d="M125.37 28.9495V32.1634H127.96V34.3709H125.37V41.8577C125.37 43.0208 125.889 43.5628 127.027 43.5628C127.335 43.5574 127.642 43.5359 127.947 43.4983V45.6926C127.435 45.788 126.915 45.8312 126.394 45.8215C123.637 45.8215 122.562 44.7888 122.562 42.155V34.3709H120.581V32.1634H122.562V28.9495H125.37Z" fill="white"/>
<path d="M129.46 38.9544C129.46 34.6815 131.984 31.9964 135.919 31.9964C139.867 31.9964 142.379 34.6814 142.379 38.9544C142.379 43.2391 139.881 45.9124 135.919 45.9124C131.959 45.9124 129.46 43.2391 129.46 38.9544ZM139.531 38.9544C139.531 36.0233 138.184 34.2933 135.919 34.2933C133.654 34.2933 132.308 36.0364 132.308 38.9544C132.308 41.8973 133.654 43.6141 135.919 43.6141C138.184 43.6141 139.531 41.8973 139.531 38.9544Z" fill="white"/>
<path d="M144.684 32.1634H147.35V34.4749H147.415C147.595 33.7529 148.019 33.115 148.616 32.6681C149.213 32.2213 149.945 31.9929 150.691 32.0213C151.013 32.0201 151.334 32.055 151.648 32.1253V34.7327C151.242 34.6088 150.818 34.5519 150.392 34.5642C149.986 34.5478 149.582 34.6192 149.206 34.7736C148.83 34.9279 148.492 35.1615 148.215 35.4583C147.939 35.7552 147.729 36.1082 147.602 36.4932C147.475 36.8782 147.434 37.2861 147.48 37.6887V45.7439H144.684V32.1634Z" fill="white"/>
<path d="M164.537 41.7552C164.161 44.2205 161.753 45.9124 158.673 45.9124C154.711 45.9124 152.252 43.2654 152.252 39.0188C152.252 34.7591 154.724 31.9964 158.555 31.9964C162.323 31.9964 164.693 34.5774 164.693 38.6951V39.6502H155.074V39.8186C155.03 40.3184 155.092 40.8219 155.258 41.2957C155.424 41.7695 155.689 42.2026 156.035 42.5665C156.382 42.9303 156.802 43.2164 157.268 43.4059C157.734 43.5953 158.235 43.6838 158.738 43.6653C159.398 43.727 160.061 43.5745 160.628 43.2303C161.194 42.8862 161.635 42.3688 161.883 41.7552L164.537 41.7552ZM155.087 37.7019H161.896C161.921 37.2526 161.853 36.8028 161.695 36.381C161.538 35.9592 161.295 35.5744 160.981 35.2508C160.667 34.9271 160.29 34.6716 159.872 34.5003C159.455 34.3289 159.007 34.2455 158.555 34.2552C158.1 34.2525 157.649 34.3397 157.228 34.5118C156.807 34.6839 156.424 34.9375 156.101 35.258C155.779 35.5784 155.523 35.9594 155.349 36.3788C155.175 36.7983 155.086 37.248 155.087 37.7019Z" fill="white"/>
<path d="M56.8986 13.0963C57.4846 13.0544 58.0727 13.1427 58.6204 13.3548C59.1681 13.567 59.6618 13.8977 60.0658 14.3231C60.4698 14.7486 60.7741 15.2581 60.9567 15.815C61.1393 16.3719 61.1957 16.9623 61.1218 17.5436C61.1218 20.4029 59.5721 22.0466 56.8986 22.0466H53.6566V13.0963H56.8986ZM55.0506 20.7808H56.7429C57.1616 20.8058 57.5807 20.7373 57.9696 20.5804C58.3585 20.4235 58.7074 20.182 58.991 19.8737C59.2745 19.5653 59.4855 19.1978 59.6087 18.7979C59.7318 18.398 59.764 17.9757 59.7028 17.5618C59.7595 17.1496 59.7241 16.7299 59.5991 16.3329C59.474 15.9359 59.2625 15.5714 58.9796 15.2655C58.6967 14.9596 58.3495 14.7199 57.9628 14.5635C57.5761 14.4072 57.1595 14.3381 56.7429 14.3611H55.0506V20.7808Z" fill="white"/>
<path d="M62.6965 18.6663C62.654 18.2224 62.7049 17.7746 62.846 17.3515C62.9872 16.9284 63.2155 16.5394 63.5162 16.2094C63.817 15.8794 64.1836 15.6158 64.5925 15.4354C65.0014 15.2549 65.4436 15.1617 65.8908 15.1617C66.3379 15.1617 66.7802 15.2549 67.1891 15.4354C67.598 15.6158 67.9646 15.8794 68.2653 16.2094C68.5661 16.5394 68.7944 16.9284 68.9355 17.3515C69.0767 17.7746 69.1276 18.2224 69.085 18.6663C69.1284 19.1107 69.0781 19.5591 68.9373 19.9829C68.7965 20.4067 68.5684 20.7964 68.2676 21.127C67.9667 21.4577 67.5999 21.7219 67.1905 21.9027C66.7812 22.0835 66.3385 22.1769 65.8908 22.1769C65.4431 22.1769 65.0004 22.0835 64.591 21.9027C64.1817 21.7219 63.8148 21.4577 63.514 21.127C63.2132 20.7964 62.985 20.4067 62.8442 19.9829C62.7035 19.5591 62.6531 19.1107 62.6965 18.6663ZM67.7101 18.6663C67.7101 17.2022 67.0505 16.346 65.893 16.346C64.731 16.346 64.0774 17.2022 64.0774 18.6663C64.0774 20.1422 64.7311 20.9918 65.893 20.9918C67.0505 20.9918 67.7101 20.1363 67.7101 18.6663Z" fill="white"/>
<path d="M77.5771 22.0464H76.1904L74.7905 17.0718H74.6847L73.2907 22.0464H71.9172L70.0501 15.292H71.406L72.6193 20.446H72.7192L74.1118 15.292H75.3942L76.7868 20.446H76.8925L78.1 15.292H79.4368L77.5771 22.0464Z" fill="white"/>
<path d="M81.0071 15.292H82.2939V16.365H82.3938C82.5632 15.9797 82.849 15.6566 83.2113 15.4409C83.5737 15.2252 83.9945 15.1276 84.4151 15.1617C84.7446 15.1369 85.0755 15.1865 85.3833 15.3066C85.6911 15.4268 85.9678 15.6144 86.1929 15.8557C86.4181 16.097 86.5859 16.3857 86.684 16.7004C86.7821 17.0151 86.8079 17.3478 86.7595 17.6739V22.0464H85.4228V18.0086C85.4228 16.9232 84.9498 16.3833 83.9611 16.3833C83.7374 16.373 83.514 16.4109 83.3063 16.4947C83.0987 16.5784 82.9116 16.706 82.758 16.8685C82.6044 17.0311 82.4878 17.2249 82.4164 17.4366C82.3449 17.6483 82.3201 17.8729 82.3438 18.095V22.0464H81.0071L81.0071 15.292Z" fill="white"/>
<path d="M88.8895 12.6553H90.2262V22.0464H88.8895V12.6553Z" fill="white"/>
<path d="M92.0845 18.6663C92.0419 18.2224 92.0929 17.7745 92.2341 17.3514C92.3752 16.9283 92.6036 16.5393 92.9043 16.2093C93.2051 15.8793 93.5718 15.6157 93.9807 15.4352C94.3897 15.2548 94.8319 15.1616 95.2791 15.1616C95.7263 15.1616 96.1685 15.2548 96.5775 15.4352C96.9864 15.6157 97.353 15.8793 97.6538 16.2093C97.9546 16.5393 98.1829 16.9283 98.3241 17.3514C98.4653 17.7745 98.5162 18.2224 98.4737 18.6663C98.517 19.1107 98.4667 19.5591 98.3258 19.9829C98.185 20.4067 97.9568 20.7964 97.656 21.127C97.3551 21.4577 96.9882 21.7218 96.5789 21.9026C96.1695 22.0834 95.7268 22.1768 95.2791 22.1768C94.8314 22.1768 94.3886 22.0834 93.9793 21.9026C93.5699 21.7218 93.203 21.4577 92.9022 21.127C92.6013 20.7964 92.3731 20.4067 92.2323 19.9829C92.0915 19.5591 92.0411 19.1107 92.0845 18.6663ZM97.098 18.6663C97.098 17.2022 96.4384 16.346 95.2809 16.346C94.119 16.346 93.4653 17.2022 93.4653 18.6663C93.4653 20.1422 94.119 20.9918 95.2809 20.9918C96.4384 20.9918 97.098 20.1363 97.098 18.6663Z" fill="white"/>
<path d="M99.881 20.1363C99.881 18.9205 100.789 18.2195 102.4 18.1199L104.235 18.0145V17.4315C104.235 16.7181 103.762 16.3152 102.848 16.3152C102.102 16.3152 101.585 16.5884 101.437 17.066H100.142C100.279 15.9058 101.373 15.1617 102.91 15.1617C104.608 15.1617 105.566 16.0047 105.566 17.4315V22.0464H104.279V21.0972H104.173C103.959 21.4377 103.657 21.7153 103.3 21.9016C102.942 22.0879 102.542 22.1763 102.139 22.1577C101.854 22.1872 101.567 22.157 101.295 22.0689C101.023 21.9809 100.773 21.837 100.56 21.6465C100.347 21.4561 100.177 21.2233 100.06 20.9632C99.9431 20.703 99.8821 20.4214 99.881 20.1363ZM104.235 19.5591V18.9944L102.581 19.0999C101.648 19.1622 101.225 19.4786 101.225 20.074C101.225 20.6819 101.754 21.0357 102.481 21.0357C102.694 21.0572 102.909 21.0357 103.114 20.9726C103.319 20.9095 103.508 20.8059 103.672 20.6682C103.836 20.5304 103.97 20.3612 104.066 20.1707C104.163 19.9802 104.22 19.7722 104.235 19.5591Z" fill="white"/>
<path d="M107.323 18.6663C107.323 16.532 108.423 15.18 110.134 15.18C110.558 15.1605 110.978 15.2616 111.346 15.4715C111.713 15.6813 112.014 15.9912 112.211 16.365H112.311V12.6553H113.648V22.0464H112.367V20.9793H112.261C112.048 21.3505 111.738 21.6566 111.363 21.8643C110.988 22.072 110.563 22.1735 110.134 22.1577C108.411 22.1578 107.323 20.8057 107.323 18.6663ZM108.704 18.6663C108.704 20.0989 109.381 20.961 110.513 20.961C111.64 20.961 112.336 20.0865 112.336 18.6722C112.336 17.2645 111.633 16.3775 110.513 16.3775C109.388 16.3775 108.704 17.2454 108.704 18.6663Z" fill="white"/>
<path d="M119.179 18.6663C119.136 18.2224 119.187 17.7746 119.328 17.3515C119.469 16.9284 119.698 16.5394 119.998 16.2094C120.299 15.8794 120.666 15.6158 121.075 15.4354C121.483 15.2549 121.926 15.1617 122.373 15.1617C122.82 15.1617 123.262 15.2549 123.671 15.4354C124.08 15.6158 124.447 15.8794 124.747 16.2094C125.048 16.5394 125.276 16.9284 125.418 17.3515C125.559 17.7746 125.61 18.2224 125.567 18.6663C125.611 19.1107 125.56 19.5591 125.419 19.9829C125.279 20.4067 125.05 20.7964 124.75 21.127C124.449 21.4577 124.082 21.7219 123.673 21.9027C123.263 22.0835 122.821 22.1769 122.373 22.1769C121.925 22.1769 121.482 22.0835 121.073 21.9027C120.664 21.7219 120.297 21.4577 119.996 21.127C119.695 20.7964 119.467 20.4067 119.326 19.9829C119.186 19.5591 119.135 19.1107 119.179 18.6663ZM124.192 18.6663C124.192 17.2022 123.533 16.346 122.375 16.346C121.213 16.346 120.56 17.2022 120.56 18.6663C120.56 20.1422 121.213 20.9918 122.375 20.9918C123.533 20.9918 124.192 20.1363 124.192 18.6663Z" fill="white"/>
<path d="M127.361 15.292H128.648V16.365H128.747C128.917 15.9797 129.203 15.6566 129.565 15.4409C129.927 15.2252 130.348 15.1276 130.769 15.1617C131.098 15.1369 131.429 15.1865 131.737 15.3066C132.045 15.4268 132.321 15.6144 132.547 15.8557C132.772 16.097 132.94 16.3857 133.038 16.7004C133.136 17.0151 133.162 17.3478 133.113 17.6739V22.0464H131.776V18.0086C131.776 16.9232 131.303 16.3833 130.315 16.3833C130.091 16.373 129.868 16.4109 129.66 16.4947C129.452 16.5784 129.265 16.706 129.112 16.8685C128.958 17.0311 128.841 17.2249 128.77 17.4366C128.698 17.6483 128.674 17.8729 128.697 18.095V22.0464H127.361V15.292Z" fill="white"/>
<path d="M140.667 13.6104V15.3228H142.134V16.4456H140.667V19.9188C140.667 20.6263 140.959 20.9361 141.624 20.9361C141.795 20.9355 141.965 20.9253 142.134 20.9053V22.0157C141.894 22.0585 141.651 22.0813 141.407 22.0838C139.92 22.0838 139.328 21.5623 139.328 20.2601V16.4456H138.253V15.3227H139.328V13.6104H140.667Z" fill="white"/>
<path d="M143.96 12.6553H145.285V16.3775H145.391C145.568 15.9885 145.862 15.6636 146.232 15.4471C146.601 15.2306 147.029 15.1329 147.456 15.1675C147.784 15.1497 148.112 15.2043 148.416 15.3274C148.72 15.4504 148.993 15.639 149.216 15.8795C149.439 16.12 149.606 16.4065 149.705 16.7187C149.804 17.0309 149.832 17.3611 149.789 17.6856V22.0464H148.451V18.0144C148.451 16.9356 147.947 16.3892 147.002 16.3892C146.772 16.3704 146.541 16.4019 146.325 16.4815C146.109 16.5611 145.913 16.6868 145.75 16.8499C145.588 17.013 145.463 17.2095 145.385 17.4257C145.306 17.6419 145.276 17.8726 145.297 18.1016V22.0464H143.96L143.96 12.6553Z" fill="white"/>
<path d="M157.583 20.2227C157.401 20.84 157.008 21.374 156.471 21.7312C155.935 22.0884 155.289 22.2462 154.648 22.1768C154.202 22.1885 153.758 22.1033 153.348 21.927C152.939 21.7507 152.572 21.4876 152.274 21.1559C151.977 20.8242 151.755 20.4318 151.624 20.0061C151.494 19.5804 151.458 19.1315 151.519 18.6905C151.46 18.2482 151.496 17.7983 151.626 17.3712C151.756 16.9442 151.977 16.5501 152.273 16.2155C152.569 15.8809 152.934 15.6136 153.343 15.4318C153.752 15.25 154.195 15.1579 154.642 15.1617C156.527 15.1617 157.664 16.4457 157.664 18.5667V19.0318H152.881V19.1065C152.86 19.3544 152.891 19.6039 152.973 19.839C153.054 20.0741 153.184 20.2897 153.354 20.4719C153.523 20.6541 153.73 20.7988 153.959 20.8969C154.188 20.995 154.435 21.0443 154.685 21.0415C155.005 21.0798 155.328 21.0224 155.615 20.8766C155.902 20.7307 156.139 20.5031 156.296 20.2227L157.583 20.2227ZM152.881 18.0459H156.302C156.319 17.8193 156.288 17.5916 156.211 17.3775C156.135 17.1634 156.014 16.9677 155.857 16.8029C155.7 16.6381 155.51 16.5079 155.3 16.4206C155.089 16.3334 154.863 16.291 154.635 16.2962C154.404 16.2933 154.174 16.3366 153.96 16.4235C153.746 16.5104 153.551 16.6392 153.388 16.8023C153.224 16.9654 153.095 17.1594 153.008 17.373C152.921 17.5866 152.878 17.8154 152.881 18.0459Z" fill="white"/>
</svg>
