<?xml version="1.0" encoding="UTF-8"?><svg id="Layer_1" xmlns="http://www.w3.org/2000/svg" viewBox="0 0 224 79.79"><defs><style>.cls-1{fill:none;}.cls-2{fill:#fff;}.cls-3{fill:#c6e236;}</style></defs><rect class="cls-1" x="80" width="64" height="64"/><path class="cls-3" d="m125.1,19.1l-1.2-2.9v-1.8c0-.6-.5-1-1-1h-12.3c-.5,0-1,.4-1,1v1.8l-1.2,2.9c-.1.1-.1.3-.1.4v12.4h-9.3c-.4,0-.7.2-.9.6l-1.3,3c-.1.1-.1.3-.1.4v19.9c0,.1.1.2.1.3l.8,2.3c.1.4.5.7.9.7h24.9c.5,0,.8-.3.9-.8l.8-2.3c.1-.1.1-.2.1-.3V19.5c0-.1-.1-.3-.1-.4Zm-15,38h-10.9s-.5-1.5-.6-1.5v-19.5l1-2.2h11l1,2.2v19.5l-.5,1.5h-1Zm13.1-1.5l-.5,1.5h-9.55l.35-1c.1-.1.1-.2.1-.3v-19.9c0-.1-.1-.3-.1-.4l-1.3-3c-.1-.4-.5-.6-.9-.6h-1v-12.1l1.2-2.9c.1-.1.1-.3.1-.4v-1h10.3v1c0,.1.1.3.1.4l1.2,2.8v35.9Z"/><rect class="cls-1" width="64" height="64"/><path class="cls-3" d="m44.2,11.7l-.3-.3c-.8-.7-2.3-2.1-2.3-5.1,0-.9-.3-1.6-.5-2.2-.1-.1-.1-.3-.1-.3l-.1-.7c-.1-.5-.5-.9-1-.9h-6.6c-.5,0-1,.5-1,1v.6c0,.1-.1.2-.1.4-.1.5-.3,1.1-.3,1.8,0,2-.8,3.8-2.4,5.2-2.1,2-3.4,5.2-3.8,9.7v4.34l-1.7-3.94v-1.7c0-.3-.1-.5-.3-.7-.2-.2-.4-.3-.7-.3h-3.9c-.5,0-1,.5-1,1v1.7l-1.9,4.9c-1.1,2.8-1.6,5.7-1.6,8.6v1.1c0,.84.05,1.67.12,2.49,0,.04-.02.07-.02.11,0,.13.03.25.07.37.04.38.07.77.13,1.13.1.8.2,1.6.2,2.4.1,2-.1,4-.6,5.9v7.7c0,1.6.7,2.3,1.2,2.7.8.6,1.7.6,2.2.4.6-.2,1.2-.2,1.7,0,.5.2.9.4,1.3.4h.2c.5,0,1-.1,1.6-.5.5-.2,1.1-.2,1.6,0,.4.1,1.4.3,2.3-.3.02-.01.04-.03.06-.05.14.1.28.18.44.25.6.3,1.2.5,1.8.5h.6c1.24,0,2.28-.3,3.07-.71.66.44,1.42.71,2.23.71h2.2c.83,0,1.6-.26,2.24-.67.82.37,1.97.67,3.36.67h.4c.2,0,.5-.1.8-.1,2.2-.3,3.8-2.1,3.8-4.3V20.8c-.2-4-1.4-7.1-3.4-9.1Zm-18.6,28.2c-.05.27-.08.53-.11.8h-8.38c-.03-.3-.07-.59-.1-.9-.02-.1-.02-.2-.04-.3h8.68c-.02.13-.02.27-.04.4Zm-8.3,2.8h8.02c0,.13-.02.26-.02.4,0,.3.01.6.02.9h-8.01c.01-.43,0-.87-.01-1.3Zm-.6-7.8c0-2.7.4-5.4,1.4-7.9l1.8-5c.1-.2.1-.3.1-.4v-.9h1.9v.9c0,.1.1.3.1.4l2,4.6c.6,1.4,1.1,2.8,1.4,4.3.12.6.22,1.2.3,1.8v.4c0,.13.03.26.09.38.07.64.11,1.28.11,1.92v.4c0,.55-.03,1.12-.06,1.7h-9.08c-.03-.49-.06-.99-.06-1.5v-1.1Zm8.4,22.4c-1-.4-2.1-.4-3.1,0-.5.2-.8.2-.8.2-.1,0-.3,0-.8-.2s-1.1-.3-1.6-.3c-.5-.1-1,0-1.4.2-.1,0-.3,0-.4-.1-.3-.2-.3-.7-.3-1v-7.4c.21-.9.36-1.8.47-2.7h8.29c.1.92.25,1.82.44,2.7v7.5c0,.19-.02.35-.05.5-.09.14-.16.28-.18.43-.02.02-.04.06-.07.07-.2.1-.5.1-.5.1Zm20.2-2.3c0,1.1-.8,2.1-2,2.3h-.8c-.74,0-1.41-.13-1.98-.3.03-.13.06-.26.08-.4.2-.1.5-.2,1.3-.2.6,0,1-.5,1-1,0-.6-.5-1-1-1-1.7.1-2.6.5-3,1.2,0,0-.1.1-.1.2,0,0-.1.2-.1.4,0,.07-.05.27-.07.4-.23.09-.43.26-.53.5,0,.02,0,.05-.01.07-.3.21-.65.33-1.09.33h-2.3c-.36,0-.69-.08-.97-.23-.02-.13-.06-.25-.13-.37-.13-.22-.33-.37-.55-.46-.03-.11-.05-.24-.05-.34,0-.2,0-.3-.1-.4s-.1-.1-.1-.2c-.4-.8-1.5-1.2-3.4-1.3-.5,0-1,.5-1,1s.5,1,1,1c1,0,1.5.1,1.7.2.04.2.08.39.13.57-.52.19-1.13.33-1.83.33h-.5c-.4,0-.6-.1-.9-.2-.09-.05-.19-.12-.28-.2.05-.27.08-.56.08-.9v-7.8c-.25-1.05-.41-2.11-.5-3.18,0,0,0-.01,0-.02,0-.01,0-.02,0-.03-.06-.65-.09-1.3-.09-1.97.1-1,.2-1.9.3-2.9.3-1.5.4-3,.4-4.4v-.4c0-.96-.08-1.95-.2-2.94v-11.36c.4-3.9,1.4-6.7,3.2-8.3,2-1.8,3-4.1,3-6.7,0-.5.1-.9,0-1.2,0-.1.1-.3.1-.4h4.8c.1.2.1.3.2.5.1.4.3.9.3,1.5,0,3.8,2,5.8,2.9,6.6l.2.2c1.7,1.7,2.7,4.3,2.9,7.8v34Z"/><rect class="cls-1" x="160" width="64" height="64"/><path class="cls-3" d="m202.6,14.4V3.3c0-.5-.5-1-1-1h-6.7c-.5,0-1,.5-1,1v11.1c-1.3.8-4.4,3.3-4.4,7.7v9.2c-.07-.07-.13-.14-.2-.2l-.6-.8c.1-.7.1-1.4.1-2.1,0-1.3-.2-2.2-.4-3.2,0-.2-.1-.5-.1-.7-.3-1.1-.4-2.3-.4-3.5.3-.4.4-.8.4-1.3,0-.4-.2-.8-.4-1.1v-.3c0-.6-.2-1.2-.6-1.7-.4-.4-1-.7-1.6-.7h-3.4c-.6,0-1.2.3-1.6.7-.4.4-.6,1-.6,1.6v.3c-.3.4-.4.8-.4,1.2s.1.8.4,1.2c0,1.1-.1,2.1-.3,3.1-.1.4-.2.8-.3,1.2-.2.9-.5,1.7-.5,2.9,0,.8,0,1.7.2,2.5l-.1.4c-1.3,1.2-2.1,2.9-2.1,4.7v20.2c0,1.7,1.4,3,3,3h8.5c.83-.05,1.56-.39,2.08-.89.59.54,1.37.89,2.22.89h10.8c1.8,0,3.3-1.4,3.3-3.3V22.1c0-4.5-3-6.9-4.3-7.7Zm-14,42.3h-8.5c-.6,0-1-.5-1-1v-20.2c0-1.3.6-2.5,1.6-3.3.1-.1.2-.2.3-.4l.3-.9v-.6c-.1-.8-.2-1.5-.2-2.3,0-.9.2-1.6.4-2.4.1-.4.2-.8.3-1.3.3-1.3.4-2.6.3-4,0-.3-.2-.5-.4-.7,0,0,0-.1.1-.1.2-.2.3-.5.3-.8v-.7c0-.1.1-.2.1-.2q.1-.1.2-.1s3.4,0,3.3,0c.1,0,.2.1.2.1q.1.1.1.2v.7c-.1.3.1.6.3.8v.1c-.2.2-.3.5-.3.8,0,1.4.1,2.8.4,4.2.1.2.1.5.2.8.2.9.4,1.6.4,2.7,0,.7-.1,1.5-.2,2.2,0,.2.1.5.2.7l.9,1.3q.1.1.2.2c.74.6,1.21,1.41,1.4,2.29v.91c0,.13.04.26.1.39v18.93c-.06.12-.1.25-.1.39,0,.18.03.35.05.52-.11.47-.52.78-.95.78Zm16.3-1.3c0,.7-.6,1.3-1.3,1.3h-10.8c-.7,0-1.3-.6-1.3-1.3,0-.13-.04-.26-.1-.39v-18.93c.06-.12.1-.25.1-.39v-13.6c0-4.2,3.7-6.1,3.9-6.2.4-.2.6-.5.6-.9V4.3h4.7v10.7c0,.4.2.7.5.9.1.1,3.7,2,3.7,6.2v33.3Z"/><path class="cls-2" d="m12.98,79.71v-5.55h.75v5.55h-.75Zm.5-2.16v-.66h1.51c.21,0,.39-.04.56-.13.16-.08.29-.21.38-.36.09-.16.14-.34.14-.55s-.05-.4-.14-.55c-.09-.15-.22-.27-.38-.36-.16-.09-.35-.13-.56-.13h-1.51v-.66h1.55c.34,0,.65.07.92.21s.49.33.64.59.24.55.24.9-.08.64-.24.9-.37.45-.64.59-.58.21-.92.21h-1.55Z"/><path class="cls-2" d="m17.76,79.71v-5.55h.75v5.55h-.75Zm.51-4.86v-.69h3.14v.69h-3.14Zm0,2.36v-.66h2.92v.66h-2.92Zm0,2.5v-.69h3.18v.69h-3.18Z"/><path class="cls-2" d="m21.86,74.85v-.69h4.52v.69h-4.52Zm1.88,4.86v-5.39h.76v5.39h-.76Z"/><path class="cls-2" d="m28.8,79.71v-5.55h.75v5.55h-.75Zm.5-2.16v-.66h1.51c.21,0,.39-.04.56-.13.16-.08.29-.21.38-.36.09-.16.14-.34.14-.55s-.05-.4-.14-.55c-.09-.15-.22-.27-.38-.36-.16-.09-.35-.13-.56-.13h-1.51v-.66h1.55c.34,0,.65.07.92.21s.49.33.64.59.24.55.24.9-.08.64-.24.9-.37.45-.64.59-.58.21-.92.21h-1.55Z"/><path class="cls-2" d="m33.52,79.71v-5.71h.72v5.71h-.72Z"/><path class="cls-2" d="m36.91,79.79c-.35,0-.67-.09-.95-.26-.28-.17-.5-.41-.66-.71-.16-.3-.24-.63-.24-1.01s.08-.71.24-1.01c.16-.3.38-.54.66-.71.28-.18.6-.26.95-.26.29,0,.55.06.77.18s.41.29.55.5.22.46.23.73v1.14c-.02.27-.09.51-.23.73-.14.21-.32.38-.55.5-.23.12-.49.18-.78.18Zm.12-.68c.36,0,.65-.12.86-.36.22-.24.33-.55.33-.93,0-.26-.05-.48-.15-.68-.1-.2-.24-.35-.42-.46s-.39-.16-.63-.16-.45.06-.64.17c-.18.11-.33.27-.43.46-.1.2-.16.42-.16.67s.05.48.16.68c.1.19.25.35.44.46.19.11.4.17.64.17Zm1.14.6v-1.02l.14-.93-.14-.92v-.93h.73v3.8h-.73Z"/><path class="cls-2" d="m41.16,79.79c-.21,0-.42-.03-.61-.08s-.37-.14-.52-.24c-.16-.1-.29-.23-.41-.37l.46-.46c.14.17.3.3.48.38.18.08.38.12.61.12s.4-.04.52-.12c.12-.08.18-.18.18-.32s-.05-.25-.15-.32-.23-.14-.38-.19-.32-.1-.49-.15c-.17-.05-.34-.11-.49-.19s-.28-.19-.38-.33c-.1-.14-.15-.33-.15-.56s.05-.43.16-.6.27-.3.47-.39.45-.14.73-.14c.3,0,.56.05.8.16.23.1.42.26.57.47l-.46.46c-.11-.14-.25-.25-.4-.32-.15-.07-.33-.11-.53-.11-.21,0-.37.04-.48.11-.11.08-.16.17-.16.3s.05.23.14.3.22.13.38.18.32.1.49.15c.17.05.33.12.49.2.15.09.28.2.38.34.1.14.15.33.15.57,0,.36-.13.64-.38.85s-.59.31-1.02.31Z"/><path class="cls-2" d="m43.02,76.57v-.66h2.59v.66h-2.59Zm.94,3.14v-5.39h.72v5.39h-.72Z"/><path class="cls-2" d="m46.68,75.15c-.13,0-.24-.04-.33-.13-.09-.09-.13-.2-.13-.33s.04-.24.13-.32.19-.13.33-.13.24.04.33.13c.08.09.13.2.13.32s-.04.24-.13.33c-.09.09-.19.13-.33.13Zm-.37,4.56v-3.8h.73v3.8h-.73Z"/><path class="cls-2" d="m49.84,79.79c-.37,0-.71-.09-1.01-.26-.3-.18-.54-.42-.71-.72-.17-.3-.26-.64-.26-1s.09-.71.26-1.01.41-.53.71-.71c.3-.17.64-.26,1.01-.26.29,0,.56.05.82.16.25.11.47.27.65.48l-.48.48c-.12-.14-.26-.24-.43-.32s-.35-.11-.55-.11c-.24,0-.45.05-.64.16-.19.11-.33.26-.44.45-.11.19-.16.41-.16.66s.05.47.16.66c.11.19.25.34.44.46.19.11.4.17.64.17.2,0,.39-.04.56-.11.17-.07.31-.18.44-.32l.47.48c-.18.2-.39.36-.64.47s-.53.17-.82.17Z"/><path class="cls-2" d="m80.67,79.71l2.28-5.55h.54l2.26,5.55h-.82l-1.87-4.7h.29l-1.88,4.7h-.81Zm1.09-1.26v-.66h2.92v.66h-2.92Z"/><path class="cls-2" d="m86.52,79.71v-5.71h.72v5.71h-.72Z"/><path class="cls-2" d="m89.84,79.78c-.31,0-.6-.07-.84-.2-.25-.14-.44-.33-.58-.58-.14-.25-.21-.54-.21-.87v-2.21h.72v2.18c0,.21.04.39.11.54.07.15.18.27.32.35.14.08.3.12.49.12.28,0,.5-.09.66-.27s.24-.43.24-.74v-2.18h.72v2.21c0,.33-.07.62-.21.87-.14.25-.33.44-.58.58-.25.14-.53.2-.84.2Z"/><path class="cls-2" d="m92.43,79.71v-3.8h.72v3.8h-.72Zm2.57,0v-2.3c0-.28-.09-.5-.26-.67s-.39-.24-.65-.24c-.18,0-.33.04-.47.11-.14.07-.25.18-.34.31-.09.13-.13.3-.13.49l-.3-.15c0-.29.06-.54.19-.75.12-.21.3-.38.52-.5s.46-.18.74-.18.51.06.72.18c.22.12.39.28.51.5.13.21.19.47.19.76v2.45h-.72Zm2.57,0v-2.3c0-.28-.09-.5-.26-.67s-.39-.24-.64-.24c-.18,0-.33.04-.48.11-.14.07-.25.18-.34.31-.09.13-.13.3-.13.49l-.41-.15c.02-.29.09-.54.24-.76.14-.21.32-.38.55-.5s.47-.18.74-.18.52.06.74.18.39.28.52.5c.13.21.2.47.2.77v2.44h-.73Z"/><path class="cls-2" d="m99.64,75.15c-.13,0-.24-.04-.33-.13-.09-.09-.13-.2-.13-.33s.04-.24.13-.32.19-.13.33-.13.24.04.33.13c.08.09.13.2.13.32s-.04.24-.13.33c-.09.09-.19.13-.33.13Zm-.37,4.56v-3.8h.73v3.8h-.73Z"/><path class="cls-2" d="m101.06,79.71v-3.8h.72v3.8h-.72Zm2.68,0v-2.22c0-.29-.09-.53-.27-.71s-.41-.28-.7-.28c-.19,0-.36.04-.51.13-.15.09-.27.2-.35.35-.09.15-.13.32-.13.51l-.3-.17c0-.29.06-.54.19-.77.13-.22.31-.4.54-.53.23-.13.49-.2.78-.2s.54.07.76.22c.22.14.4.33.52.56.13.23.19.48.19.74v2.36h-.73Z"/><path class="cls-2" d="m105.81,75.15c-.13,0-.24-.04-.33-.13-.09-.09-.13-.2-.13-.33s.04-.24.13-.32.19-.13.33-.13.24.04.33.13c.08.09.13.2.13.32s-.04.24-.13.33c-.09.09-.19.13-.33.13Zm-.37,4.56v-3.8h.73v3.8h-.73Z"/><path class="cls-2" d="m108.77,79.78c-.31,0-.6-.07-.84-.2-.25-.14-.44-.33-.58-.58-.14-.25-.21-.54-.21-.87v-2.21h.72v2.18c0,.21.04.39.11.54.07.15.18.27.32.35.14.08.3.12.49.12.28,0,.5-.09.66-.27s.24-.43.24-.74v-2.18h.72v2.21c0,.33-.07.62-.21.87-.14.25-.33.44-.58.58-.25.14-.53.2-.84.2Z"/><path class="cls-2" d="m111.36,79.71v-3.8h.72v3.8h-.72Zm2.57,0v-2.3c0-.28-.09-.5-.26-.67-.17-.16-.39-.24-.65-.24-.18,0-.33.04-.47.11-.14.07-.25.18-.34.31-.09.13-.13.3-.13.49l-.3-.15c0-.29.06-.54.19-.75.12-.21.3-.38.52-.5s.46-.18.74-.18.51.06.72.18c.22.12.39.28.51.5.12.21.19.47.19.76v2.45h-.72Zm2.57,0v-2.3c0-.28-.09-.5-.26-.67-.17-.16-.39-.24-.64-.24-.18,0-.33.04-.48.11-.14.07-.25.18-.34.31-.08.13-.13.3-.13.49l-.41-.15c.02-.29.09-.54.24-.76s.32-.38.55-.5c.22-.12.47-.18.74-.18s.53.06.74.18.39.28.52.5c.13.21.2.47.2.77v2.44h-.73Z"/><path class="cls-2" d="m121.64,79.79c-.37,0-.69-.07-.97-.22-.28-.14-.49-.34-.65-.6-.16-.25-.23-.54-.23-.87s.09-.64.28-.91c.18-.27.45-.49.79-.65l.35.45c-.21.11-.38.25-.5.44-.12.18-.18.4-.18.66,0,.21.05.39.14.54s.23.27.4.35c.17.08.37.12.6.12.28,0,.52-.06.72-.18.2-.12.35-.27.45-.45l.47.55c-.11.15-.25.28-.42.4-.17.12-.37.2-.58.27-.21.06-.43.1-.67.1Zm1.98-.08l-2.66-2.85c-.2-.22-.35-.44-.46-.64-.1-.2-.15-.43-.15-.67,0-.28.07-.53.2-.76.13-.22.32-.4.55-.53.23-.13.5-.2.81-.2.22,0,.43.04.61.11.18.07.35.17.49.28.14.12.26.25.36.4l-.52.47c-.12-.17-.26-.31-.41-.41-.15-.1-.33-.15-.53-.15-.24,0-.44.07-.6.22-.16.14-.24.33-.24.55,0,.19.04.35.12.49.08.13.2.29.36.46l2.95,3.22h-.89Z"/><path class="cls-2" d="m128.15,79.79c-.43,0-.8-.08-1.11-.24s-.58-.39-.82-.7l.51-.51c.18.25.38.43.61.56.23.12.51.19.85.19s.6-.07.8-.22c.2-.14.3-.34.3-.59,0-.21-.05-.38-.15-.5-.1-.13-.23-.23-.39-.32s-.34-.16-.53-.22c-.19-.06-.38-.13-.58-.21-.19-.08-.37-.17-.53-.29-.16-.12-.29-.27-.39-.45-.1-.18-.14-.42-.14-.71,0-.31.08-.58.23-.8.15-.22.36-.39.62-.51.26-.12.56-.18.89-.18.36,0,.69.07.98.21s.52.33.7.56l-.51.51c-.17-.19-.34-.34-.53-.43s-.41-.14-.65-.14c-.3,0-.54.07-.71.2-.18.13-.26.31-.26.55,0,.19.05.34.15.45.1.12.23.21.39.29.16.08.34.15.53.22.19.07.39.14.58.22.19.08.37.18.53.3.16.12.29.28.39.48.1.19.15.44.15.73,0,.49-.17.88-.51,1.15s-.8.42-1.38.42Z"/><path class="cls-2" d="m130.57,76.57v-.66h2.59v.66h-2.59Zm.94,3.14v-5.39h.72v5.39h-.72Z"/><path class="cls-2" d="m135.51,79.79c-.38,0-.73-.09-1.03-.26-.3-.17-.54-.41-.72-.71-.18-.3-.26-.64-.26-1.02s.09-.71.26-1.01c.17-.3.41-.53.7-.71.3-.17.63-.26,1-.26.35,0,.66.08.93.24.27.16.48.38.64.66.15.28.23.6.23.97,0,.05,0,.11,0,.17,0,.06-.02.13-.03.2h-3.21v-.6h2.82l-.26.23c0-.26-.05-.47-.14-.65s-.22-.32-.38-.42-.37-.15-.6-.15c-.25,0-.46.05-.65.16-.19.11-.33.26-.43.45-.1.19-.15.42-.15.68s.05.5.16.7c.11.2.26.35.46.46s.42.16.68.16c.21,0,.41-.04.59-.11.18-.08.33-.19.46-.34l.46.47c-.19.21-.41.38-.67.49-.26.11-.54.17-.84.17Z"/><path class="cls-2" d="m139.8,79.79c-.38,0-.73-.09-1.03-.26-.3-.17-.54-.41-.72-.71-.18-.3-.26-.64-.26-1.02s.09-.71.26-1.01c.17-.3.41-.53.7-.71.3-.17.63-.26,1-.26.35,0,.66.08.93.24.27.16.48.38.64.66.15.28.23.6.23.97,0,.05,0,.11,0,.17,0,.06-.02.13-.03.2h-3.21v-.6h2.82l-.26.23c0-.26-.05-.47-.14-.65s-.22-.32-.38-.42-.37-.15-.6-.15c-.25,0-.46.05-.65.16-.19.11-.33.26-.43.45-.1.19-.15.42-.15.68s.05.5.16.7c.11.2.26.35.46.46s.42.16.68.16c.21,0,.41-.04.59-.11.18-.08.33-.19.46-.34l.46.47c-.19.21-.41.38-.67.49-.26.11-.54.17-.84.17Z"/><path class="cls-2" d="m142.32,79.71v-5.71h.72v5.71h-.72Z"/><path class="cls-2" d="m172.68,79.79c-.38,0-.75-.07-1.08-.22-.34-.15-.63-.35-.89-.61-.25-.26-.45-.57-.6-.91-.14-.35-.22-.72-.22-1.12s.07-.77.22-1.12c.14-.34.34-.65.6-.91.26-.26.56-.46.9-.61.34-.14.72-.22,1.12-.22.44,0,.85.08,1.22.26.37.17.69.42.94.74l-.52.52c-.18-.26-.41-.45-.7-.59s-.6-.2-.94-.2c-.41,0-.76.09-1.08.27-.31.18-.55.43-.73.75-.17.32-.26.69-.26,1.1s.09.79.26,1.11.41.57.71.75.64.27,1.02.27.73-.07,1.02-.22.5-.37.66-.66c.15-.29.23-.65.24-1.07l.46.34h-2.4v-.7h2.72v.11c0,.65-.11,1.18-.34,1.62-.23.43-.54.76-.94.98-.4.22-.87.33-1.39.33Z"/><path class="cls-2" d="m176.22,79.71v-5.71h.72v5.71h-.72Z"/><path class="cls-2" d="m179.62,79.79c-.35,0-.67-.09-.95-.26-.28-.17-.5-.41-.66-.71-.16-.3-.24-.63-.24-1.01s.08-.71.24-1.01c.16-.3.38-.54.66-.71.28-.18.6-.26.95-.26.29,0,.55.06.77.18s.41.29.55.5.22.46.23.73v1.14c-.02.27-.09.51-.23.73-.14.21-.32.38-.55.5-.23.12-.49.18-.78.18Zm.12-.68c.36,0,.65-.12.86-.36.22-.24.33-.55.33-.93,0-.26-.05-.48-.15-.68s-.24-.35-.42-.46-.39-.16-.63-.16-.45.06-.64.17c-.18.11-.33.27-.43.46-.1.2-.16.42-.16.67s.05.48.16.68c.1.19.25.35.44.46.19.11.4.17.64.17Zm1.14.6v-1.02l.14-.93-.14-.92v-.93h.73v3.8h-.73Z"/><path class="cls-2" d="m183.86,79.79c-.21,0-.42-.03-.61-.08-.19-.06-.37-.14-.52-.24-.16-.1-.29-.23-.41-.37l.46-.46c.14.17.3.3.48.38.18.08.38.12.61.12s.4-.04.52-.12c.12-.08.18-.18.18-.32s-.05-.25-.15-.32-.22-.14-.38-.19c-.15-.05-.32-.1-.49-.15-.17-.05-.34-.11-.49-.19-.16-.08-.28-.19-.38-.33-.1-.14-.15-.33-.15-.56s.05-.43.16-.6.27-.3.47-.39c.2-.09.45-.14.73-.14.3,0,.56.05.8.16.23.1.42.26.57.47l-.46.46c-.11-.14-.25-.25-.4-.32-.16-.07-.33-.11-.53-.11-.21,0-.37.04-.48.11-.11.08-.16.17-.16.3s.05.23.14.3c.1.07.22.13.38.18s.32.1.49.15.33.12.49.2c.15.09.28.2.38.34.1.14.15.33.15.57,0,.36-.13.64-.38.85-.25.21-.59.31-1.02.31Z"/><path class="cls-2" d="m187.28,79.79c-.21,0-.42-.03-.61-.08-.19-.06-.37-.14-.52-.24-.16-.1-.29-.23-.41-.37l.46-.46c.14.17.3.3.48.38.18.08.38.12.61.12s.4-.04.52-.12c.12-.08.18-.18.18-.32s-.05-.25-.15-.32-.22-.14-.38-.19c-.15-.05-.32-.1-.49-.15-.17-.05-.34-.11-.49-.19-.16-.08-.28-.19-.38-.33-.1-.14-.15-.33-.15-.56s.05-.43.16-.6.27-.3.47-.39c.2-.09.45-.14.73-.14.3,0,.56.05.8.16.23.1.42.26.57.47l-.46.46c-.11-.14-.25-.25-.4-.32-.16-.07-.33-.11-.53-.11-.21,0-.37.04-.48.11-.11.08-.16.17-.16.3s.05.23.14.3c.1.07.22.13.38.18s.32.1.49.15.33.12.49.2c.15.09.28.2.38.34.1.14.15.33.15.57,0,.36-.13.64-.38.85-.25.21-.59.31-1.02.31Z"/><path class="cls-2" d="m191.14,79.71v-5.71h.72v2.84l-.14.92.14.93v1.02h-.72Zm2,.08c-.29,0-.55-.06-.78-.18-.23-.12-.42-.29-.56-.5-.14-.21-.22-.46-.23-.73v-1.14c.02-.28.09-.52.24-.73.14-.21.33-.38.56-.5.23-.12.49-.18.77-.18.35,0,.66.09.94.26s.5.41.66.71c.16.3.24.63.24,1.01s-.08.71-.24,1.01-.38.53-.66.71c-.28.17-.59.26-.94.26Zm-.12-.68c.24,0,.45-.06.63-.17.18-.11.32-.27.43-.46.1-.2.16-.42.16-.68s-.05-.47-.16-.67c-.1-.19-.25-.35-.43-.46-.18-.11-.39-.17-.63-.17s-.44.06-.62.17c-.18.11-.32.27-.42.46-.1.2-.15.42-.15.68s.05.47.15.67c.1.19.24.35.42.46.18.11.39.17.63.17Z"/><path class="cls-2" d="m197.53,79.79c-.37,0-.7-.09-1-.26-.3-.18-.54-.42-.71-.72-.18-.3-.26-.64-.26-1.01s.09-.7.26-1c.18-.3.41-.53.71-.71s.63-.26,1-.26.71.09,1.01.26c.3.17.54.41.72.71s.26.63.26,1-.09.71-.26,1.01c-.18.3-.42.54-.72.72-.3.18-.64.26-1.01.26Zm0-.7c.25,0,.46-.06.65-.17s.33-.26.44-.46c.11-.19.16-.42.16-.67s-.05-.46-.16-.66c-.11-.19-.26-.34-.44-.45-.18-.11-.4-.16-.64-.16s-.45.05-.63.16-.33.26-.44.45c-.11.19-.16.41-.16.66s.05.47.16.67c.11.2.25.35.44.46s.4.17.63.17Z"/><path class="cls-2" d="m199.97,76.57v-.66h4.86v.66h-4.86Zm.94,3.14v-5.39h.72v5.39h-.72Zm2.26,0v-5.39h.72v5.39h-.72Z"/><path class="cls-2" d="m205.53,79.71v-5.71h.72v5.71h-.72Z"/><path class="cls-2" d="m209.06,79.79c-.38,0-.73-.09-1.03-.26-.3-.17-.54-.41-.72-.71-.18-.3-.26-.64-.26-1.02s.09-.71.26-1.01c.17-.3.41-.53.7-.71.3-.17.63-.26,1-.26.35,0,.66.08.93.24.27.16.48.38.64.66.15.28.23.6.23.97,0,.05,0,.11,0,.17,0,.06-.02.13-.03.2h-3.21v-.6h2.82l-.26.23c0-.26-.05-.47-.14-.65s-.22-.32-.38-.42-.37-.15-.6-.15c-.25,0-.46.05-.65.16-.19.11-.33.26-.43.45-.1.19-.15.42-.15.68s.05.5.16.7c.11.2.26.35.46.46s.42.16.68.16c.21,0,.41-.04.59-.11.18-.08.33-.19.46-.34l.46.47c-.19.21-.41.38-.67.49-.26.11-.54.17-.84.17Z"/><path class="cls-2" d="m212.8,79.79c-.21,0-.42-.03-.61-.08-.19-.06-.37-.14-.52-.24-.16-.1-.29-.23-.41-.37l.46-.46c.14.17.3.3.48.38.18.08.38.12.61.12s.4-.04.52-.12c.12-.08.18-.18.18-.32s-.05-.25-.15-.32-.22-.14-.38-.19c-.15-.05-.32-.1-.49-.15-.17-.05-.34-.11-.49-.19-.16-.08-.28-.19-.38-.33-.1-.14-.15-.33-.15-.56s.05-.43.16-.6.27-.3.47-.39c.2-.09.45-.14.73-.14.3,0,.56.05.8.16.23.1.42.26.57.47l-.46.46c-.11-.14-.25-.25-.4-.32-.16-.07-.33-.11-.53-.11-.21,0-.37.04-.48.11-.11.08-.16.17-.16.3s.05.23.14.3c.1.07.22.13.38.18s.32.1.49.15.33.12.49.2c.15.09.28.2.38.34.1.14.15.33.15.57,0,.36-.13.64-.38.85-.25.21-.59.31-1.02.31Z"/></svg>