<?xml version="1.0" encoding="utf-8"?>
<!-- Generator: Adobe Illustrator 27.4.0, SVG Export Plug-In . SVG Version: 6.00 Build 0)  -->
<svg version="1.1" id="Layer_1" xmlns="http://www.w3.org/2000/svg" xmlns:xlink="http://www.w3.org/1999/xlink" x="0px" y="0px"
	 viewBox="0 0 64 64" style="enable-background:new 0 0 64 64;" xml:space="preserve">
<style type="text/css">
	.st0{fill:none;}
	.st1{fill:#660269;}
</style>
<rect class="st0" width="64" height="64"/>
<path class="st1" d="M23.8,54.1H7.2c-0.1,0-0.2,0-0.3-0.1l-2.1-2c-0.1-0.1-0.2-0.2-0.2-0.4V23.3l0,0c0-0.1,0-0.2,0.1-0.2l1.9-3.5
	c-0.3-0.2-0.5-0.6-0.5-1c0-0.7,0.6-1.3,1.3-1.3h16.4c0.7,0,1.3,0.6,1.3,1.3c0,0.4-0.2,0.8-0.5,1l1.9,3.5c0,0.1,0.1,0.1,0.1,0.2l0,0
	v28.4c0,0.1,0,0.2-0.1,0.3c0,0,0,0,0,0l0,0l0,0l-2.1,2C24.1,54.1,24,54.1,23.8,54.1L23.8,54.1z M7.4,53.1h16.2l1-1H13
	c-0.3,0-0.5-0.2-0.5-0.5s0.2-0.5,0.5-0.5h12.5V23.8h-2.4c-0.3,0-0.5-0.2-0.5-0.5s0.2-0.5,0.5-0.5h2l-1.6-3h-16l-1.6,3h5.8
	c0.3,0,0.5,0.2,0.5,0.5s-0.2,0.5-0.5,0.5H5.6v27.6L7.4,53.1L7.4,53.1z M7.3,18.8h16.4c0.2,0,0.3-0.1,0.3-0.3s-0.1-0.3-0.3-0.3H7.3
	c-0.2,0-0.3,0.1-0.3,0.3S7.1,18.8,7.3,18.8L7.3,18.8z M18.7,40.7h-4.2c-0.3,0-0.5-0.2-0.5-0.5s0.2-0.5,0.5-0.5h4.2
	c0.3,0,0.5,0.2,0.5,0.5S19,40.7,18.7,40.7z M24.6,39.2H14.4c-0.3,0-0.5-0.2-0.5-0.5s0.2-0.5,0.5-0.5h10.1c0.3,0,0.5,0.2,0.5,0.5
	S24.9,39.2,24.6,39.2z M24.6,37.6H14.4c-0.3,0-0.5-0.2-0.5-0.5s0.2-0.5,0.5-0.5h10.1c0.3,0,0.5,0.2,0.5,0.5S24.9,37.6,24.6,37.6z
	 M24.6,36H14.4c-0.3,0-0.5-0.2-0.5-0.5s0.2-0.5,0.5-0.5h10.1c0.3,0,0.5,0.2,0.5,0.5S24.9,36,24.6,36z M24.6,34.5H14.4
	c-0.3,0-0.5-0.2-0.5-0.5s0.2-0.5,0.5-0.5h10.1c0.3,0,0.5,0.2,0.5,0.5S24.9,34.5,24.6,34.5z M18.7,32.9h-4.2c-0.3,0-0.5-0.2-0.5-0.5
	s0.2-0.5,0.5-0.5h4.2c0.3,0,0.5,0.2,0.5,0.5S19,32.9,18.7,32.9z M24.6,31.3H14.4c-0.3,0-0.5-0.2-0.5-0.5s0.2-0.5,0.5-0.5h10.1
	c0.3,0,0.5,0.2,0.5,0.5S24.9,31.3,24.6,31.3z M24.6,29.8H14.4c-0.3,0-0.5-0.2-0.5-0.5s0.2-0.5,0.5-0.5h10.1c0.3,0,0.5,0.2,0.5,0.5
	S24.9,29.8,24.6,29.8z M24.6,28.2H14.4c-0.3,0-0.5-0.2-0.5-0.5s0.2-0.5,0.5-0.5h10.1c0.3,0,0.5,0.2,0.5,0.5S24.9,28.2,24.6,28.2z
	 M24.6,26.6H14.4c-0.3,0-0.5-0.2-0.5-0.5s0.2-0.5,0.5-0.5h10.1c0.3,0,0.5,0.2,0.5,0.5S24.9,26.6,24.6,26.6z"/>
<path class="st1" d="M36.7,22.2c-0.1-0.1-0.2-0.1-0.2-0.1c-0.2-0.1-0.4-0.1-0.6-0.1c-0.3,0-0.6,0.1-0.8,0.2
	c-0.2,0.1-0.4,0.3-0.5,0.6s-0.2,0.5-0.2,0.9s0.1,0.6,0.2,0.9s0.3,0.4,0.5,0.6c0.2,0.1,0.5,0.2,0.8,0.2c0.2,0,0.4,0,0.6-0.1
	c0.1,0,0.2-0.1,0.3-0.2v0.2h1v-4.8h-1L36.7,22.2L36.7,22.2z M36.6,23.9c-0.1,0.1-0.1,0.2-0.2,0.3c-0.1,0.1-0.2,0.1-0.4,0.1
	s-0.3,0-0.4-0.1s-0.2-0.1-0.3-0.3c-0.1-0.1-0.1-0.2-0.1-0.4s0-0.3,0.1-0.4c0.1-0.1,0.2-0.2,0.3-0.3c0.1-0.1,0.2-0.1,0.4-0.1
	s0.3,0,0.4,0.1s0.2,0.1,0.2,0.3c0.1,0.1,0.1,0.2,0.1,0.4S36.7,23.8,36.6,23.9L36.6,23.9z M39,25c0.3,0.1,0.6,0.2,0.9,0.2
	c0.3,0,0.5,0,0.7-0.1s0.4-0.2,0.6-0.4l-0.5-0.5c-0.1,0.1-0.2,0.2-0.3,0.2c-0.1,0-0.3,0.1-0.4,0.1c-0.2,0-0.3,0-0.4-0.1
	s-0.2-0.2-0.3-0.3c0,0,0-0.1,0-0.1h2.3c0-0.1,0-0.2,0-0.2c0-0.1,0-0.1,0-0.2c0-0.3-0.1-0.6-0.2-0.8s-0.3-0.4-0.6-0.6
	c-0.2-0.1-0.5-0.2-0.8-0.2S39.2,22,39,22.1c-0.3,0.1-0.5,0.3-0.6,0.6s-0.2,0.5-0.2,0.9s0.1,0.6,0.2,0.9C38.5,24.7,38.7,24.9,39,25
	L39,25z M39.2,23.1c0.1-0.1,0.2-0.2,0.3-0.3s0.2-0.1,0.4-0.1c0.2,0,0.3,0,0.4,0.1c0.1,0.1,0.2,0.1,0.2,0.3c0,0,0,0.1,0,0.2h-1.4
	C39.2,23.2,39.2,23.1,39.2,23.1L39.2,23.1z M46.5,25c0.3,0.1,0.6,0.2,0.9,0.2s0.6-0.1,0.9-0.2s0.5-0.4,0.6-0.6
	c0.2-0.2,0.2-0.5,0.2-0.9S49,23,48.9,22.7c-0.2-0.2-0.4-0.5-0.6-0.6s-0.6-0.2-0.9-0.2s-0.6,0.1-0.9,0.2s-0.5,0.3-0.6,0.6
	c-0.2,0.2-0.2,0.5-0.2,0.8s0.1,0.6,0.2,0.9C46,24.6,46.2,24.8,46.5,25L46.5,25z M46.7,23.2c0.1-0.1,0.2-0.2,0.3-0.3
	c0.1-0.1,0.2-0.1,0.4-0.1s0.3,0,0.4,0.1s0.2,0.1,0.2,0.3s0.1,0.2,0.1,0.4s0,0.3-0.1,0.4c-0.1,0.1-0.1,0.2-0.2,0.3
	c-0.1,0.1-0.2,0.1-0.4,0.1s-0.3,0-0.4-0.1s-0.2-0.1-0.3-0.3c-0.1-0.1-0.1-0.2-0.1-0.4S46.7,23.3,46.7,23.2L46.7,23.2z M50.2,25.2
	c0.2,0,0.4,0.1,0.5,0.1c0.4,0,0.7-0.1,1-0.3c0.2-0.2,0.3-0.4,0.3-0.7c0-0.2,0-0.4-0.1-0.5c-0.1-0.1-0.2-0.2-0.3-0.3
	c-0.1-0.1-0.2-0.1-0.4-0.2c-0.1,0-0.3-0.1-0.4-0.1c-0.1,0-0.2-0.1-0.3-0.1c-0.1,0-0.1-0.1-0.1-0.2c0-0.1,0-0.1,0.1-0.1
	c0.1,0,0.1,0,0.3,0s0.2,0,0.4,0.1s0.2,0.1,0.3,0.2l0.6-0.6c-0.1-0.2-0.3-0.3-0.6-0.4c-0.2-0.1-0.5-0.1-0.8-0.1s-0.5,0-0.7,0.1
	c-0.2,0.1-0.3,0.2-0.4,0.4c-0.1,0.1-0.2,0.3-0.2,0.5c0,0.2,0,0.4,0.1,0.5c0.1,0.1,0.2,0.2,0.3,0.3c0.1,0.1,0.2,0.1,0.4,0.2
	c0.1,0,0.3,0.1,0.4,0.1c0.1,0,0.2,0.1,0.3,0.1s0.1,0.1,0.1,0.2c0,0.1,0,0.1-0.1,0.1c-0.1,0-0.2,0-0.3,0c-0.2,0-0.3,0-0.5-0.1
	S50,24.2,49.9,24l-0.6,0.6c0.1,0.1,0.2,0.2,0.4,0.3C49.9,25,50.1,25.1,50.2,25.2L50.2,25.2z M53.1,21.5c0.2,0,0.3,0,0.4-0.2
	s0.2-0.2,0.2-0.4s0-0.3-0.2-0.4c-0.1-0.1-0.2-0.2-0.4-0.2s-0.3,0-0.4,0.2c-0.1,0.1-0.2,0.2-0.2,0.4s0,0.3,0.2,0.4
	C52.8,21.5,53,21.5,53.1,21.5z M52.6,25.2h1V22h-1V25.2z M55.8,20.7h-1V22h-0.7v0.9h0.7v2.3h1v-2.3h0.7V22h-0.7V20.7z M42.9,26.4
	v-1.5c0.1,0.1,0.2,0.1,0.3,0.2c0.2,0.1,0.4,0.1,0.6,0.1c0.3,0,0.6-0.1,0.8-0.2c0.2-0.1,0.4-0.3,0.5-0.6s0.2-0.5,0.2-0.9
	s-0.1-0.6-0.2-0.9s-0.3-0.4-0.5-0.6c-0.2-0.1-0.5-0.2-0.8-0.2c-0.2,0-0.4,0-0.6,0.1c-0.1,0-0.2,0.1-0.2,0.1V22h-1v4.4
	c0.1,0,0.3,0,0.4,0C42.6,26.3,42.8,26.3,42.9,26.4L42.9,26.4z M43,23.2c0.1-0.1,0.1-0.2,0.2-0.3s0.2-0.1,0.4-0.1s0.3,0,0.4,0.1
	s0.2,0.1,0.2,0.3s0.1,0.2,0.1,0.4s0,0.3-0.1,0.4c-0.1,0.1-0.2,0.2-0.2,0.3c-0.1,0.1-0.2,0.1-0.4,0.1c-0.1,0-0.3,0-0.4-0.1
	S43,24.1,43,24s-0.1-0.2-0.1-0.4S42.9,23.3,43,23.2L43,23.2z M40.4,26.7c-0.1,0-0.2-0.1-0.4-0.1c-0.3,0-0.6,0.1-0.8,0.3v-0.2h-1v3.2
	h1v-1.8c0-0.2,0-0.4,0.2-0.5c0.1-0.1,0.2-0.1,0.4-0.1c0.1,0,0.2,0,0.2,0c0.1,0,0.1,0.1,0.2,0.1l0.6-0.8
	C40.6,26.8,40.5,26.7,40.4,26.7L40.4,26.7z M43.2,28.8C43.1,29,43,29,42.8,29.1c-0.1,0-0.3,0.1-0.4,0.1c-0.2,0-0.3,0-0.4-0.1
	s-0.2-0.2-0.3-0.3c0,0,0-0.1,0-0.1h2.3c0-0.1,0-0.2,0-0.2c0-0.1,0-0.1,0-0.2c0-0.3-0.1-0.6-0.2-0.8s-0.3-0.4-0.6-0.6
	c-0.2-0.1-0.5-0.2-0.8-0.2s-0.6,0.1-0.9,0.2c-0.3,0.1-0.5,0.3-0.6,0.6s-0.2,0.5-0.2,0.9s0.1,0.6,0.2,0.9c0.2,0.2,0.4,0.5,0.6,0.6
	s0.6,0.2,0.9,0.2c0.3,0,0.5,0,0.7-0.1s0.4-0.2,0.6-0.4L43.2,28.8L43.2,28.8z M41.7,27.8c0.1-0.1,0.2-0.2,0.3-0.3s0.2-0.1,0.4-0.1
	c0.2,0,0.3,0,0.4,0.1c0.1,0.1,0.2,0.1,0.2,0.3c0,0,0,0.1,0,0.2h-1.4C41.6,27.9,41.7,27.8,41.7,27.8L41.7,27.8z M45.8,29.9v-2.3h0.7
	v-0.9h-0.7v-1.3h-1v1.3h-0.7v0.9h0.7v2.3H45.8z M49.7,29.3c0.1-0.2,0.2-0.5,0.2-0.7v-1.8h-1v1.8c0,0.2,0,0.3-0.1,0.4
	S48.5,29,48.4,29c-0.1,0-0.2,0-0.3-0.1c-0.1,0-0.1-0.1-0.2-0.2c0-0.1-0.1-0.2-0.1-0.3v-1.8h-1v1.9c0,0.3,0.1,0.5,0.2,0.7
	c0.1,0.2,0.3,0.4,0.5,0.5c0.2,0.1,0.5,0.2,0.8,0.2s0.5-0.1,0.8-0.2S49.6,29.5,49.7,29.3z M52.3,26.6c-0.3,0-0.6,0.1-0.8,0.3v-0.2h-1
	v3.2h1v-1.8c0-0.2,0-0.4,0.2-0.5c0.1-0.1,0.2-0.1,0.4-0.1c0.1,0,0.2,0,0.2,0c0.1,0,0.1,0.1,0.2,0.1l0.6-0.8
	c-0.1-0.1-0.2-0.2-0.3-0.2C52.6,26.6,52.5,26.6,52.3,26.6L52.3,26.6z M55.8,26.8c-0.2-0.1-0.4-0.2-0.6-0.2s-0.5,0-0.7,0.1
	c-0.1,0-0.2,0.1-0.2,0.2v-0.2h-1v3.2h1v-1.8c0-0.1,0-0.2,0.1-0.3c0-0.1,0.1-0.1,0.2-0.2c0.1,0,0.2-0.1,0.3-0.1c0.2,0,0.3,0,0.4,0.1
	s0.2,0.2,0.2,0.4v1.8h1v-2c0-0.2,0-0.4-0.2-0.6C56.1,27,56,26.9,55.8,26.8z M44.9,34c0.1-0.1,0.2-0.2,0.3-0.4
	c0.1-0.1,0.1-0.2,0.2-0.3s0-0.2,0-0.4c0-0.2,0-0.4-0.1-0.5s-0.2-0.3-0.4-0.3C44.7,32,44.5,32,44.3,32c-0.2,0-0.5,0.1-0.7,0.2
	s-0.4,0.3-0.5,0.5l0.4,0.4c0.1-0.2,0.2-0.3,0.3-0.3s0.2-0.1,0.4-0.1s0.2,0,0.3,0.1c0.1,0.1,0.1,0.2,0.1,0.3c0,0.1,0,0.1,0,0.2
	c0,0.1-0.1,0.1-0.1,0.2c0,0.1-0.1,0.2-0.2,0.2L43.2,35v0.4h2.3v-0.5h-1.3L44.9,34L44.9,34z M47.8,32.2c-0.2-0.1-0.4-0.2-0.7-0.2
	s-0.5,0.1-0.7,0.2s-0.4,0.3-0.5,0.6c-0.1,0.2-0.2,0.5-0.2,0.9s0.1,0.6,0.2,0.9c0.1,0.2,0.3,0.5,0.5,0.6s0.4,0.2,0.7,0.2
	s0.5-0.1,0.7-0.2c0.2-0.1,0.4-0.3,0.5-0.6c0.1-0.2,0.2-0.5,0.2-0.9s-0.1-0.6-0.2-0.9S48.1,32.3,47.8,32.2L47.8,32.2z M47.8,34.3
	c-0.1,0.2-0.2,0.3-0.2,0.4c-0.1,0.1-0.2,0.1-0.4,0.1s-0.3,0-0.4-0.1c-0.1-0.1-0.2-0.2-0.2-0.4s-0.1-0.4-0.1-0.6s0-0.5,0.1-0.6
	s0.2-0.3,0.2-0.4c0.1-0.1,0.2-0.1,0.4-0.1s0.3,0,0.4,0.1c0.1,0.1,0.2,0.2,0.3,0.4c0.1,0.2,0.1,0.4,0.1,0.6S47.8,34.1,47.8,34.3
	L47.8,34.3z M50.3,33.9c-0.1-0.1-0.3-0.1-0.4-0.1c-0.1,0-0.2,0-0.3,0.1c-0.1,0-0.1,0.1-0.2,0.1v-0.2h-0.5v2.5h0.5v-0.9
	c0,0,0.1,0.1,0.2,0.1c0.1,0,0.2,0.1,0.3,0.1c0.2,0,0.3,0,0.4-0.1c0.1-0.1,0.2-0.2,0.3-0.3c0.1-0.1,0.1-0.3,0.1-0.5s0-0.3-0.1-0.5
	C50.6,34.1,50.5,34,50.3,33.9L50.3,33.9z M50.2,34.9c0,0.1-0.1,0.1-0.2,0.2c-0.1,0-0.1,0.1-0.2,0.1s-0.2,0-0.2-0.1s-0.1-0.1-0.2-0.2
	c0-0.1-0.1-0.2-0.1-0.2s0-0.2,0.1-0.2c0-0.1,0.1-0.1,0.2-0.2c0.1,0,0.1-0.1,0.2-0.1s0.2,0,0.2,0.1s0.1,0.1,0.2,0.2
	c0,0.1,0.1,0.2,0.1,0.2S50.3,34.8,50.2,34.9L50.2,34.9z M59.7,31c0-0.1,0-0.2,0-0.3c0-0.1,0-0.2,0-0.3c0-0.1,0-0.3,0-0.4l0,0
	c0-3.2,0-6.9-0.2-10.7c0-0.9-0.4-1.7-1.1-2.1c-0.2-0.1-0.5-0.3-0.7-0.5c-0.1-0.1-0.3-0.2-0.4-0.2c-1.5-1-3-1.9-4.4-2.8
	c-1.2-0.8-2.5-1.6-3.7-2.4c-0.2-0.1-0.4-0.2-0.6-0.3c-0.1-0.1-0.3-0.1-0.5-0.1c-0.2,0-0.2,0-0.4,0.1h0c0,0-0.1,0-0.1,0
	c0,0-0.1,0-0.2,0.1l-0.5,0.1c-3,0.9-6.1,1.9-8.5,2.6L37,14.2l-1.1,0.3c-0.1,0-0.2,0.1-0.2,0.1l0,0c-0.6,0.2-1.1,0.7-1.4,1.3
	C33,18.4,31.9,21,30.5,24l0,0c-0.1,0.2-0.2,0.5-0.3,0.8c-0.2,0.8,0,1.4,0.4,1.9l0.8,1.1c0.9,1.2,2.1,2.9,3.4,4.6
	c1.2,1.7,2.5,3.4,3.4,4.7c0,0,0.1,0.2,0.2,0.4s0.1,0.3,0.2,0.3c0.4,0.6,1,0.9,1.7,1c0,0,0.1,0,0.1,0c0.2,0,0.5,0,0.8,0
	c0.3,0,0.5,0,0.7,0c1,0,2,0,3.1,0c1.2,0,2.5,0,3.7,0c0.3,0,0.5,0,0.8,0c1,0,2-0.1,3.1-0.1c0.1,0,0.1,0,0.2,0l0.2,0
	c0.2,0,0.4,0,0.6,0c0.3,0,0.6-0.2,0.8-0.3c0.3-0.2,0.5-0.5,0.7-0.8c0.1-0.1,0.2-0.3,0.3-0.4l0.9-1c0.2-0.3,0.6-0.7,0.9-1.1
	c0.6-0.8,1.3-1.6,1.7-2.1c0,0,0.1-0.1,0.2-0.2c0.1-0.1,0.2-0.2,0.2-0.3c0,0,0.1-0.1,0.2-0.2c0,0,0.1-0.1,0.1-0.1
	c0.2-0.3,0.3-0.5,0.3-0.9C59.7,31.2,59.7,31.1,59.7,31L59.7,31z M58.3,30.9c0,0.2,0,0.3-0.1,0.5c0,0,0,0.1,0,0.1c0,0,0,0,0,0
	c0,0.1-0.1,0.3-0.2,0.4l-0.2,0.3c-0.3,0.4-0.6,0.8-1,1.3c-0.8,1.1-1.6,2.3-2.2,3.2l0,0.1c-0.2,0.3-0.3,0.3-0.5,0.5
	c-0.5,0.4-0.7,0.5-1.1,0.5c-0.5,0-1,0-1.5,0.1c-1,0.1-1.9,0.1-2.9,0.1c-1.6,0-3.4,0-5.2-0.1c-0.6,0-1.2,0-1.7,0c-0.1,0-0.3,0-0.5,0
	c-0.3,0-0.6,0-0.9,0c0,0,0,0-0.1,0c-0.3,0-0.6-0.2-0.8-0.5c0,0,0,0,0-0.1c0,0-0.1-0.1-0.1-0.1c-0.1-0.1-0.2-0.2-0.3-0.4
	c-0.1-0.2-0.2-0.4-0.3-0.5c-0.8-1.2-1.8-2.8-2.9-4.4c-0.4-0.7-0.9-1.4-1.3-2c-0.9-1.4-1.7-2.7-2.4-3.8l0,0c-0.1-0.2-0.4-0.6-0.4-0.8
	c0-0.1,0-0.1,0.1-0.2c0,0,0,0,0-0.1c0,0,0,0,0-0.1c0,0,0,0,0,0c0,0,0-0.1,0.1-0.1c1.1-2.4,2.2-4.8,3.1-6.9c0.1-0.2,0.2-0.3,0.2-0.5
	c0.1-0.3,0.2-0.5,0.3-0.8c0.1-0.2,0.3-0.5,0.6-0.6c0.4-0.1,0.8-0.3,1.1-0.4c0.3-0.1,0.5-0.2,0.8-0.3c0.1,0,0.2-0.1,0.3-0.1
	c0,0,0.1,0,0.2,0c0.1,0,0.3-0.1,0.4-0.2c0.1,0,0.1,0,0.2-0.1c0,0,0.1,0,0.2-0.1c0.1,0,0.2-0.1,0.3-0.1c0.6-0.2,1.2-0.4,2-0.7
	c0.1-0.1,0.3-0.1,0.4-0.1c0,0,0,0,0,0c0.6-0.2,1.2-0.4,1.9-0.6l2.8-0.9c0.2-0.1,0.4-0.1,0.6-0.2c0.5-0.2,0.9-0.3,1.3-0.2
	c0,0.1,0.2,0.1,0.4,0.2c0,0,0.1,0,0.1,0.1c0.1,0,0.1,0.1,0.2,0.1l0.3,0.2l0,0c0.7,0.5,1.3,1,1.9,1.4c0.6,0.5,1.1,0.9,1.7,1.3
	c0.6,0.5,1.3,1,2.2,1.6l1.8,1.3c0.7,0.7,0.7,1.9,0.7,1.9c0.2,2.1,0.3,3.9,0.3,5.6v0.2c0,0.6,0,1.1,0,1.6
	C58.3,28.6,58.4,29.7,58.3,30.9L58.3,30.9z"/>
<path class="st1" d="M19.2,49.6c-0.2,0-0.3-0.1-0.4-0.2L17,47c-0.1-0.2-0.1-0.4,0-0.5l0.9-1.8c0.1-0.1,0.2-0.2,0.3-0.2l2.1-0.6
	c0.1,0,0.3,0,0.4,0.1l2,1.5c0.1,0.1,0.2,0.2,0.2,0.4l0,2.1c0,0.1,0,0.2-0.1,0.3l-1,1.2c-0.1,0.1-0.2,0.2-0.4,0.2L19.2,49.6
	L19.2,49.6L19.2,49.6z M18,46.7l1.4,1.9l1.9-0.1l0.7-0.9l0-1.6l-1.6-1.2l-1.7,0.5L18,46.7L18,46.7z"/>
<path class="st1" d="M25.9,45.6c-0.1,0-0.3,0-0.4-0.2c-0.2-0.2-0.2-0.5,0-0.7l7.3-7.3c0.2-0.2,0.5-0.2,0.7,0s0.2,0.5,0,0.7l-7.3,7.3
	C26.2,45.5,26.1,45.6,25.9,45.6L25.9,45.6z"/>
</svg>
