<?xml version="1.0" encoding="UTF-8"?><svg id="Layer_1" xmlns="http://www.w3.org/2000/svg" viewBox="0 0 128 128"><defs><style>.cls-1{fill:none;}.cls-2{fill:#fff;}.cls-3{fill:#c3d83d;}.cls-4{fill:#602a76;}</style></defs><rect class="cls-1" width="128" height="128"/><path class="cls-2" d="m111.07,76.23c-.1-.3-.1-.6-.1-.9s-.1-.7-.1-1c0-.4-.1-.9-.1-1.2h0c-1-10.2-2.3-22.4-4.1-34.6-.3-2.9-1.9-5.3-4.3-6.6-.6-.3-1.6-.8-2.4-1.3-.5-.2-.9-.5-1.3-.7-5-2.7-10.2-5.3-15.2-7.8-4.2-2.1-8.6-4.3-12.9-6.5-.7-.4-1.4-.6-2.2-.7-.3-.2-.9-.3-1.7-.2-.6.1-.8.2-1.4.4h-.1q-.2.1-.3.1t-.7.3l-1.5.6c-9.3,3.9-19.1,7.9-26.6,10.9l-4.2,1.7-3.5,1.5c-.4.2-.6.2-.7.3h0c-1.9.8-3.5,2.5-4.2,4.5-3.1,8.7-6,17.3-9.4,27.7v.1c-.3.8-.6,1.7-.6,2.6-.3,2.7.4,4.7,1.9,5.9l2.9,3.4c3.3,3.8,7.9,8.9,12.3,13.9,4.5,5.1,9.2,10.3,12.5,14.1.1.1.4.6.7,1.1.3.5.5.9.6,1.1,1.4,1.7,3.6,2.7,5.8,2.7h.4c.7-.1,1.6-.2,2.4-.4.8-.1,1.6-.3,2.2-.3,3.2-.4,6.7-.7,10-1,4-.4,8.2-.8,11.9-1.2.9-.1,1.8-.2,2.7-.4,3.4-.5,6.6-.9,10-1.1h1.2c.7,0,1.3-.1,1.8-.2.9-.2,1.8-.7,2.5-1.3.8-.6,1.4-1.7,2-2.7.3-.5.5-1,.8-1.4l2.7-3.6c.6-.9,1.6-2.4,2.7-4,1.8-2.7,3.8-5.7,4.8-7.2.1-.1.2-.4.5-.7.2-.3.5-.8.7-1.1.1-.2.4-.4.6-.6.2-.2.2-.3.3-.3.7-1.1.8-1.7.9-3-.1-.1-.1-.5-.2-.9"/><path class="cls-3" d="m104.57,59.83c.2,1.8.4,3.5.6,5.1.5,4.2,1,7.7,1.1,11.4v1.9c-.1.4-.3,1.2-.5,1.5l-.7,1.2c-.8,1.4-1.7,3-2.7,4.7-2.1,3.7-4.6,7.9-6.3,10.9l-.1.2c-.6.9-.8,1.1-1.5,1.9-1.6,1.4-2,1.7-3.4,1.8-1.6.2-3.2.4-4.7.7-3.2.5-6.2,1-9.5,1.1-5.1.4-11.1.9-16.8,1.4-1.9.2-3.8.3-5.6.5-.4,0-.9.1-1.5.1-1,.1-2.1.2-2.8.2h-.2c-1.1-.1-2.1-.6-2.8-1.4,0,0-.1-.1-.2-.2-.1-.1-.2-.3-.3-.3-.2-.3-.6-.7-1-1.2s-.9-1.1-1.2-1.4c-3-3.7-6.8-8.4-10.9-13.3-1.6-2.1-3.3-4.2-4.9-6.3-3.3-4.2-6.4-8.2-9-11.4l-.1-.2c-.6-.7-1.5-1.8-1.4-2.6,0-.2.1-.4.1-.6q0-.1.1-.2t.1-.2s0-.1.1-.1c.1-.2.1-.3.2-.5,2.9-8.2,5.5-16.1,7.9-23.4.2-.6.4-1.1.5-1.7.3-.9.6-1.8.8-2.6.2-.8.8-1.6,1.7-2,1.2-.6,2.4-1.1,3.5-1.7.8-.4,1.6-.8,2.4-1.2.3-.2.6-.3.9-.4.2-.1.3-.1.5-.2.4-.2.9-.4,1.3-.6.2-.1.4-.2.6-.3.2-.1.3-.2.5-.2.4-.2.7-.3,1.1-.5,1.9-.9,3.9-1.8,6.1-2.8.4-.2.9-.4,1.3-.6h0c1.9-.8,3.9-1.7,6.1-2.6l8.9-3.9c.7-.3,1.4-.6,2-.9,1.6-.7,2.9-1.3,4.2-1,.1.2.6.3,1.3.6.1,0,.3.1.4.1.2.1.5.2.7.3l.9.6h0c2.4,1.5,4.5,2.8,6.5,4.1,2,1.3,4,2.5,6,3.8,2.2,1.4,4.6,2.8,7.6,4.4l6.3,3.8c2.4,1.9,3,5.8,3,5.9,1.5,6.8,2.1,12.5,2.8,18v.3Zm6.5,16.4c-.1-.3-.1-.6-.1-.9s-.1-.7-.1-1c0-.4-.1-.9-.1-1.2h0c-1-10.2-2.3-22.4-4.1-34.6-.3-2.9-1.9-5.3-4.3-6.6-.6-.3-1.6-.8-2.4-1.3-.5-.2-.9-.5-1.3-.7-5-2.7-10.2-5.3-15.2-7.8-4.2-2.1-8.6-4.3-12.9-6.5-.7-.4-1.4-.6-2.2-.7-.3-.2-.9-.3-1.7-.2-.6.1-.8.2-1.4.4h-.1q-.2.1-.3.1-.2.1-.7.3l-1.5.6c-9.3,3.9-19.1,7.9-26.6,10.9l-4.2,1.7-3.5,1.5c-.4.2-.6.2-.7.3h0c-1.9.8-3.5,2.5-4.2,4.5-3.1,8.7-6,17.3-9.4,27.7v.1c-.3.8-.6,1.7-.6,2.6-.3,2.7.4,4.7,1.9,5.9l2.9,3.4c3.3,3.8,7.9,8.9,12.3,13.9,4.5,5.1,9.2,10.3,12.5,14.1.1.1.4.6.7,1.1.3.5.5.9.6,1.1,1.4,1.7,3.6,2.7,5.8,2.7h.4c.7-.1,1.6-.2,2.4-.4.8-.1,1.6-.3,2.2-.3,3.2-.4,6.7-.7,10-1,4-.4,8.2-.8,11.9-1.2.9-.1,1.8-.2,2.7-.4,3.4-.5,6.6-.9,10-1.1h1.2c.7,0,1.3-.1,1.8-.2.9-.2,1.8-.7,2.5-1.3.8-.6,1.4-1.7,2-2.7.3-.5.5-1,.8-1.4l2.7-3.6c.6-.9,1.6-2.4,2.7-4,1.8-2.7,3.8-5.7,4.8-7.2.1-.1.2-.4.5-.7.2-.3.5-.8.7-1.1.1-.2.4-.4.6-.6.2-.2.2-.3.3-.3.7-1.1.8-1.7.9-3-.1-.1-.1-.5-.2-.9"/><path class="cls-4" d="m75.37,69.73h-19c-.5,0-.9.4-.9.9s.4.9.9.9h19c.5,0,.9-.4.9-.9s-.4-.9-.9-.9Z"/><path class="cls-4" d="m71.87,73.63h-11.9c-.5,0-.9.4-.9.9s.4.9.9.9h11.9c.5,0,.9-.4.9-.9s-.4-.9-.9-.9Z"/><path class="cls-4" d="m69.67,77.43h-7.4c-.5,0-.9.4-.9.9s.4.9.9.9h7.3c.5,0,1-.4,1-.9s-.4-.9-.9-.9Z"/><path class="cls-4" d="m86.47,40.13h-3.3v-.8c0-1.5-1.2-2.7-2.7-2.7h-28.9c-1.7,0-3,1.3-3,3v.5h-3.2c-1.5,0-2.7,1.2-2.7,2.7v32.5c0,1.5,1.2,2.7,2.7,2.7h1.1v6.8c0,1.29.89,2.36,2.1,2.63v1.37c0,1.5,1.2,2.7,2.7,2.7h1.6c1.4,0,2.7-1.3,2.7-2.7v-1.3h20.8v1.3c0,1.5,1.2,2.7,2.7,2.7h1.5c1.4,0,2.6-1.3,2.8-2.7v-1.41c1.08-.32,1.9-1.34,1.9-2.59v-6.8h1.2c1.5,0,2.7-1.2,2.7-2.7v-32.5c0-1.5-1.2-2.7-2.7-2.7Zm-36.2-.5c0-.7.6-1.3,1.3-1.3h28.9c.6,0,1,.5,1,1v.8h-31.2v-.5Zm33.4,13c-.41-.25-.88-.4-1.4-.4h-32.8c-.48,0-.91.13-1.3.34v-1.14c0-.6.5-1,1-1h33.5c.6,0,1,.5,1,1v1.2Zm-.4,2.3v9.5h-34.7v-9.5c0-.5.4-1,1-1h32.7c.6,0,1,.5,1,1Zm-29.5,33.8c0,.6-.5,1-1,1h-1.5c-.6,0-1-.5-1-1v-1.2h3.5v1.2Zm27.7,0c0,.6-.5,1-1,1h-1.5c-.6,0-1-.5-1-1v-1.2h3.5v1.2Zm1.35-2.83c-.11-.05-.23-.07-.35-.07h-5.2c-.14,0-.28.04-.4.1h-21.81c-.12-.06-.25-.1-.4-.1h-5.2c-.13,0-.26.03-.37.08-.56-.04-.93-.51-.93-.98v-.8h6.5c.5,0,.9-.4.9-.9v-3.2c0-.5-.4-.9-.9-.9h-6.5v-13h35.5v13h-6.5c-.5,0-.9.4-.9.9v3.2c0,.5.4.9.9.9h6.5v.8c0,.54-.4.9-.85.97Zm-34.25-3.47v-1.5h5.3v1.5h-5.3Zm34.7-1.5v1.5h-5.3v-1.5h5.3Zm4.2-5.7c0,.6-.5,1-1,1h-1.2v-24.9c0-1.5-1.2-2.7-2.7-2.7h-33.4c-1.5,0-2.7,1.2-2.7,2.7v24.9h-1.1c-.6,0-1-.5-1-1v-32.5c0-.6.5-1,1-1h3.94c.15.06.3.1.46.1h32.3c.16,0,.31-.04.44-.1h3.96c.6,0,1,.5,1,1v32.5Z"/></svg>