<?xml version="1.0" encoding="UTF-8"?><svg id="Layer_1" xmlns="http://www.w3.org/2000/svg" viewBox="0 0 128 128"><defs><style>.cls-1{fill:none;}.cls-2{fill:#fff;}.cls-3{fill:#c3d83d;}.cls-4{fill:#602a76;}</style></defs><rect class="cls-1" width="128" height="128"/><path class="cls-2" d="m64.56,112.09c.3-.1.6-.3.8-.4.3-.1.6-.3,1-.4.4-.2.8-.3,1.1-.5h0c9.5-4,20.7-8.7,31.9-14,2.7-1.1,4.6-3.3,5.1-6,.1-.7.3-1.8.5-2.7.1-.5.2-1,.3-1.4,1.1-5.6,2.1-11.3,3-16.8.8-4.7,1.6-9.5,2.5-14.2.2-.7.2-1.5.1-2.3.1-.4,0-.9-.3-1.7-.2-.5-.4-.7-.8-1.2h0c-.1-.1-.2-.2-.2-.3q-.1-.2-.5-.6l-1-1.2c-6.5-7.8-13.1-16-18.2-22.3l-2.8-3.5-2.4-3c-.3-.3-.4-.5-.5-.5h0c-1.4-1.6-3.4-2.6-5.6-2.7-9.2-.5-18.3-.7-29.2-1h-.1c-.8,0-1.8-.1-2.7.2-2.7.6-4.4,1.7-5.1,3.6l-2.4,3.8c-2.7,4.2-6.2,10.1-9.7,15.8-3.5,5.8-7.2,11.8-9.9,16.1-.1.1-.5.6-.9,1s-.7.8-.8.9c-1.2,1.9-1.6,4.2-.9,6.3,0,.1.1.3.2.4.3.6.7,1.4,1.1,2.2.4.8.7,1.5,1,2,1.3,2.9,2.6,6.2,3.9,9.3,1.5,3.7,3.1,7.6,4.6,11,.4.8.8,1.6,1.1,2.4,1.4,3.1,2.8,6,4,9.3.1.2.1.4.2.6l.2.6c.2.7.4,1.2.7,1.7.5.8,1.2,1.5,2,2.1s2,.9,3.1,1.1c.6.1,1.1.2,1.5.4l4.2,1.5c1.1.3,2.8.8,4.6,1.4,3.1.9,6.6,2,8.3,2.5.1,0,.4.1.8.2s.9.3,1.3.4c.2.1.5.2.8.4.2.1.3.2.4.2,1.3.3,1.9.3,3.1,0-.1-.3.3-.5.6-.7h0Z"/><path class="cls-3" d="m78.46,101.09c-1.7.7-3.2,1.4-4.7,2.1-3.8,1.7-7.1,3.2-10.6,4.3-.5.1-1,.3-1.4.4-.1,0-.2.1-.3.1h-.1c-.4,0-1.2,0-1.5-.1l-1.3-.3c-1.5-.4-3.3-.8-5.2-1.2-4.2-1-8.9-2.1-12.3-2.9l-.2-.1c-1.1-.3-1.3-.5-2.2-.9-1.8-1.1-2.2-1.4-2.7-2.7-.7-1.5-1.3-2.9-2-4.3-1.4-2.9-2.7-5.7-3.8-8.7-1.9-4.8-4.1-10.3-6.2-15.7-.7-1.8-1.4-3.6-2.1-5.2-.2-.4-.3-.9-.6-1.4-.4-.9-.8-1.9-1-2.7q0-.1-.1-.2c-.2-1,0-2.2.6-3.1l.2-.2c.1-.1.2-.3.2-.3.2-.3.5-.8.9-1.3.4-.6.8-1.2,1-1.5,2.7-4,6-9,9.6-14.3,1.5-2.2,3-4.3,4.6-6.5,3.1-4.4,6-8.5,8.3-12l.1-.2c.5-.7,1.3-1.9,2.1-2.1.2,0,.4-.1.6-.1h1.1c8.7.3,17,.6,24.7.7h4.5c.9,0,1.7.4,2.4,1,.9,1,1.8,1.9,2.6,2.9.6.7,1.2,1.3,1.8,1.9.2.3.5.5.7.8.1.1.2.2.3.4.3.4.7.7,1,1.1.1.2.3.3.4.5.1.1.2.3.4.4.3.3.5.6.8.9,1.4,1.6,2.9,3.2,4.5,5,.3.4.6.7,1,1.1h0c1.3,1.5,2.7,3.2,4.3,5.1l6.3,7.4c.5.6.9,1.1,1.4,1.6,1.2,1.3,2.1,2.4,2.2,3.8-.1.2-.2.7-.2,1.4v.4c0,.3,0,.5-.1.8l-.3,1h0c-.7,2.7-1.4,5.1-2,7.4s-1.3,4.5-1.9,6.9c-.7,2.5-1.3,5.2-2,8.5l-1.8,7.1c-1.1,2.9-4.7,4.6-4.8,4.6-6.1,3.4-11.3,5.7-16.4,7.9l-.8.5Zm-13.9,11c.3-.1.6-.3.8-.4.3-.1.6-.3,1-.4.4-.2.8-.3,1.1-.5h0c9.5-4,20.7-8.7,31.9-14,2.7-1.1,4.6-3.3,5.1-6,.1-.7.3-1.8.5-2.7.1-.5.2-1,.3-1.4,1.1-5.6,2.1-11.3,3-16.8.8-4.7,1.6-9.5,2.5-14.2.2-.7.2-1.5.1-2.3.1-.4,0-.9-.3-1.7-.2-.5-.4-.7-.8-1.2h0c-.1-.1-.2-.2-.2-.3q-.1-.2-.5-.6l-1-1.2c-6.5-7.8-13.1-16-18.2-22.3l-2.8-3.5-2.4-3c-.3-.3-.4-.5-.5-.5h0c-1.4-1.6-3.4-2.6-5.6-2.7-9.2-.5-18.3-.7-29.2-1h-.1c-.8,0-1.8-.1-2.7.2-2.7.6-4.4,1.7-5.1,3.6l-2.4,3.8c-2.7,4.2-6.2,10.1-9.7,15.8-3.5,5.8-7.2,11.8-9.9,16.1-.1.1-.5.6-.9,1s-.7.8-.8.9c-1.2,1.9-1.6,4.2-.9,6.3,0,.1.1.3.2.4.3.6.7,1.4,1.1,2.2.4.8.7,1.5,1,2,1.3,2.9,2.6,6.2,3.9,9.3,1.5,3.7,3.1,7.6,4.6,11,.4.8.8,1.6,1.1,2.4,1.4,3.1,2.8,6,4,9.3.1.2.1.4.2.6l.2.6c.2.7.4,1.2.7,1.7.5.8,1.2,1.5,2,2.1s2,.9,3.1,1.1c.6.1,1.1.2,1.5.4l4.2,1.5c1.1.3,2.8.8,4.6,1.4,3.1.9,6.6,2,8.3,2.5.1,0,.4.1.8.2s.9.3,1.3.4c.2.1.5.2.8.4.2.1.3.2.4.2,1.3.3,1.9.3,3.1,0-.1-.3.3-.5.6-.7h0Z"/><polygon class="cls-4" points="52.06 84.89 44.26 84.89 44.26 86.89 52.06 86.89 52.06 87.89 55.96 85.89 52.06 83.89 52.06 84.89"/><polygon class="cls-4" points="52.06 43.79 55.96 41.79 52.06 39.79 52.06 40.79 44.26 40.79 44.26 42.79 52.06 42.79 52.06 43.79"/><path class="cls-4" d="m81.46,60.79s-.07-.05-.1-.06c.07-.04.14-.09.2-.14.9-.7,1.6-1.8,1.6-3.1-.1-1.7-1.5-3.3-3.2-3.7-.03-.01-.06-.02-.08-.02v-4.28c0-1.9-5.3-7.3-6.1-8.3-.1-.4,0-1.2.1-2.6h1.9v-5.9c0-2.05-2.2-2.7-2.2-2.7h-9.7s-2.6.56-2.6,2.7v5.9h1.9v2.9c-1.2,1.3-5.7,6.14-5.7,8v.35c-.34.11-.66.28-.92.45l-3.9,3.1c-.2.2-.5.3-.8.3h-13.1c-.5,0-1,.5-1,1s.4,1,1,1h13.1c.7,0,1.4-.2,2-.7l3.62-2.74.08-.06.2-.2c.1-.1.2-.1.3-.1h2.5c.3,0,.5.2.5.5v9.5c0,.9-.6,1.7-1.5,1.9-.03.01-.05.03-.08.04-.15.06-.25.06-.42.06-.69,0-1.19-.29-1.58-.78t-.02-.02c-.2-.3-.4-.8-.4-1.2v-6.3c0-.5-.5-1-1-1s-1,.4-1,1v6.3c0,1.7,1,3.1,2.4,3.7,0,0,0,.01.02.01v12.59h-1.32l-2.2-2.3-.1-.1c-.5-.4-1.3-.7-2-.7h-13.1c-.5,0-1,.4-1,1,0,.5.4,1,1,1h13.1c.2,0,.5,0,.7.2l2.4,2.6c.2.2.4.3.7.3h1.82v5.27c0,2.84,1.68,4.53,3.3,4.53h16.75c1.19,0,2.35-1.8,2.35-4.53v-6.15s.05-.01.08-.02c1.7-.4,3-2,3-3.8.1-1.1-.4-2.2-1.3-2.9.8-.7,1.3-1.8,1.3-2.9.1-1.2-.4-2.2-1.2-2.9-.02-.02-.04-.03-.06-.04.78-.69,1.26-1.68,1.26-2.86.1-1.3-.5-2.4-1.5-3.1Zm-2.3,10.7h-6.6c-1,0-1.9-.8-1.9-1.9,0-.82.54-1.58,1.35-1.82.11.01.23.02.35.02h6.8c.24,0,.48.06.72.14.06.02.12.04.18.06.6.3,1,.9,1,1.7,0,.7-.4,1.3-1,1.6-.06.02-.12.04-.18.06-.24.08-.48.14-.72.14Zm0-5.7h-6.6c-.17,0-.34-.02-.5-.08.13,0,.26-.02.4-.02-.5,0-.98-.2-1.32-.54-.01,0-.02-.02-.03-.03-.28-.32-.45-.75-.45-1.23s.17-.91.48-1.25c.02-.03.05-.06.08-.09l.21-.18c.23-.16.49-.28.76-.34.12-.03.25-.04.37-.04h6.6c.24,0,.48.06.72.14.06.02.12.04.18.06.6.3,1,.9,1,1.7,0,.7-.4,1.3-1,1.7-.06.02-.12.04-.18.06-.24.08-.48.14-.72.14Zm.8-9.8c.6.3,1,.9,1,1.7,0,.7-.4,1.4-1,1.7-.03,0-.06.02-.08.03-.25.09-.44.17-.7.17h-6.62c-.91,0-1.73-.66-1.87-1.6-.02-.1-.03-.2-.03-.3,0-1.1.9-1.9,1.9-1.9h6.6c.26,0,.52.08.72.17.03,0,.05.02.08.03Zm-8.27-15.88c-.7.17-1.44.48-2.11.48-1.18,0-1.24-.16-2.04-.56-.72-.43-1.55-.29-2.25,0v-1.46h6.47c-.05.61-.06,1.11-.06,1.54,0,0,0,0,0,0Zm-8.41-6.83c0-1.01,1-1.1,1-1.1h8.4s1,0,1,1.1v3.28h-1.7s-8.7,0-8.7,0h0v-3.28Zm-2.62,16.4h-1.1c.84-2.05,4.16-5.75,5.42-7.1l.06-.06.03-.03c.48-.35.52-.5,1.81-.5,1.51,0,1.4.8,2.4.8.5,0,1-.2,1.4-.4.42-.28.89-.41,1.2-.43.11.36.23.51.3.62.4.4,3.5,4.5,5.7,7.3.01,1.23.01,2.51.02,3.8h-5.34c-2.2,0-3.9,1.8-3.9,3.9v.3s.01.07.02.1h-5.62v-5.6c0-1.4-1.1-2.6-2.4-2.7Zm-1.1,16.2c2-.3,3.5-1.9,3.5-4v-1.9h6.48c.19.25.44.42.62.6.03.02.05.04.08.05-.03,0-.05.03-.08.05-.14.11-.27.22-.4.35-.08.08-.15.16-.23.25-.64.68-1.07,1.58-1.07,2.6,0,1.1.5,2.2,1.3,2.9.02.01.03.03.05.04-.77.7-1.25,1.69-1.25,2.86s.5,2.2,1.3,2.9c-.7.7-1.2,1.6-1.3,2.6v.1h-9.08v-9.4h.08Zm18.32,18.4c0,1.28.04,3.9-1.76,3.9h-14.74c-1.9,0-1.9-2.83-1.9-3.9v-7h9.54c.61,1.25,1.98,2.1,3.44,2.1h5.43c0,2.73-.01,4.54-.01,4.9Zm2.08-7.1s-.05.02-.08.03c-.27.09-.55.17-.82.17h-6.6c-.2,0-.4-.03-.58-.1-.74-.23-1.32-.92-1.32-1.8,0-.07,0-.13.02-.2.09-.92.85-1.7,1.88-1.7h6.6c.27,0,.55.08.82.17.03,0,.05.02.08.03.6.3,1,.9,1,1.6,0,.9-.4,1.5-1,1.8Z"/><path class="cls-4" d="m70.78,85.49c0,.5.4,1,1,1h3.9c.5,0,1-.5,1-1.1v-3.7c0-.5-.5-1-1-1s-1,.4-1,1v2.8h-2.9c-.5,0-1,.4-1,1Z"/></svg>