<?xml version="1.0" encoding="UTF-8"?><svg id="Layer_1" xmlns="http://www.w3.org/2000/svg" viewBox="0 0 64 64"><defs><style>.cls-1{fill:none;}.cls-2{fill:#660269;}</style></defs><rect class="cls-1" width="64" height="64"/><path class="cls-2" d="m24.41,28.84h-10.12c-.28,0-.5.22-.5.5s.22.5.5.5h10.12c.28,0,.5-.22.5-.5s-.22-.5-.5-.5Zm0-1.57h-10.12c-.28,0-.5.22-.5.5s.22.5.5.5h10.12c.28,0,.5-.22.5-.5s-.22-.5-.5-.5Zm-10.62-1.07c0,.28.22.5.5.5h10.12c.28,0,.5-.22.5-.5s-.22-.5-.5-.5h-10.12c-.28,0-.5.22-.5.5Zm10.62,7.36h-10.12c-.28,0-.5.22-.5.5s.22.5.5.5h10.12c.28,0,.5-.22.5-.5s-.22-.5-.5-.5Zm0,4.72h-10.12c-.28,0-.5.22-.5.5s.22.5.5.5h10.12c.28,0,.5-.22.5-.5s-.22-.5-.5-.5Zm0-3.15h-10.12c-.28,0-.5.22-.5.5s.22.5.5.5h10.12c.28,0,.5-.22.5-.5s-.22-.5-.5-.5Zm0-4.72h-10.12c-.28,0-.5.22-.5.5s.22.5.5.5h10.12c.28,0,.5-.22.5-.5s-.22-.5-.5-.5Zm-10.12,2.57h4.25c.28,0,.5-.22.5-.5s-.22-.5-.5-.5h-4.25c-.28,0-.5.22-.5.5s.22.5.5.5Zm10.12,3.72h-10.12c-.28,0-.5.22-.5.5s.22.5.5.5h10.12c.28,0,.5-.22.5-.5s-.22-.5-.5-.5Zm-5.36,3.65c0-.28-.22-.5-.5-.5h-4.25c-.28,0-.5.22-.5.5s.22.5.5.5h4.25c.28,0,.5-.22.5-.5Zm33.12-13.64c-.35,0-.62.1-.82.31v-.24h-1v3.18h1v-1.75c0-.2.05-.36.15-.46.1-.1.23-.15.4-.15.08,0,.16.01.22.04.07.03.12.06.16.11l.6-.75c-.09-.1-.19-.17-.3-.21-.12-.05-.25-.07-.4-.07Zm-11.96.07c-.12-.05-.25-.07-.4-.07-.35,0-.62.1-.82.31v-.24h-1v3.18h1v-1.75c0-.2.05-.36.15-.46.1-.1.23-.15.4-.15.08,0,.16.01.22.04.07.03.12.06.16.11l.6-.75c-.09-.1-.19-.17-.3-.21Zm2.8,2.15c-.1.11-.21.19-.33.25-.13.05-.27.08-.43.08-.17,0-.32-.04-.44-.11-.12-.07-.22-.17-.29-.31-.02-.04-.03-.09-.05-.14h2.27c.02-.09.03-.16.04-.22,0-.06,0-.12,0-.18,0-.31-.07-.58-.21-.82-.14-.24-.33-.43-.57-.56-.24-.14-.52-.2-.83-.2s-.61.07-.87.22c-.26.14-.46.34-.61.59-.15.25-.23.54-.23.85s.08.6.23.86c.15.25.36.45.63.59.27.14.57.21.92.21.27,0,.51-.05.73-.14.22-.09.41-.23.57-.41l-.55-.55Zm-1.49-1.05c.06-.13.15-.23.27-.3.12-.07.25-.11.41-.11.15,0,.27.03.38.09.1.06.18.15.23.27.02.05.04.11.05.17h-1.38s.02-.09.04-.13Zm-2.67-2.78c.27.14.57.21.92.21.27,0,.51-.05.73-.14.22-.09.41-.23.57-.41l-.55-.55c-.1.11-.21.19-.33.25-.13.05-.27.08-.43.08-.17,0-.32-.04-.44-.11-.12-.07-.22-.17-.29-.31-.02-.04-.03-.09-.05-.14h2.27c.02-.09.03-.16.04-.22,0-.06,0-.12,0-.18,0-.31-.07-.58-.21-.82-.14-.24-.33-.43-.57-.56-.24-.14-.52-.2-.83-.2s-.61.07-.87.22c-.26.14-.46.34-.61.59-.15.25-.23.54-.23.85s.08.6.23.86c.15.25.36.45.63.59Zm.18-1.93c.06-.13.15-.23.27-.3.12-.07.25-.11.41-.11.15,0,.27.03.38.09.1.06.18.15.23.27.02.05.04.11.05.17h-1.38s.02-.09.04-.13Zm5.66,10.95c.13-.13.24-.25.31-.36.08-.11.13-.21.16-.32.03-.11.05-.23.05-.36,0-.2-.04-.37-.13-.52-.09-.15-.21-.27-.37-.35-.16-.08-.35-.13-.56-.13-.25,0-.47.06-.67.17s-.36.28-.49.5l.43.37c.1-.16.2-.28.31-.35.11-.07.24-.11.38-.11s.25.04.34.12c.09.08.13.18.13.32,0,.07-.01.14-.04.2-.02.07-.06.14-.12.21-.05.07-.12.16-.21.25l-1.23,1.29v.36h2.29v-.55h-1.31l.72-.73Zm2.99-1.83c-.21-.14-.44-.21-.7-.21s-.48.07-.69.21c-.21.14-.37.33-.49.59-.12.25-.18.55-.18.88s.06.63.18.89c.12.25.29.45.5.59.21.14.44.21.7.21s.48-.07.69-.21c.2-.14.37-.33.49-.59.12-.25.18-.55.18-.89s-.06-.64-.18-.89c-.12-.25-.28-.45-.49-.59Zm-.06,2.09c-.06.16-.15.29-.25.37-.11.08-.24.13-.39.13s-.28-.04-.39-.13c-.11-.08-.19-.21-.25-.37-.06-.16-.09-.37-.09-.62s.03-.45.09-.61c.06-.16.15-.29.25-.37.11-.08.24-.12.38-.12s.28.04.39.12c.11.08.2.21.26.37.06.16.09.37.09.61s-.03.45-.09.61Zm11.96-3.33c0-.1-.02-.2-.02-.27,0-.11,0-.21,0-.32,0-.14,0-.27,0-.36h0c-.01-3.16-.05-6.9-.25-10.68,0-.88-.42-1.68-1.12-2.14-.19-.12-.46-.3-.71-.46-.14-.09-.27-.18-.38-.24-1.45-.97-2.96-1.9-4.42-2.81-1.23-.76-2.51-1.55-3.73-2.36-.19-.13-.4-.23-.64-.28-.1-.07-.26-.1-.52-.1-.18,0-.25.02-.44.08h-.02s-.08.03-.1.03q-.07.02-.21.06l-.46.15c-2.97.92-6.07,1.85-8.45,2.55l-1.32.4-1.12.34c-.12.04-.18.06-.21.07h0c-.61.2-1.14.67-1.41,1.26-1.21,2.56-2.35,5.12-3.69,8.17l-.02.04c-.11.24-.23.51-.27.77-.16.83-.02,1.44.41,1.87,0,0,.8,1.12.8,1.12.89,1.25,2.14,2.95,3.35,4.59,1.23,1.67,2.51,3.41,3.41,4.67.03.04.1.2.17.36.07.16.14.3.17.35.38.56,1.01.93,1.68.98.04,0,.08,0,.13,0,.21,0,.49-.02.76-.04.26-.02.5-.04.68-.04.98-.02,2.05-.01,3.09-.01,1.23,0,2.51,0,3.66-.02.28-.01.55-.02.82-.03,1.05-.05,2.03-.09,3.1-.06.06,0,.12,0,.18.01l.19.02c.21.02.4.02.57,0,.29-.05.57-.16.81-.32.26-.16.47-.47.68-.76.1-.14.19-.28.29-.39l.92-1.02c.21-.26.56-.68.93-1.14.62-.77,1.34-1.64,1.68-2.07.03-.03.09-.11.16-.19.08-.1.18-.22.25-.31.04-.05.13-.12.19-.18.05-.05.08-.07.09-.08.23-.32.3-.49.35-.88,0-.06,0-.18-.01-.31Zm-1.46-.1c-.01.15-.04.33-.06.45,0,.04-.01.08-.01.1,0,0,0,.01,0,.02-.05.12-.14.34-.2.43l-.24.34c-.28.39-.61.85-.95,1.34-.76,1.07-1.63,2.29-2.25,3.15l-.05.06c-.22.26-.29.33-.51.53-.52.38-.65.45-1.08.46-.49.02-.98.04-1.45.07-.99.06-1.92.11-2.93.07-1.58-.03-3.41-.05-5.17-.08-.6,0-1.18-.01-1.72-.02-.13,0-.29,0-.46,0-.3,0-.64,0-.87-.02-.02,0-.04,0-.07,0-.32-.05-.62-.24-.81-.52,0,0-.03-.04-.05-.07-.03-.04-.06-.09-.07-.1-.06-.08-.16-.24-.27-.4-.12-.18-.24-.36-.31-.46-.82-1.22-1.84-2.75-2.94-4.38-.44-.68-.87-1.37-1.31-2.05-.88-1.38-1.71-2.69-2.42-3.75l-.03-.05c-.15-.22-.4-.59-.35-.83.01-.06.03-.12.06-.18,0-.02.02-.04.03-.06,0-.02.02-.04.03-.06,0-.01.01-.03.02-.04.02-.05.04-.09.06-.14,1.11-2.43,2.16-4.76,3.1-6.92.07-.17.15-.34.22-.5.12-.27.23-.53.33-.77.1-.25.3-.45.56-.56.39-.14.76-.28,1.12-.42.26-.1.51-.19.76-.28.1-.04.2-.07.3-.11.05-.02.1-.04.15-.05.14-.05.29-.11.43-.16.06-.02.12-.04.18-.07.05-.02.11-.04.16-.06.12-.04.24-.09.35-.13.62-.22,1.25-.44,1.95-.68.14-.05.28-.09.42-.14,0,0,0,0,.01,0,.59-.2,1.23-.4,1.93-.62l2.83-.92c.23-.07.43-.14.62-.21.51-.18.92-.33,1.32-.17.04.06.17.12.37.21.04.02.08.03.11.05.07.03.14.07.2.12l.26.2s0,0,0,0c.68.51,1.28.99,1.87,1.45.57.45,1.14.89,1.73,1.34.63.48,1.31.97,2.18,1.56l1.81,1.33c.69.66.74,1.87.74,1.89.25,2.11.28,3.87.32,5.57v.16c.02.56.03,1.08.05,1.58.05,1.28.09,2.39,0,3.52Zm-15.35-4.44v-1.47c.08.06.16.11.26.16.18.08.38.12.59.12.3,0,.57-.07.8-.22.23-.14.42-.34.55-.59.13-.25.2-.53.2-.85s-.07-.6-.2-.85c-.13-.25-.32-.45-.55-.59-.23-.14-.5-.22-.8-.22-.21,0-.41.04-.59.13-.09.04-.17.09-.24.15v-.22h-1v4.39c.13-.02.27-.04.41-.04.2,0,.4.03.57.07Zm.05-3.23c.06-.11.15-.2.25-.26.11-.06.23-.09.37-.09s.26.03.37.09c.11.06.19.15.25.26.06.11.09.24.09.39s-.03.27-.09.39c-.06.11-.15.2-.25.27s-.23.1-.38.1c-.14,0-.26-.03-.37-.1-.11-.07-.19-.15-.25-.27-.06-.11-.09-.24-.09-.39s.03-.28.09-.39Zm6.71,6.09c.13-.21.19-.46.19-.74v-1.84h-1v1.83c0,.17-.04.3-.13.39-.09.09-.2.14-.35.14-.1,0-.19-.02-.27-.07-.07-.04-.13-.1-.17-.18-.04-.08-.06-.17-.06-.28v-1.83h-1v1.85c0,.27.06.52.19.73.13.21.3.38.53.5.22.12.48.18.78.18s.55-.06.77-.18c.22-.12.4-.29.52-.5Zm3.42-7.73c.16,0,.29-.05.39-.16.1-.11.15-.24.15-.39s-.05-.29-.15-.39c-.1-.1-.23-.16-.39-.16s-.29.05-.39.16c-.1.1-.15.24-.15.39s.05.28.15.39c.1.11.23.16.39.16Zm-.5,3.62h1v-3.18h-1v3.18Zm-2.39,0c.18.05.37.07.55.07.4,0,.71-.09.95-.27.23-.18.35-.43.35-.74,0-.2-.04-.36-.11-.49-.07-.12-.17-.22-.29-.3-.12-.07-.24-.13-.37-.18-.13-.04-.26-.08-.37-.11-.12-.03-.21-.07-.29-.1-.07-.04-.11-.09-.11-.16,0-.06.03-.11.09-.14.06-.03.14-.05.26-.05s.24.02.36.07c.12.05.24.13.34.25l.57-.58c-.14-.18-.33-.32-.56-.42-.23-.09-.48-.14-.75-.14s-.48.04-.67.13c-.19.09-.34.21-.44.36-.1.15-.16.33-.16.53,0,.19.04.35.11.47.07.12.17.22.29.29.12.07.24.12.37.16.13.04.26.08.37.11.12.03.21.07.29.11.08.04.11.1.11.18,0,.06-.03.11-.09.14s-.15.05-.27.05c-.17,0-.33-.03-.47-.09-.14-.06-.27-.15-.37-.26l-.57.58c.11.12.24.22.4.31.15.09.32.16.5.21Zm-13.56-2.98c-.07-.06-.15-.11-.24-.15-.18-.08-.37-.12-.59-.12-.3,0-.57.07-.8.22-.23.14-.42.34-.55.59-.13.25-.2.53-.2.85s.07.6.2.85c.13.25.32.44.55.59.23.14.5.22.8.22.22,0,.42-.04.6-.13.09-.05.18-.1.26-.17v.24h.98v-4.75h-1v1.78Zm-.03,1.78c-.06.11-.14.2-.25.26-.1.06-.23.09-.37.09-.14,0-.26-.03-.37-.1s-.19-.15-.26-.27c-.06-.11-.09-.24-.09-.39s.03-.27.09-.39c.06-.11.15-.2.26-.27.11-.07.23-.1.37-.1s.26.03.37.1c.11.07.19.15.25.27.06.11.09.24.09.39s-.03.28-.09.39Zm13.73,9.91c-.13-.08-.27-.12-.43-.12-.12,0-.24.03-.34.08-.06.03-.11.09-.16.14v-.18h-.47v2.46h.47v-.91s.09.1.16.14c.1.05.21.08.34.08.16,0,.3-.04.43-.12.13-.08.23-.19.3-.32.07-.14.11-.29.11-.46s-.04-.33-.11-.46-.17-.24-.3-.32Zm-.13,1.03c-.04.07-.09.13-.16.17-.07.04-.14.06-.23.06s-.16-.02-.23-.06c-.07-.04-.12-.09-.15-.17-.04-.07-.06-.15-.06-.25s.02-.17.06-.24c.04-.07.09-.13.16-.17.07-.04.14-.06.23-.06s.16.02.23.06c.07.04.12.09.16.17.04.07.06.15.06.24s-.02.18-.06.25Zm-4.39-5.03v-2.33h.72v-.85h-.72v-1.31h-1v1.31h-.72v.85h.72v2.33h1Zm.66-4.86c.26.15.56.22.89.22s.63-.07.89-.22c.26-.15.47-.35.62-.6.15-.25.23-.54.23-.85s-.08-.6-.23-.85c-.15-.25-.36-.45-.62-.59-.26-.14-.56-.22-.89-.22s-.63.07-.89.22c-.26.15-.47.34-.62.59-.15.25-.23.53-.23.84s.08.6.23.85c.15.25.36.45.62.6Zm.26-1.84c.06-.11.15-.2.26-.26.11-.06.23-.09.37-.09s.27.03.38.09c.11.06.19.15.25.26.06.11.09.24.09.39s-.03.28-.09.4c-.06.12-.14.21-.25.27-.11.06-.24.09-.38.09s-.26-.03-.37-.09c-.11-.06-.19-.15-.26-.27-.06-.12-.09-.25-.09-.39s.03-.28.09-.39Zm9.02-2.51h-1v1.32h-.72v.85h.72v2.33h1v-2.33h.72v-.85h-.72v-1.32Zm.03,6.13c-.18-.11-.39-.17-.62-.17s-.46.05-.66.15c-.09.05-.16.1-.23.17v-.25h-1v3.18h1v-1.81c0-.11.02-.21.07-.29.05-.09.11-.15.2-.2.08-.05.18-.07.29-.07.16,0,.29.05.39.15.1.1.15.24.15.4v1.81h1v-2.03c0-.22-.05-.42-.16-.6-.1-.18-.25-.33-.43-.44Zm-33.01,18.56l-1.99-1.45c-.13-.09-.29-.12-.44-.08l-2.13.64c-.13.04-.24.13-.3.25l-.93,1.77c-.09.17-.07.37.04.52l1.73,2.41c.09.13.25.21.41.21h.02l2.42-.08c.15,0,.28-.08.38-.19l.96-1.21c.07-.09.11-.21.11-.32l-.05-2.06c0-.16-.08-.3-.21-.39Zm-1.45,3.19l-1.92.07-1.39-1.94.69-1.31,1.69-.5,1.59,1.16.04,1.64-.7.89Zm11.56-11.12l-6.45,6.45v-20.61h0c0-.09-.02-.17-.06-.24l-1.86-3.49c.31-.24.51-.62.51-1.04,0-.73-.59-1.32-1.32-1.32H7.13c-.73,0-1.32.59-1.32,1.32,0,.42.2.8.51,1.04l-1.86,3.49c-.04.07-.06.15-.06.24h0v28.36c0,.14.06.27.16.37l2.11,1.98c.09.09.21.13.34.13h16.65c.13,0,.25-.05.34-.13l2.11-1.98s0,0,0,0c0,0,.02-.02.03-.03.08-.09.13-.21.13-.34v-6.33l7.16-7.16c.2-.2.2-.51,0-.71s-.51-.2-.71,0ZM7.13,18.28h16.41c.17,0,.32.14.32.32s-.14.32-.32.32H7.13c-.17,0-.32-.14-.32-.32s.14-.32.32-.32Zm18.14,32.94h-12.46c-.28,0-.5.22-.5.5s.22.5.5.5h11.69l-1.04.98H7.21l-1.81-1.69v-27.64h6.17c.28,0,.5-.22.5-.5s-.22-.5-.5-.5h-5.84l1.58-2.95h16.05l1.58,2.95h-2.02c-.28,0-.5.22-.5.5s.22.5.5.5h2.35v27.35Z"/></svg>