<?xml version="1.0" encoding="UTF-8"?><svg id="Layer_1" xmlns="http://www.w3.org/2000/svg" viewBox="0 0 128 128"><defs><style>.cls-1{fill:none;}.cls-2{fill:#fff;}.cls-3{fill:#c6e236;}</style></defs><rect class="cls-1" width="128" height="128"/><path id="CS_CoinShape_RGB_Outline_Lime" class="cls-3" d="m88.45,22.81c1.89.98,3.78,1.76,5.49,2.62,4.39,2.2,8.19,4.11,11.8,6.5.49.32,1.03.74,1.4,1.01.13.1.23.18.31.24.01.02.03.03.04.05.4.45.76.94,1.08,1.45l.7,1.45c.8,1.65,1.75,3.61,2.76,5.67,2.21,4.53,4.71,9.67,6.46,13.33l.13.27c.35.88.63,1.78.83,2.7.31,2.46.31,3.01-.45,4.48-.85,1.68-1.65,3.36-2.42,4.99-1.55,3.4-3.26,6.72-5.15,9.95-3.02,5.25-6.44,11.34-9.75,17.23-1.12,1.99-2.21,3.92-3.24,5.75-.25.43-.55.97-.86,1.53-.56,1.01-1.2,2.15-1.66,2.9-.05.07-.1.14-.15.2-.78,1-1.95,1.64-3.21,1.76-.05,0-.19.02-.34.03-.2.02-.41.04-.47.04-.39.04-1.09.1-1.82.17-.82.08-1.67.15-2.12.2-5.6.5-12.63,1.14-20.13,1.82-3.08.22-6.2.42-9.3.63-6.27.41-12.19.81-17.06,1.24l-.23.02c-1.02.09-2.73.25-3.42-.35-.18-.15-.34-.32-.49-.51-.05-.07-.11-.13-.16-.2s-.1-.13-.15-.2c-.04-.05-.07-.1-.1-.14-.11-.16-.23-.32-.35-.47-6.11-8.21-12.02-15.99-17.57-23.12-.44-.56-.86-1.11-1.27-1.64-.69-.88-1.35-1.72-1.97-2.51-.65-.82-.95-1.87-.84-2.91.23-1.56.45-3.07.67-4.54.15-1.04.3-2.07.45-3.08.06-.4.12-.8.18-1.2.03-.2.06-.39.09-.59.08-.58.17-1.15.26-1.73.04-.25.07-.49.11-.74.03-.21.07-.43.1-.64.07-.47.15-.95.22-1.43.39-2.47.81-5.02,1.3-7.78.1-.55.2-1.11.3-1.68,0-.02,0-.04.01-.06.43-2.36.91-4.88,1.46-7.64l2.11-11.18c.2-.88.33-1.69.45-2.48.33-2.06.6-3.69,1.84-4.75.51-.18.98-.48,1.37-.86.13-.1.25-.2.37-.29.24-.18.49-.33.77-.46l1.16-.52h.01c2.97-1.34,5.67-2.5,8.3-3.62,2.57-1.1,5.08-2.18,7.68-3.35,2.75-1.23,5.68-2.61,9.26-4.45l7.8-3.64c3.49-1.11,7.65.94,7.7.97,6.58,2.73,13.03,5.79,19.31,9.16l.42.39h0Zm20.34,4.39c-.34-.14-.69-.29-.94-.43-.35-.2-.72-.39-1.07-.58-.47-.25-.91-.48-1.22-.66h0c-10.62-5.76-23.25-12.5-36.34-18.8-2.85-1.62-6.34-1.69-9.25-.19-.76.4-1.85.99-2.85,1.53-.56.3-1.09.59-1.51.82-5.91,3.1-11.84,6.45-17.57,9.7-4.83,2.73-9.83,5.56-14.78,8.21-.8.41-1.52.96-2.13,1.63-.58.38-1.03.92-1.29,1.56-.27.5-.46,1.05-.55,1.61v.06s-.11.39-.11.39c-.04.18-.1.45-.18.82l-.36,1.83c-2.35,11.66-4.95,23.79-6.95,33.06l-1.1,5.17-.91,4.41c-.1.49-.15.71-.16.82h-.01c-.43,2.48.16,5.02,1.64,7.06,6.37,8.75,12.87,17.28,20.67,27.41l.09.12c.6.86,1.31,1.64,2.11,2.32,2.5,2.05,4.8,2.72,7.03,2.06l5.24-.63c5.82-.69,13.83-1.78,21.58-2.82,7.89-1.07,16.05-2.17,21.96-2.87.5,0,1.01.03,1.51.08.49.05.98.08,1.47.08,2.6-.25,4.95-1.67,6.38-3.85.08-.13.16-.27.25-.43.39-.72.83-1.68,1.26-2.61.41-.9.8-1.75,1.13-2.35,1.74-3.32,3.73-6.92,5.65-10.41,2.28-4.14,4.64-8.42,6.66-12.34.48-.95.94-1.89,1.39-2.82,1.77-3.59,3.44-6.99,5.5-10.51.11-.2.24-.39.38-.59l.42-.6c.42-.59.76-1.24,1.01-1.92.37-1.06.52-2.2.43-3.32-.05-1.18-.69-2.45-1.31-3.68-.3-.6-.59-1.17-.79-1.69l-1.74-4.95c-.49-1.2-1.27-3.12-2.13-5.22-1.43-3.51-3.06-7.51-3.85-9.45-.06-.15-.2-.49-.36-.88-.18-.45-.4-.99-.59-1.43-.11-.31-.19-.64-.25-.96-.03-.16-.06-.31-.11-.47-.46-1.14-1.26-2.12-2.29-2.79-.34-.21-.69-.38-1.06-.52"/><path class="cls-2" d="m64.84,88.05h-.3c-.5-.1-1-.2-1.6-.5-.7-.3-1.6-.3-2.3,0-.5.2-1.6.2-2.5-.5-.9-.6-1.3-1.7-1.3-3.2v-10c.6-2.6.8-5.2.7-7.8,0-1-.2-2.1-.3-3.1-.3-1.7-.4-3.5-.4-5.3v-1.5c0-3.8.7-7.5,2-11.1l2.4-6.5v-2.3c0-.6.5-1,1-1h5c.3,0,.5.1.7.3s.3.4.3.7v2.2l2.4,5.9c.8,2,1.5,4,1.9,6.1s.6,4.2.6,6.3v.5c0,1.8-.1,3.8-.5,5.7-.2,1.3-.3,2.6-.3,3.8,0,2.3.2,4.6.8,6.9v10.1c0,1.5-.5,2.6-1.3,3.2-1,.7-2.2.5-2.7.4-.7-.3-1.5-.3-2.2,0-.9.5-1.6.7-2.1.7h0Zm-4.6-1.5h0Zm1.6-1.3c.7,0,1.3.1,1.9.4.6.2.9.3,1.1.3.1,0,.5,0,1.1-.3,1.2-.5,2.6-.5,3.8,0,.1,0,.5,0,.8-.2.4-.3.5-1.1.5-1.5v-9.8c-.5-2.4-.8-4.8-.8-7.3,0-1.4.1-2.8.3-4.1.3-1.9.4-3.7.4-5.4v-.5c0-2-.2-4-.6-5.9-.4-2-1-3.9-1.8-5.7l-2.5-6.1c0-.1-.1-.2-.1-.4v-1.5h-3v1.4c0,.1,0,.2-.1.3l-2.2,6.7c-1.2,3.4-1.9,6.9-1.9,10.4v1.5c0,1.7.1,3.4.4,5,.2,1.1.3,2.2.4,3.4.1,2.7-.1,5.5-.7,8.2v9.7c0,.5.1,1.3.5,1.6.2.2.6.2.7.2.5-.3,1.1-.4,1.8-.4h0Z"/><path class="cls-2" d="m71.84,61.85h-13.9c-.5,0-1-.5-1-1s.5-1,1-1h13.9c.5,0,1,.5,1,1s-.4,1-1,1Z"/><path class="cls-2" d="m71.34,66.05h-12.9c-.5,0-1-.5-1-1s.5-1,1-1h12.9c.5,0,1,.5,1,1s-.5,1-1,1Z"/><path class="cls-2" d="m71.34,70.35h-12.8c-.5,0-1-.5-1-1s.5-1,1-1h12.8c.5,0,1,.5,1,1s-.5,1-1,1Z"/></svg>