<?xml version="1.0" encoding="UTF-8"?><svg id="Layer_1" xmlns="http://www.w3.org/2000/svg" viewBox="0 0 128 128"><defs><style>.cls-1{fill:none;}.cls-2{fill:#fff;}.cls-3{fill:#c6e236;}</style></defs><rect class="cls-1" width="128" height="128"/><path id="CS_CoinShape_RGB_Outline_Lime" class="cls-3" d="m33.44,27.26c1.52-1.5,2.83-3.06,4.18-4.43,3.44-3.51,6.42-6.54,9.8-9.24.45-.37,1.02-.76,1.39-1.02.14-.1.24-.17.32-.22.02,0,.04-.02.06-.03.55-.24,1.12-.44,1.71-.58l1.59-.22c1.82-.26,3.97-.56,6.25-.89,4.99-.71,10.65-1.52,14.67-2.06l.29-.04c.94-.07,1.89-.05,2.83.04,2.43.46,2.96.63,4.13,1.81,1.34,1.32,2.7,2.6,4.01,3.83,2.76,2.51,5.4,5.17,7.9,7.95,4.08,4.48,8.82,9.61,13.41,14.56,1.55,1.67,3.06,3.3,4.48,4.84.34.37.75.82,1.19,1.29.79.84,1.68,1.8,2.25,2.47.05.07.1.13.15.2.71,1.05.96,2.36.69,3.6-.01.04-.04.18-.07.34-.04.19-.09.4-.1.46-.08.38-.24,1.07-.4,1.78-.18.81-.37,1.64-.46,2.08-1.24,5.48-2.79,12.37-4.43,19.72-.74,2.99-1.5,6.03-2.25,9.04-1.53,6.09-2.97,11.85-4.05,16.62l-.05.23c-.22,1-.6,2.67-1.38,3.15-.2.12-.41.23-.64.31-.08.03-.16.06-.24.09s-.16.05-.23.08c-.06.02-.11.04-.17.06-.19.06-.38.13-.55.19-9.69,3.31-18.9,6.55-27.39,9.64-.67.24-1.32.48-1.95.71-1.05.39-2.05.76-2.99,1.11-.98.37-2.07.34-3.03-.1-1.42-.7-2.78-1.37-4.11-2.03-.94-.46-1.87-.92-2.79-1.37-.36-.18-.73-.36-1.09-.54-.18-.09-.36-.18-.53-.26-.52-.26-1.04-.52-1.57-.78-.22-.11-.45-.22-.67-.34-.19-.1-.39-.19-.58-.29-.43-.21-.86-.43-1.29-.65-2.24-1.13-4.53-2.31-7.01-3.62-.49-.26-1-.53-1.51-.8-.02-.01-.03-.02-.05-.03-2.11-1.13-4.36-2.36-6.83-3.73l-9.99-5.44c-.78-.46-1.51-.83-2.22-1.19-1.86-.95-3.33-1.7-3.96-3.21-.02-.55-.15-1.08-.4-1.57-.06-.15-.11-.3-.16-.44-.1-.28-.17-.57-.2-.87l-.14-1.26h0c-.36-3.25-.64-6.18-.9-9.02-.26-2.78-.52-5.5-.84-8.34-.33-3-.75-6.2-1.4-10.17l-1.08-8.54c.01-3.66,3.24-6.99,3.28-7.03,4.62-5.43,9.5-10.63,14.64-15.57l.5-.28h-.02Zm10.41-18.01c-.24.28-.49.57-.7.76-.29.28-.59.57-.88.84-.38.37-.74.71-1.01.96h0c-8.74,8.35-19.02,18.3-29.03,28.84-2.42,2.22-3.55,5.51-3.01,8.75.15.85.38,2.06.58,3.18.12.62.22,1.21.31,1.69,1.14,6.58,2.52,13.25,3.85,19.7,1.12,5.44,2.28,11.06,3.29,16.58.15.89.45,1.75.9,2.53.18.67.56,1.26,1.09,1.71.4.41.86.75,1.37,1.01l.06.03.34.21c.16.1.4.24.73.42l1.63.9c10.38,5.81,21.13,12,29.34,16.75l4.58,2.63,3.92,2.22c.43.25.63.36.73.4h0c2.23,1.18,4.83,1.4,7.22.61,10.28-3.39,20.39-6.96,32.42-11.28l.14-.05c1-.31,1.96-.75,2.86-1.3,2.72-1.75,4.06-3.74,4.12-6.06l1.01-5.18c1.12-5.76,2.55-13.71,3.92-21.41,1.4-7.84,2.85-15.94,3.99-21.79.16-.48.34-.95.54-1.41.2-.45.38-.91.53-1.38.56-2.55-.07-5.22-1.71-7.25-.1-.12-.21-.24-.33-.37-.56-.6-1.34-1.3-2.1-2-.73-.67-1.43-1.3-1.89-1.8-2.63-2.67-5.45-5.67-8.18-8.57-3.24-3.44-6.59-6.99-9.7-10.12-.76-.74-1.51-1.47-2.26-2.19-2.88-2.78-5.6-5.41-8.32-8.46-.15-.17-.3-.35-.44-.54l-.44-.58c-.43-.58-.94-1.11-1.52-1.55-.9-.68-1.93-1.17-3.03-1.42-1.14-.31-2.55-.09-3.91.12-.67.1-1.29.2-1.85.23l-5.24.14c-1.29.1-3.36.26-5.62.43-3.78.29-8.09.61-10.18.77-.16.01-.53.04-.95.07-.49.04-1.06.08-1.54.12-.33,0-.66-.02-.99-.06-.16-.02-.32-.04-.48-.03-1.23.09-2.4.55-3.36,1.33-.3.26-.57.54-.82.85"/><path class="cls-2" d="m66.59,77.9h-16.6c-7.4,0-13.4-6-13.4-13.4,0-5.5,3.4-10.4,8.4-12.4,1.3-6.1,6.7-10.5,13-10.5,2.2,0,4.4.6,6.3,1.6,1.9-1,4.1-1.6,6.3-1.6,6.4,0,11.9,4.6,13.1,10.8,4.7,2.2,7.7,6.9,7.7,12.1,0,6.9-5.4,12.7-12.2,13.3-.6,0-1-.4-1.1-.9,0-.5.4-1,.9-1.1,5.8-.5,10.4-5.5,10.4-11.3,0-4.6-2.7-8.7-6.9-10.5-.3-.1-.6-.4-.6-.8-.8-5.5-5.7-9.6-11.2-9.6-2,0-4,.6-5.8,1.6-.3.2-.7.2-1,0-1.8-1-3.8-1.6-5.8-1.6-5.5,0-10.2,3.9-11.2,9.4-.1.4-.3.6-.7.8-4.6,1.6-7.6,5.9-7.6,10.7,0,6.3,5.1,11.4,11.4,11.4h16.5c.5,0,1,.5,1,1s-.4,1-.9,1h0Z"/><path class="cls-2" d="m72.89,89.3c-4.7,0-8.5-3.8-8.5-8.5,0-2.9,1.5-5.6,3.9-7.1v-19.1c0-2.5,2.1-4.6,4.6-4.6s4.6,2.1,4.6,4.6v19.1c2.4,1.6,3.9,4.2,3.9,7.1,0,4.7-3.8,8.5-8.5,8.5h0Zm0-37.3c-1.5,0-2.6,1.2-2.6,2.6v19.7c0,.4-.2.7-.5.9-2.1,1.2-3.3,3.3-3.3,5.7,0,3.6,2.9,6.5,6.5,6.5s6.5-2.9,6.5-6.5c0-2.4-1.3-4.5-3.3-5.7-.3-.2-.5-.5-.5-.9v-19.7c-.2-1.5-1.3-2.6-2.8-2.6h0Z"/><path class="cls-2" d="m72.89,79.6c-.5,0-1-.5-1-1v-22.5c0-.5.5-1,1-1s1,.5,1,1v22.5c0,.6-.5,1-1,1Z"/><path class="cls-2" d="m72.89,84.2c-1.8,0-3.3-1.5-3.3-3.3s1.5-3.3,3.3-3.3,3.3,1.5,3.3,3.3-1.5,3.3-3.3,3.3Zm0-4.6c-.7,0-1.3.6-1.3,1.3s.6,1.3,1.3,1.3,1.3-.6,1.3-1.3-.6-1.3-1.3-1.3Z"/></svg>