<svg width="65" height="90" viewBox="0 0 65 90" fill="none" xmlns="http://www.w3.org/2000/svg">
<g clip-path="url(#clip0_6_3097)">
<path d="M47.8 53.6H16C15.4 53.6 15 53.1 15 52.6V11C15 10.4 15.4 10 16 10H47.8C48.3 10 48.8 10.4 48.8 11V52.5C48.8 53.1 48.3 53.5 47.8 53.6ZM17 51.6H46.8V12H17V51.6Z" fill="#C6E236"/>
<path d="M47.8 32.2H16C15.4 32.2 15 31.7 15 31.2V11C15 10.4 15.4 10 16 10H47.8C48.3 10 48.8 10.4 48.8 11V31.2C48.8 31.8 48.3 32.2 47.8 32.2ZM17 30.2H46.8V12H17V30.2Z" fill="#C6E236"/>
<path d="M26.6 53.5999H16C15.4 53.5999 15 53.0999 15 52.5999V41.8999C15 41.3999 15.4 40.8999 16 40.8999H26.6C27.1 40.8999 27.6 41.3999 27.6 41.8999V52.5999C27.6 53.0999 27.1 53.5999 26.6 53.5999ZM17 51.5999H25.6V42.8999H17V51.5999Z" fill="#C6E236"/>
<path d="M37.1996 53.5999H26.5996C26.0996 53.5999 25.5996 53.0999 25.5996 52.5999V41.8999C25.5996 41.3999 26.0996 40.8999 26.5996 40.8999H37.1996C37.6996 40.8999 38.1996 41.3999 38.1996 41.8999V52.5999C38.1996 53.0999 37.7996 53.5999 37.1996 53.5999ZM27.5996 51.5999H36.1996V42.8999H27.5996V51.5999Z" fill="#C6E236"/>
<path d="M26.6 42.9H16C15.4 42.9 15 42.4 15 41.9V31.2C15 30.7 15.4 30.2 16 30.2H26.6C27.1 30.2 27.6 30.7 27.6 31.2V41.9C27.6 42.4 27.1 42.9 26.6 42.9ZM17 40.9H25.6V32.2H17V40.9Z" fill="#C6E236"/>
<path d="M37.1996 42.9H26.5996C26.0996 42.9 25.5996 42.4 25.5996 41.9V31.2C25.5996 30.7 26.0996 30.2 26.5996 30.2H37.1996C37.6996 30.2 38.1996 30.7 38.1996 31.2V41.9C38.1996 42.4 37.7996 42.9 37.1996 42.9ZM27.5996 40.9H36.1996V32.2H27.5996V40.9Z" fill="#C6E236"/>
<path d="M47.7992 53.5999H37.1992C36.6992 53.5999 36.1992 53.0999 36.1992 52.5999V31.2C36.1992 30.7 36.6992 30.2 37.1992 30.2H47.7992C48.2992 30.2 48.7992 30.7 48.7992 31.2V52.5C48.7992 53.1 48.2992 53.5999 47.7992 53.5999ZM38.1992 51.5999H46.7992V32.2H38.1992V51.5999Z" fill="#C6E236"/>
<path d="M43.8 28.8999H20C19.5 28.8999 19 28.3999 19 27.8999V14.3999C19 13.7999 19.5 13.3999 20 13.3999H43.8C44.3 13.3999 44.8 13.7999 44.8 14.3999V27.9999C44.8 28.4999 44.4 28.8999 43.8 28.8999ZM21 26.8999H42.8V15.3999H21V26.8999Z" fill="#C6E236"/>
<path d="M34.3 37.6001H29.5C29 37.6001 28.5 37.1001 28.5 36.6001C28.5 36.1001 29 35.6001 29.5 35.6001H34.3C34.8 35.6001 35.3 36.1001 35.3 36.6001C35.3 37.1001 34.8 37.6001 34.3 37.6001Z" fill="#C6E236"/>
<path d="M34.3 48.1001H29.5C29 48.1001 28.5 47.6001 28.5 47.1001C28.5 46.6001 29 46.1001 29.5 46.1001H34.3C34.8 46.1001 35.3 46.6001 35.3 47.1001C35.3 47.6001 34.8 48.1001 34.3 48.1001Z" fill="#C6E236"/>
<path d="M31.9004 45.7999C31.6004 45.7999 31.4004 45.6999 31.2004 45.4999C31.1004 45.3999 31.0004 45.3 31.0004 45.2C31.0004 45.1 30.9004 44.9999 30.9004 44.7999C30.9004 44.4999 31.0004 44.2999 31.2004 44.0999C31.5004 43.7999 31.9004 43.7 32.3004 43.9C32.4004 44 32.5004 43.9999 32.6004 44.0999C32.8004 44.2999 32.9004 44.4999 32.9004 44.7999C32.9004 44.8999 32.9004 45.1 32.8004 45.2C32.8004 45.3 32.7004 45.3999 32.6004 45.4999C32.5004 45.5999 32.4004 45.7 32.3004 45.7C32.2004 45.7 32.0004 45.7999 31.9004 45.7999Z" fill="#C6E236"/>
<path d="M31.9004 50.5C31.6004 50.5 31.4004 50.4 31.2004 50.2C31.1004 50.1 31.0004 50 31.0004 49.9C31.0004 49.8 30.9004 49.7 30.9004 49.5C30.9004 49.4 30.9004 49.2 31.0004 49.1C31.1004 49 31.1004 48.9 31.2004 48.8C31.6004 48.4 32.2004 48.4 32.6004 48.8C32.7004 48.9 32.8004 49 32.8004 49.1C32.8004 49.2 32.9004 49.3 32.9004 49.5C32.9004 49.6 32.9004 49.8 32.8004 49.9C32.8004 50 32.7004 50.1 32.6004 50.2C32.4004 50.4 32.2004 50.5 31.9004 50.5Z" fill="#C6E236"/>
<path d="M23.7004 37.6001H18.9004C18.4004 37.6001 17.9004 37.1001 17.9004 36.6001C17.9004 36.1001 18.4004 35.6001 18.9004 35.6001H23.7004C24.2004 35.6001 24.7004 36.1001 24.7004 36.6001C24.7004 37.1001 24.2004 37.6001 23.7004 37.6001Z" fill="#C6E236"/>
<path d="M21.3008 40C20.8008 40 20.3008 39.5 20.3008 39V34.2C20.3008 33.7 20.8008 33.2 21.3008 33.2C21.8008 33.2 22.3008 33.7 22.3008 34.2V39C22.3008 39.6 21.8008 40 21.3008 40Z" fill="#C6E236"/>
<path d="M22.9996 49.7999C22.6996 49.7999 22.4996 49.6999 22.2996 49.4999L18.8996 46.0999C18.4996 45.6999 18.4996 45.0999 18.8996 44.6999C19.2996 44.2999 19.8996 44.2999 20.2996 44.6999L23.6996 48.0999C24.0996 48.4999 24.0996 49.0999 23.6996 49.4999C23.4996 49.6999 23.1996 49.7999 22.9996 49.7999Z" fill="#C6E236"/>
<path d="M19.5996 49.7999C19.2996 49.7999 19.0996 49.6999 18.8996 49.4999C18.4996 49.0999 18.4996 48.4999 18.8996 48.0999L22.2996 44.6999C22.6996 44.2999 23.2996 44.2999 23.6996 44.6999C24.0996 45.0999 24.0996 45.6999 23.6996 46.0999L20.2996 49.4999C20.0996 49.6999 19.8996 49.7999 19.5996 49.7999Z" fill="#C6E236"/>
<path d="M45.3 41.5H40.5C40 41.5 39.5 41 39.5 40.5C39.5 40 40 39.5 40.5 39.5H45.3C45.8 39.5 46.3 40 46.3 40.5C46.3 41 45.8 41.5 45.3 41.5Z" fill="#C6E236"/>
<path d="M45.3 44.3H40.5C40 44.3 39.5 43.8 39.5 43.3C39.5 42.8 40 42.3 40.5 42.3H45.3C45.8 42.3 46.3 42.8 46.3 43.3C46.3 43.8 45.8 44.3 45.3 44.3Z" fill="#C6E236"/>
<path d="M0.160156 81.8101V73.3401H2.06016V81.8101H0.160156ZM1.62016 81.8101V80.1501H5.81016V81.8101H1.62016Z" fill="#C6E236"/>
<path d="M9.44977 81.9401C8.83977 81.9401 8.29977 81.8001 7.81977 81.5301C7.33977 81.2601 6.95977 80.8901 6.67977 80.4301C6.39977 79.9701 6.25977 79.4501 6.25977 78.8701C6.25977 78.2901 6.39977 77.7901 6.66977 77.3301C6.94977 76.8701 7.31977 76.5101 7.79977 76.2401C8.27977 75.9701 8.82976 75.8401 9.43976 75.8401C10.0498 75.8401 10.5798 75.9701 11.0698 76.2401C11.5498 76.5001 11.9398 76.8701 12.2198 77.3301C12.4998 77.7901 12.6398 78.3001 12.6398 78.8701C12.6398 79.4401 12.4998 79.9801 12.2198 80.4401C11.9398 80.9001 11.5598 81.2701 11.0798 81.5401C10.5998 81.8101 10.0598 81.9501 9.44977 81.9501V81.9401ZM9.44977 80.2601C9.70977 80.2601 9.92977 80.2001 10.1298 80.0901C10.3298 79.9801 10.4798 79.8201 10.5898 79.6001C10.6998 79.3901 10.7498 79.1501 10.7498 78.8701C10.7498 78.5901 10.6898 78.3701 10.5798 78.1701C10.4698 77.9701 10.3098 77.8101 10.1198 77.6901C9.91977 77.5701 9.69976 77.5201 9.43976 77.5201C9.17976 77.5201 8.95977 77.5801 8.75977 77.6901C8.55977 77.8101 8.39977 77.9701 8.28977 78.1801C8.17977 78.3901 8.11977 78.6201 8.11977 78.8801C8.11977 79.1501 8.17977 79.3901 8.28977 79.6101C8.39977 79.8301 8.55977 79.9801 8.75977 80.1001C8.95977 80.2101 9.18976 80.2701 9.43976 80.2701L9.44977 80.2601Z" fill="#C6E236"/>
<path d="M14.8501 81.81L12.8301 75.98H14.6401L15.9001 80.22H15.3601L16.7301 75.98H18.2401L19.6201 80.23H19.0701L20.3401 75.98H22.1501L20.1201 81.81H18.6101L17.2701 77.78H17.7301L16.3601 81.81H14.8501Z" fill="#C6E236"/>
<path d="M25.5996 81.9401C24.9696 81.9401 24.4096 81.8101 23.9196 81.5501C23.4296 81.2901 23.0496 80.9301 22.7696 80.4601C22.4896 80.0001 22.3496 79.4701 22.3496 78.8801C22.3496 78.2901 22.4896 77.7901 22.7596 77.3301C23.0296 76.8701 23.3996 76.5101 23.8796 76.2401C24.3496 75.9801 24.8796 75.8401 25.4796 75.8401C26.0796 75.8401 26.5796 75.9601 27.0196 76.2101C27.4596 76.4601 27.8096 76.8001 28.0596 77.2401C28.3196 77.6801 28.4396 78.1801 28.4396 78.7501C28.4396 78.8601 28.4396 78.9801 28.4196 79.0901C28.3996 79.2001 28.3796 79.3401 28.3396 79.4801L23.3196 79.5001V78.2301L27.5396 78.2101L26.7496 78.7501C26.7496 78.4201 26.6896 78.1501 26.5896 77.9301C26.4896 77.7101 26.3496 77.5401 26.1596 77.4201C25.9696 77.3001 25.7496 77.2401 25.4796 77.2401C25.1896 77.2401 24.9396 77.3101 24.7296 77.4401C24.5196 77.5801 24.3496 77.7601 24.2396 78.0001C24.1296 78.2401 24.0696 78.5301 24.0696 78.8601C24.0696 79.1901 24.1296 79.4901 24.2596 79.7401C24.3896 79.9901 24.5596 80.1801 24.7896 80.3101C25.0196 80.4401 25.2896 80.5101 25.5996 80.5101C25.8796 80.5101 26.1396 80.4601 26.3696 80.3601C26.5996 80.2601 26.8096 80.1101 26.9796 79.9101L27.9996 80.9201C27.7096 81.2601 27.3596 81.5201 26.9596 81.6801C26.5596 81.8401 26.0996 81.9301 25.5996 81.9301V81.9401Z" fill="#C6E236"/>
<path d="M29.291 81.8101V75.9801H31.141V81.8101H29.291ZM31.141 78.6201L30.371 78.0201C30.521 77.3301 30.781 76.8001 31.141 76.4201C31.501 76.0401 32.001 75.8601 32.631 75.8601C32.911 75.8601 33.161 75.9001 33.371 75.9901C33.581 76.0801 33.771 76.2001 33.931 76.3701L32.841 77.7601C32.771 77.6801 32.671 77.6201 32.551 77.5701C32.431 77.5201 32.291 77.5001 32.141 77.5001C31.831 77.5001 31.581 77.5901 31.401 77.7801C31.221 77.9701 31.131 78.2501 31.131 78.6301L31.141 78.6201Z" fill="#C6E236"/>
<path d="M39.7293 81.9401C39.1193 81.9401 38.5693 81.8101 38.0893 81.5401C37.5993 81.2801 37.2193 80.9101 36.9393 80.4501C36.6593 79.9901 36.5293 79.4701 36.5293 78.8901C36.5293 78.3101 36.6693 77.7801 36.9493 77.3201C37.2293 76.8601 37.6093 76.5001 38.0993 76.2301C38.5893 75.9701 39.1393 75.8301 39.7393 75.8301C40.1993 75.8301 40.6293 75.9101 41.0093 76.0601C41.3893 76.2201 41.7293 76.4501 42.0193 76.7501L40.8293 77.9501C40.6893 77.8001 40.5393 77.6901 40.3593 77.6101C40.1793 77.5401 39.9693 77.5001 39.7393 77.5001C39.4793 77.5001 39.2493 77.5601 39.0493 77.6701C38.8493 77.7901 38.6893 77.9501 38.5693 78.1501C38.4493 78.3501 38.3993 78.5901 38.3993 78.8501C38.3993 79.1101 38.4593 79.3601 38.5693 79.5701C38.6893 79.7801 38.8493 79.9401 39.0593 80.0601C39.2693 80.1801 39.4993 80.2301 39.7393 80.2301C39.9793 80.2301 40.1893 80.1901 40.3793 80.1101C40.5693 80.0301 40.7293 79.9101 40.8693 79.7601L42.0593 80.9401C41.7493 81.2601 41.3993 81.5001 41.0193 81.6701C40.6393 81.8401 40.2093 81.9201 39.7293 81.9201V81.9401Z" fill="#C6E236"/>
<path d="M45.5298 81.9401C44.9198 81.9401 44.3798 81.8001 43.8998 81.5301C43.4198 81.2601 43.0398 80.8901 42.7598 80.4301C42.4798 79.9701 42.3398 79.4501 42.3398 78.8701C42.3398 78.2901 42.4798 77.7901 42.7498 77.3301C43.0298 76.8701 43.3998 76.5101 43.8798 76.2401C44.3598 75.9701 44.9098 75.8401 45.5198 75.8401C46.1298 75.8401 46.6598 75.9701 47.1498 76.2401C47.6298 76.5001 48.0198 76.8701 48.2998 77.3301C48.5798 77.7901 48.7198 78.3001 48.7198 78.8701C48.7198 79.4401 48.5798 79.9801 48.2998 80.4401C48.0198 80.9001 47.6398 81.2701 47.1598 81.5401C46.6798 81.8101 46.1398 81.9501 45.5298 81.9501V81.9401ZM45.5298 80.2601C45.7898 80.2601 46.0098 80.2001 46.2098 80.0901C46.4098 79.9801 46.5598 79.8201 46.6698 79.6001C46.7798 79.3901 46.8298 79.1501 46.8298 78.8701C46.8298 78.5901 46.7698 78.3701 46.6598 78.1701C46.5498 77.9701 46.3898 77.8101 46.1998 77.6901C45.9998 77.5701 45.7798 77.5201 45.5198 77.5201C45.2598 77.5201 45.0398 77.5801 44.8398 77.6901C44.6398 77.8101 44.4798 77.9701 44.3698 78.1801C44.2598 78.3901 44.1998 78.6201 44.1998 78.8801C44.1998 79.1501 44.2598 79.3901 44.3698 79.6101C44.4798 79.8301 44.6398 79.9801 44.8398 80.1001C45.0398 80.2101 45.2698 80.2701 45.5198 80.2701L45.5298 80.2601Z" fill="#C6E236"/>
<path d="M51.7598 81.96C51.4198 81.96 51.0798 81.91 50.7398 81.82C50.3998 81.73 50.0998 81.6 49.8198 81.44C49.5398 81.28 49.2998 81.09 49.0898 80.87L50.1498 79.81C50.3498 80.02 50.5798 80.18 50.8398 80.3C51.0998 80.42 51.3898 80.47 51.7098 80.47C51.9098 80.47 52.0698 80.44 52.1798 80.37C52.2998 80.31 52.3498 80.21 52.3498 80.09C52.3498 79.95 52.2798 79.84 52.1498 79.77C52.0098 79.7 51.8398 79.64 51.6198 79.58C51.3998 79.52 51.1698 79.45 50.9298 79.38C50.6898 79.3 50.4598 79.2 50.2498 79.07C50.0398 78.94 49.8598 78.77 49.7198 78.54C49.5798 78.31 49.5198 78.02 49.5198 77.66C49.5198 77.3 49.6198 76.96 49.8098 76.68C49.9998 76.4 50.2698 76.19 50.6298 76.03C50.9798 75.87 51.3998 75.79 51.8898 75.79C52.3798 75.79 52.8298 75.88 53.2598 76.05C53.6898 76.22 54.0198 76.48 54.2798 76.81L53.2398 77.88C53.0598 77.66 52.8498 77.51 52.6198 77.42C52.3898 77.33 52.1698 77.28 51.9498 77.28C51.7298 77.28 51.5898 77.31 51.4798 77.38C51.3798 77.44 51.3198 77.53 51.3198 77.63C51.3198 77.75 51.3898 77.85 51.5298 77.92C51.6698 77.99 51.8498 78.06 52.0598 78.11C52.2698 78.17 52.4998 78.23 52.7398 78.31C52.9798 78.39 53.2098 78.49 53.4198 78.63C53.6398 78.77 53.8098 78.95 53.9498 79.18C54.0898 79.41 54.1498 79.71 54.1498 80.07C54.1498 80.64 53.9398 81.09 53.5098 81.43C53.0798 81.77 52.4998 81.94 51.7798 81.94L51.7598 81.96Z" fill="#C6E236"/>
<path d="M54.6406 77.5501V75.9801H59.1206V77.5501H54.6406ZM55.9506 81.8101V73.5701H57.8006V81.8101H55.9506Z" fill="#C6E236"/>
<path d="M61.92 81.96C61.58 81.96 61.24 81.91 60.9 81.82C60.56 81.73 60.26 81.6 59.98 81.44C59.7 81.28 59.46 81.09 59.25 80.87L60.31 79.81C60.51 80.02 60.74 80.18 61 80.3C61.26 80.42 61.55 80.47 61.87 80.47C62.07 80.47 62.23 80.44 62.34 80.37C62.46 80.31 62.51 80.21 62.51 80.09C62.51 79.95 62.44 79.84 62.31 79.77C62.17 79.7 62 79.64 61.78 79.58C61.56 79.52 61.33 79.45 61.09 79.38C60.85 79.3 60.62 79.2 60.41 79.07C60.2 78.94 60.02 78.77 59.88 78.54C59.74 78.31 59.68 78.02 59.68 77.66C59.68 77.3 59.78 76.96 59.97 76.68C60.16 76.4 60.43 76.19 60.79 76.03C61.14 75.87 61.56 75.79 62.05 75.79C62.54 75.79 62.99 75.88 63.42 76.05C63.85 76.22 64.18 76.48 64.44 76.81L63.4 77.88C63.22 77.66 63.01 77.51 62.78 77.42C62.55 77.33 62.33 77.28 62.11 77.28C61.89 77.28 61.75 77.31 61.64 77.38C61.54 77.44 61.48 77.53 61.48 77.63C61.48 77.75 61.55 77.85 61.69 77.92C61.83 77.99 62.01 78.06 62.22 78.11C62.43 78.17 62.66 78.23 62.9 78.31C63.14 78.39 63.37 78.49 63.58 78.63C63.8 78.77 63.97 78.95 64.11 79.18C64.25 79.41 64.31 79.71 64.31 80.07C64.31 80.64 64.1 81.09 63.67 81.43C63.24 81.77 62.66 81.94 61.94 81.94L61.92 81.96Z" fill="#C6E236"/>
</g>
<defs>
<clipPath id="clip0_6_3097">
<rect width="64.42" height="90" fill="white"/>
</clipPath>
</defs>
</svg>
