<?xml version="1.0" encoding="UTF-8"?><svg id="Layer_1" xmlns="http://www.w3.org/2000/svg" viewBox="0 0 128 128"><defs><style>.cls-1{fill:none;}.cls-2{fill:#c6e236;}.cls-3{fill:#cfd71f;}.cls-4{fill:#4c024f;}</style></defs><path id="CS_CoinShape_RGB_Fill_White" class="cls-4" d="m101.58,31.5c1.6,1.61,3.11,3.1,4.57,4.53,3.74,3.67,6.97,6.84,9.85,10.44.39.49.81,1.08,1.09,1.48.1.15.18.26.24.34,0,.02.02.04.03.07.26.59.47,1.2.62,1.82l.24,1.69c.27,1.94.6,4.23.95,6.66.76,5.32,1.62,11.35,2.2,15.63l.04.31c.07,1,.06,2.01-.04,3.01-.49,2.59-.67,3.15-1.92,4.4-1.41,1.43-2.77,2.87-4.08,4.27-2.77,2.95-5.39,5.73-8.47,8.41-4.77,4.34-10.23,9.4-15.52,14.29-1.78,1.65-3.52,3.26-5.16,4.78-.39.36-.87.8-1.37,1.27-.9.84-1.92,1.79-2.63,2.4-.07.05-.14.11-.22.16-1.12.76-2.51,1.03-3.83.73-.05-.01-.2-.04-.36-.08-.21-.04-.43-.09-.5-.11-.4-.09-1.14-.25-1.9-.42-.86-.19-1.75-.39-2.22-.49-5.84-1.32-13.18-2.97-21.01-4.72-3.19-.78-6.43-1.59-9.63-2.4-6.49-1.63-12.62-3.16-17.7-4.31l-.24-.05c-1.07-.24-2.85-.63-3.36-1.47-.13-.21-.24-.44-.33-.68-.03-.08-.06-.17-.1-.26s-.06-.17-.09-.25c-.02-.06-.04-.12-.06-.18-.07-.2-.13-.4-.2-.59-3.52-10.32-6.98-20.14-10.27-29.18-.26-.71-.51-1.4-.76-2.08-.41-1.12-.81-2.19-1.18-3.19-.39-1.05-.36-2.21.1-3.23.75-1.51,1.46-2.96,2.16-4.38.5-1.01.98-2,1.46-2.97.19-.39.38-.77.57-1.16.09-.19.19-.38.28-.57.28-.56.55-1.11.83-1.67.12-.24.24-.48.36-.72.1-.21.21-.41.31-.62.23-.46.46-.91.69-1.37,1.2-2.38,2.46-4.83,3.86-7.47.28-.53.57-1.06.85-1.61.01-.02.02-.04.03-.05,1.2-2.25,2.51-4.65,3.97-7.27l5.79-10.65c.49-.83.89-1.61,1.27-2.36,1.01-1.98,1.81-3.55,3.42-4.22.29.07.86-.12,1.67-.42.16-.06.32-.12.47-.17.3-.11.61-.18.93-.21l1.34-.15h.01c3.44-.38,6.57-.68,9.6-.96,2.97-.28,5.86-.55,8.88-.89,3.2-.35,6.61-.8,10.84-1.49l9.1-1.15c3.9.01,7.45,3.45,7.49,3.5,6.66,5.56,11.71,10.66,16.59,15.6l.44.45h0Z"/><path id="CS_CoinShape_RGB_Outline_Lime" class="cls-2" d="m100.58,32.52c1.55,1.56,3.15,2.92,4.56,4.3,3.61,3.55,6.73,6.61,9.52,10.09.38.47.78,1.05,1.05,1.43.1.14.17.25.23.33,0,.02.02.04.03.06.25.57.45,1.16.6,1.76l.23,1.64c.26,1.88.58,4.09.92,6.43.73,5.14,1.57,10.97,2.13,15.11l.04.3c.07.97.06,1.94-.04,2.91-.47,2.51-.65,3.05-1.86,4.25-1.36,1.38-2.68,2.78-3.95,4.13-2.59,2.85-5.32,5.56-8.18,8.13-4.61,4.2-9.89,9.08-15,13.81-1.72,1.6-3.4,3.15-4.99,4.62-.38.35-.84.78-1.33,1.23-.87.81-1.85,1.73-2.55,2.32-.07.05-.14.1-.21.15-1.09.74-2.43.99-3.71.71-.04-.01-.19-.04-.35-.07-.2-.04-.42-.09-.48-.11-.39-.09-1.1-.25-1.83-.41-.83-.19-1.69-.38-2.14-.48-5.65-1.28-12.74-2.87-20.31-4.57-3.08-.76-6.21-1.54-9.31-2.32-6.27-1.57-12.2-3.05-17.11-4.17l-.23-.05c-1.03-.23-2.76-.61-3.24-1.42-.13-.21-.23-.43-.32-.65-.03-.08-.06-.17-.09-.25s-.06-.16-.08-.24c-.02-.06-.04-.12-.06-.17-.06-.19-.13-.39-.2-.57-3.41-9.98-6.75-19.47-9.93-28.21-.25-.69-.49-1.36-.73-2.01-.4-1.08-.78-2.11-1.15-3.08-.38-1.01-.35-2.13.1-3.12.72-1.46,1.41-2.86,2.09-4.24.48-.97.95-1.93,1.42-2.88.18-.37.37-.75.55-1.12.09-.18.18-.37.27-.55.27-.54.53-1.08.8-1.62.11-.23.23-.46.35-.69.1-.2.2-.4.3-.6.22-.44.44-.88.67-1.33,1.16-2.3,2.38-4.67,3.73-7.22.27-.51.55-1.03.83-1.55.01-.02.02-.03.03-.05,1.16-2.18,2.43-4.5,3.84-7.03l5.6-10.29c.47-.8.86-1.55,1.23-2.28.98-1.91,1.75-3.43,3.3-4.08.28.07.83-.12,1.62-.41.16-.06.31-.11.45-.16.29-.1.59-.17.9-.2l1.3-.15h.01c3.33-.37,6.35-.65,9.28-.93,2.87-.27,5.66-.53,8.58-.86,3.09-.34,6.39-.77,10.48-1.44l8.79-1.11c3.77.01,7.2,3.34,7.24,3.38,6.43,5.37,11.32,10.31,16.04,15.08l.29.51h0Zm18.55,10.72c-.29-.25-.58-.51-.78-.72-.28-.3-.58-.61-.87-.9-.38-.39-.74-.76-.99-1.04h0c-8.6-9-18.85-19.59-29.7-29.89-2.29-2.49-5.68-3.66-9.01-3.1-.88.16-2.13.39-3.27.6-.64.12-1.25.23-1.74.32-6.77,1.17-13.64,2.59-20.29,3.96-5.6,1.16-11.39,2.35-17.08,3.39-.92.15-1.8.46-2.6.92-.48.06-1.03.42-1.76,1.13-.42.41-.78.88-1.04,1.41l-.03.06c-.1.17-.17.27-.22.35-.1.16-.24.41-.43.75l-.93,1.68c-5.98,10.7-12.36,21.77-17.25,30.22l-2.71,4.72-2.28,4.04c-.25.45-.37.65-.41.76h-.01c-1.2,2.29-1.42,4.97-.62,7.43,3.49,10.59,7.17,21.01,11.62,33.39l.05.15c.32,1.03.77,2.02,1.34,2.94,1.8,2.8,3.85,4.19,6.24,4.24l5.34,1.04c5.93,1.16,14.13,2.62,22.05,4.04,8.07,1.44,16.42,2.93,22.44,4.11.49.16.98.35,1.45.56.46.21.94.39,1.42.54,2.63.57,5.37-.07,7.47-1.76.12-.1.25-.22.38-.34.61-.58,1.34-1.38,2.05-2.16.69-.75,1.34-1.47,1.85-1.95,2.75-2.7,5.84-5.61,8.82-8.42,3.54-3.34,7.2-6.79,10.42-9.99.77-.78,1.52-1.56,2.26-2.33,2.87-2.96,5.58-5.76,8.71-8.56.17-.16.36-.31.55-.46l.6-.46c.6-.44,1.14-.97,1.6-1.56.7-.93,1.2-1.99,1.46-3.12.32-1.17.09-2.62-.12-4.02-.11-.69-.21-1.33-.24-1.91l-.15-5.4c-.1-1.33-.26-3.46-.44-5.79-.29-3.89-.63-8.33-.8-10.48-.01-.17-.04-.54-.07-.98-.04-.5-.08-1.09-.12-1.59,0-.34.02-.68.06-1.02.02-.16.04-.33.03-.49-.09-1.27-.57-2.47-1.37-3.46-.26-.31-.56-.59-.88-.84"/><rect class="cls-1" width="128" height="128"/><path class="cls-3" d="m65.37,93.4c-2.34,0-4.43-.78-5.99-2.48-1.56-1.56-2.34-3.65-2.34-5.86s.78-4.43,2.34-5.99c1.56-1.56,3.52-2.34,5.99-2.34,2.34,0,4.43.78,5.86,2.34,1.56,1.56,2.34,3.65,2.34,5.99s-.78,4.17-2.34,5.86c-1.43,1.69-3.39,2.61-5.86,2.48h0Zm0-13.94c-1.69,0-3,.52-4.04,1.56s-1.56,2.48-1.56,4.17c0,1.56.52,2.87,1.56,4.04,1.04,1.04,2.48,1.69,4.04,1.69,1.69,0,3-.52,4.04-1.69,1.04-1.17,1.56-2.48,1.56-4.04,0-1.69-.52-3-1.56-4.17-1.04-1.04-2.34-1.56-4.04-1.56h0Z"/><path class="cls-3" d="m69.93,73.21h-9.25c-.65,0-1.3-.52-1.3-1.3l-.65-14.46c0-.39.13-.65.39-.91.26-.26.65-.39.91-.39h3.26c1.04,0,1.95-.13,2.74-.52s1.3-.78,1.69-1.43.52-1.3.52-2.21-.26-1.69-.52-2.34c-.39-.65-.91-1.04-1.56-1.43-.65-.39-1.56-.52-2.61-.52-1.56,0-3,.52-4.3,1.43-1.3,1.04-2.48,2.34-3.39,4.04-.13.39-.52.65-.91.65s-.78,0-1.17-.39l-7.56-7.03c-.39-.39-.52-1.04-.26-1.56,1.56-3.13,4.04-5.73,7.03-7.82,3.13-1.95,6.77-3,11.07-3,3.52,0,6.64.78,9.38,2.21,2.74,1.43,4.82,3.52,6.38,6.12h0c1.56,2.61,2.34,5.47,2.34,8.6s-.65,6.12-1.95,8.34c-1.3,2.34-3.13,4.17-5.34,5.6-1.04.65-2.21,1.3-3.39,1.69l-.26,5.34c0,.78-.52,1.3-1.3,1.3h0Zm-7.95-2.61h6.77l.39-4.95c0-.52.39-.91.91-1.17,1.3-.52,2.61-1.04,3.65-1.82,1.95-1.3,3.39-2.87,4.56-4.69,1.04-1.95,1.56-4.3,1.56-7.03s-.65-5.08-1.95-7.29c-1.3-2.08-3.13-3.91-5.47-5.08-2.34-1.3-5.08-1.82-8.21-1.82-3.78,0-7.03.91-9.64,2.61-2.34,1.56-4.3,3.52-5.73,5.86l5.6,5.21c.91-1.43,1.95-2.61,3.26-3.52,1.82-1.3,3.78-1.95,5.86-1.95,1.43,0,2.74.26,3.78.78,1.04.52,1.95,1.3,2.61,2.34s.91,2.21.91,3.65-.26,2.61-.91,3.65-1.56,1.82-2.74,2.48c-1.17.52-2.48.78-3.91.78h-1.95c.13,0,.65,11.98.65,11.98Z"/></svg>