<?xml version="1.0" encoding="UTF-8"?><svg id="Layer_1" xmlns="http://www.w3.org/2000/svg" viewBox="0 0 128 128"><defs><style>.cls-1{fill:none;}.cls-2{fill:#fff;}.cls-3{fill:#c3d83d;}.cls-4,.cls-5{fill:#602a76;}.cls-5{fill-rule:evenodd;}</style></defs><rect class="cls-1" width="128" height="128"/><path class="cls-2" d="m90.63,102.09c.1-.3.3-.6.4-.8.2-.3.4-.6.5-.9.2-.4.4-.8.6-1h0c5.4-8.8,11.6-19.2,17.5-30.1,1.5-2.4,1.7-5.4.6-7.9-.3-.7-.8-1.6-1.2-2.5-.2-.5-.5-.9-.6-1.3-2.4-5.2-5-10.4-7.5-15.4-2.1-4.2-4.3-8.6-6.4-12.9-.3-.7-.7-1.3-1.3-1.9-.2-.4-.6-.7-1.3-1.2-.5-.3-.7-.4-1.3-.5h-.1c-.2,0-.3-.1-.3-.1q-.2-.1-.7-.2l-1.5-.4c-9.8-2.5-20-5.2-27.8-7.3l-4.3-1.2-3.7-1c-.4-.1-.6-.2-.7-.2h0c-2-.5-4.3-.1-6.1,1.1-7.7,5-15.3,10.2-24.2,16.4l-.1.1c-.7.5-1.5,1-2.1,1.7-1.9,2-2.5,4-2.1,5.9l.3,4.5c.3,5,.9,11.8,1.5,18.5.6,6.8,1.2,13.7,1.5,18.8,0,.2-.1.7-.1,1.3-.1.6-.1,1.1-.1,1.2.1,2.2,1.2,4.3,3,5.6.1.1.2.1.4.2.6.4,1.4.8,2.2,1.2.8.4,1.5.8,2,1.1,2.7,1.6,5.7,3.5,8.6,5.3,3.4,2.1,7,4.3,10.2,6.2.8.4,1.6.9,2.3,1.3,3,1.7,5.8,3.2,8.7,5.1.2.1.3.2.5.3l.5.4c.5.4,1.1.7,1.6.9.9.4,1.9.5,2.8.5,1,0,2.1-.5,3.2-1,.5-.2,1-.5,1.5-.6l4.3-1.3c1-.4,2.7-.9,4.5-1.6,3-1.1,6.5-2.3,8.2-2.9.1,0,.4-.1.8-.3.4-.1.9-.3,1.2-.4.2-.1.6-.1.8-.2.2,0,.3-.1.4-.1,1.2-.5,1.7-.9,2.5-1.8.1.1.2-.3.4-.6"/><path class="cls-3" d="m95.33,85.09c-.9,1.6-1.8,3-2.6,4.5-2.1,3.6-3.8,6.8-6,9.8-.3.4-.7.8-.9,1.1-.1.1-.2.2-.2.3h0c-.3.3-1,.7-1.3.9l-1.3.5c-1.4.6-3.1,1.3-4.9,2.1-4,1.7-8.4,3.6-11.6,4.9l-.2.1c-1.1.3-1.4.4-2.3.6-2.1.2-2.6.1-3.8-.6-1.4-.8-2.8-1.5-4.1-2.3-2.8-1.5-5.5-3-8.2-4.8-4.3-2.8-9.4-6-14.2-9-1.6-1-3.2-2-4.8-3-.4-.2-.8-.5-1.3-.8-.8-.5-1.8-1.1-2.4-1.5-.1,0-.1-.1-.2-.1-.8-.7-1.3-1.7-1.4-2.8v-.7c0-.3,0-.9-.1-1.6,0-.7-.1-1.4-.1-1.8-.2-4.8-.4-10.8-.7-17.2-.1-2.6-.1-5.3-.1-7.9-.1-5.3-.2-10.4-.3-14.6v-.2c0-.9-.1-2.3.4-2.9.1-.1.3-.3.5-.4.1,0,.1-.1.2-.1s.1-.1.2-.1l.1-.1c.1-.1.3-.2.4-.3,7.2-4.8,14.1-9.5,20.4-14,.5-.3,1-.7,1.4-1,.8-.5,1.5-1.1,2.2-1.6s1.6-.7,2.5-.6c1.3.3,2.6.5,3.8.8.9.2,1.7.3,2.6.5.3.1.7.1,1,.2.2,0,.3.1.5.1.5.1,1,.2,1.5.3.2,0,.4.1.6.1s.4.1.5.1c.4.1.8.2,1.2.3,2.1.4,4.2.9,6.6,1.4.5.1.9.2,1.4.3h0c2,.5,4.1,1,6.4,1.6l9.4,2.3c.7.2,1.4.4,2.1.5,1.7.4,3.1.7,4,1.8,0,.2.3.6.7,1.2.1.1.2.2.2.3.1.2.3.4.4.7l.4,1h0c1,2.6,1.9,4.9,2.7,7.2.8,2.2,1.6,4.4,2.5,6.7.9,2.4,2,4.9,3.4,8.1l2.8,6.8c.8,3-1.1,6.5-1.2,6.5-2.9,6.3-5.8,11.2-8.6,16l-.2.4Zm-4.7,17c.1-.3.3-.6.4-.8.2-.3.4-.6.5-.9.2-.4.4-.8.6-1h0c5.4-8.8,11.6-19.2,17.5-30.1,1.5-2.4,1.7-5.4.6-7.9-.3-.7-.8-1.6-1.2-2.5-.2-.5-.5-.9-.6-1.3-2.4-5.2-5-10.4-7.5-15.4-2.1-4.2-4.3-8.6-6.4-12.9-.3-.7-.7-1.3-1.3-1.9-.2-.4-.6-.7-1.3-1.2-.5-.3-.7-.4-1.3-.5h-.1c-.2,0-.3-.1-.3-.1q-.2-.1-.7-.2l-1.5-.4c-9.8-2.5-20-5.2-27.8-7.3l-4.3-1.2-3.7-1c-.4-.1-.6-.2-.7-.2h0c-2-.5-4.3-.1-6.1,1.1-7.7,5-15.3,10.2-24.2,16.4l-.1.1c-.7.5-1.5,1-2.1,1.7-1.9,2-2.5,4-2.1,5.9l.3,4.5c.3,5,.9,11.8,1.5,18.5.6,6.8,1.2,13.7,1.5,18.8,0,.2-.1.7-.1,1.3-.1.6-.1,1.1-.1,1.2.1,2.2,1.2,4.3,3,5.6.1.1.2.1.4.2.6.4,1.4.8,2.2,1.2.8.4,1.5.8,2,1.1,2.7,1.6,5.7,3.5,8.6,5.3,3.4,2.1,7,4.3,10.2,6.2.8.4,1.6.9,2.3,1.3,3,1.7,5.8,3.2,8.7,5.1.2.1.3.2.5.3l.5.4c.5.4,1.1.7,1.6.9.9.4,1.9.5,2.8.5,1,0,2.1-.5,3.2-1,.5-.2,1-.5,1.5-.6l4.3-1.3c1-.4,2.7-.9,4.5-1.6,3-1.1,6.5-2.3,8.2-2.9.1,0,.4-.1.8-.3.4-.1.9-.3,1.2-.4.2-.1.6-.1.8-.2.2,0,.3-.1.4-.1,1.2-.5,1.7-.9,2.5-1.8.1.1.2-.3.4-.6"/><path class="cls-5" d="m63.53,77.39l-3.9,2,3.9,2v-1h7.8v-2h-7.8v-1Zm0-31.8l-3.9,2,3.9,2v-1h7.8v-2h-7.8v-1Zm20.2,18.1l-3.9-2v1h-7.8v2h7.8v1l3.9-2Z"/><path class="cls-4" d="m37.83,90.99c-1.62,0-3.3-1.69-3.3-4.53v-35.97c0-1.86,4.5-6.7,5.7-8v-2.9h-1.9v-5.9c0-2.14,2.6-2.7,2.6-2.7h9.7s2.2.65,2.2,2.7v5.9h-1.9c-.1,1.4-.2,2.2-.1,2.6.8,1,6.1,6.4,6.1,8.3v35.97c0,2.73-1.16,4.53-2.35,4.53h-16.75Zm.6-1.8h14.74c1.8,0,1.76-2.62,1.76-3.9s.1-20.4,0-34.4c-2.2-2.8-5.3-6.9-5.7-7.3-.2-.3-.8-.9-.3-5.5l.1-.52h1.7v-3.28c0-1.1-1-1.1-1-1.1h-8.4s-1,.09-1,1.1v3.3h2v5.7l-.3.3c-1.3,1.4-4.8,5.3-5.5,7.3v34.4c0,1.07,0,3.9,1.9,3.9Zm11.8-56.1h0Z"/><rect class="cls-4" x="35.73" y="76.29" width="20.5" height="2"/><rect class="cls-4" x="35.73" y="58.99" width="20.5" height="2"/><rect class="cls-4" x="39.83" y="37.57" width="12" height="2"/><path class="cls-4" d="m46.33,43.8c-1,0-.89-.8-2.4-.8s-1.3.2-2.1.7l-1.1-1.7c.4-.3,2.36-1.86,3.86-.96.8.4.86.56,2.04.56s2.6-1,3.6-.4l-1,1.8c-.2-.1-.9,0-1.5.4-.4.2-.9.4-1.4.4Z"/><path class="cls-4" d="m52.73,87.49h-3.9c-.6,0-1-.5-1-1,0-.6.5-1,1-1h2.9v-2.8c0-.6.5-1,1-1s1,.5,1,1v3.7c0,.6-.5,1.1-1,1.1Z"/><path class="cls-4" d="m92.13,71.39c-3.8,0-6.9-3.1-6.9-6.9s3.1-6.9,6.9-6.9,6.9,3.1,6.9,6.9-3.1,6.9-6.9,6.9Zm0-11.7c-2.7,0-4.8,2.2-4.8,4.8s2.2,4.8,4.8,4.8,4.8-2.2,4.8-4.8-2.2-4.8-4.8-4.8Z"/><path class="cls-4" d="m94.17,63.06c-.18-.34-.43-.6-.74-.8-.32-.2-.67-.3-1.06-.3-.32,0-.61.07-.87.2-.23.12-.42.29-.57.49v-.6h-.81v6.07h.81v-2.39c.15.2.33.37.56.49.26.13.55.2.88.2.39,0,.74-.1,1.06-.29.32-.2.56-.46.74-.8.18-.34.27-.71.27-1.13s-.09-.8-.27-1.13Zm-.74,1.88c-.12.22-.28.39-.48.52s-.44.19-.71.19-.5-.06-.71-.19-.37-.3-.48-.52c-.11-.22-.17-.47-.17-.75s.06-.54.17-.76c.11-.22.27-.39.48-.52s.44-.19.7-.19.51.06.71.19.36.3.48.52c.12.22.17.47.17.75s-.06.54-.17.76Z"/><path class="cls-4" d="m86.18,57.75c-3.8,0-6.9-3.1-6.9-6.9s3.1-6.9,6.9-6.9,6.9,3.1,6.9,6.9-3.1,6.9-6.9,6.9Zm0-11.7c-2.7,0-4.8,2.2-4.8,4.8s2.2,4.8,4.8,4.8,4.8-2.2,4.8-4.8-2.2-4.8-4.8-4.8Z"/><path class="cls-4" d="m88.23,49.42c-.18-.34-.43-.6-.74-.8-.32-.2-.67-.3-1.06-.3-.32,0-.61.07-.87.2-.23.12-.42.29-.57.49v-.6h-.81v6.07h.81v-2.39c.15.2.33.37.56.49.26.13.55.2.88.2.39,0,.74-.1,1.06-.29.32-.2.56-.46.74-.8.18-.34.27-.71.27-1.13s-.09-.8-.27-1.13Zm-.74,1.88c-.12.22-.28.39-.48.52s-.44.19-.71.19-.5-.06-.71-.19-.37-.3-.48-.52c-.11-.22-.17-.47-.17-.75s.06-.54.17-.76c.11-.22.27-.39.48-.52s.44-.19.7-.19.51.06.71.19.36.3.48.52c.12.22.17.47.17.75s-.06.54-.17.76Z"/><path class="cls-4" d="m82.63,83.19c-3.8,0-6.9-3.1-6.9-6.9s3.1-6.9,6.9-6.9,6.9,3.1,6.9,6.9-3.1,6.9-6.9,6.9Zm0-11.7c-2.7,0-4.8,2.2-4.8,4.8s2.2,4.8,4.8,4.8,4.8-2.2,4.8-4.8-2.2-4.8-4.8-4.8Z"/><path class="cls-4" d="m84.67,74.86c-.18-.34-.43-.6-.74-.8-.32-.2-.67-.3-1.06-.3-.32,0-.61.07-.87.2-.23.12-.42.29-.57.49v-.6h-.81v6.07h.81v-2.39c.15.2.33.37.56.49.26.13.55.2.88.2.39,0,.74-.1,1.06-.29.32-.2.56-.46.74-.8.18-.34.27-.71.27-1.13s-.09-.8-.27-1.13Zm-.74,1.88c-.12.22-.28.39-.48.52s-.44.19-.71.19-.5-.06-.71-.19-.37-.3-.48-.52c-.11-.22-.17-.47-.17-.75s.06-.54.17-.76c.11-.22.27-.39.48-.52s.44-.19.7-.19.51.06.71.19.36.3.48.52c.12.22.17.47.17.75s-.06.54-.17.76Z"/></svg>