<svg width="64" height="90" viewBox="0 0 64 90" fill="none" xmlns="http://www.w3.org/2000/svg">
<g clip-path="url(#clip0_6_3082)">
<path d="M43.1008 8.62005L19.8008 7.32006L17.5008 7.22005C17.0008 7.12005 16.7008 7.42005 16.5008 7.72005L13.7008 13.1201C13.5008 13.4201 13.5008 13.8201 13.7008 14.1201C13.9008 14.4201 14.2008 14.6201 14.6008 14.6201H15.2008L19.5008 55.0201C19.6008 55.5201 20.0008 55.9201 20.5008 55.9201H32.7008C33.3008 55.9201 33.7008 55.4201 33.6008 54.9201C33.6008 49.7201 37.8008 45.5201 43.0008 45.5201C43.5008 45.5201 44.0008 45.0201 44.0008 44.5201V14.9201C45.3008 14.5201 46.3008 13.3201 46.3008 11.8201C46.3008 10.0201 44.9008 8.62005 43.1008 8.62005ZM18.0008 9.22006L19.6008 9.32005H19.7008L40.2008 10.4201C40.0008 10.8201 39.9008 11.3201 39.9008 11.8201C39.9008 12.1201 39.9008 12.3201 40.0008 12.6201H16.3008L18.0008 9.22006ZM31.7008 53.9201H21.4008L17.2008 14.6201H41.5008C41.6008 14.7201 41.8008 14.7201 41.9008 14.8201V43.6201C36.6008 44.1201 32.2008 48.4201 31.7008 53.9201ZM43.1008 13.0201C42.4008 13.0201 41.9008 12.5201 41.9008 11.8201C41.9008 11.1201 42.4008 10.6201 43.1008 10.6201C43.8008 10.6201 44.3008 11.1201 44.3008 11.8201C44.3008 12.5201 43.8008 13.0201 43.1008 13.0201Z" fill="#C6E236"/>
<path d="M40.2008 47.22C37.5008 47.22 35.3008 49.42 35.3008 52.12C35.3008 54.82 37.5008 57.02 40.2008 57.02C42.9008 57.02 45.1008 54.82 45.1008 52.12C45.1008 49.42 42.9008 47.22 40.2008 47.22ZM40.2008 54.92C38.6008 54.92 37.3008 53.62 37.3008 52.02C37.3008 50.42 38.6008 49.12 40.2008 49.12C41.8008 49.12 43.1008 50.42 43.1008 52.02C43.1008 53.62 41.8008 54.92 40.2008 54.92Z" fill="#C6E236"/>
<path d="M6.30078 81.8101V73.3401H8.20078V81.8101H6.30078ZM7.76078 81.8101V80.1501H11.9508V81.8101H7.76078Z" fill="#C6E236"/>
<path d="M15.6406 81.9401C15.0106 81.9401 14.4506 81.8101 13.9606 81.5501C13.4706 81.2901 13.0906 80.9301 12.8106 80.4601C12.5306 80.0001 12.3906 79.4701 12.3906 78.8801C12.3906 78.2901 12.5306 77.7901 12.8006 77.3301C13.0706 76.8701 13.4406 76.5101 13.9206 76.2401C14.3906 75.9801 14.9206 75.8401 15.5206 75.8401C16.1206 75.8401 16.6206 75.9601 17.0606 76.2101C17.5006 76.4601 17.8506 76.8001 18.1006 77.2401C18.3606 77.6801 18.4806 78.1801 18.4806 78.7501C18.4806 78.8601 18.4806 78.9801 18.4606 79.0901C18.4406 79.2001 18.4206 79.3401 18.3806 79.4801L13.3606 79.5001V78.2301L17.5806 78.2101L16.7906 78.7501C16.7906 78.4201 16.7306 78.1501 16.6306 77.9301C16.5306 77.7101 16.3906 77.5401 16.2006 77.4201C16.0106 77.3001 15.7906 77.2401 15.5206 77.2401C15.2306 77.2401 14.9806 77.3101 14.7706 77.4401C14.5606 77.5801 14.3906 77.7601 14.2806 78.0001C14.1706 78.2401 14.1106 78.5301 14.1106 78.8601C14.1106 79.1901 14.1706 79.4901 14.3006 79.7401C14.4306 79.9901 14.6006 80.1801 14.8306 80.3101C15.0606 80.4401 15.3306 80.5101 15.6406 80.5101C15.9206 80.5101 16.1806 80.4601 16.4106 80.3601C16.6406 80.2601 16.8506 80.1101 17.0206 79.9101L18.0406 80.9201C17.7506 81.2601 17.4006 81.5201 17.0006 81.6801C16.6006 81.8401 16.1406 81.9301 15.6406 81.9301V81.9401Z" fill="#C6E236"/>
<path d="M21.4805 81.96C21.1405 81.96 20.8005 81.91 20.4605 81.82C20.1205 81.73 19.8205 81.6 19.5405 81.44C19.2605 81.28 19.0205 81.09 18.8105 80.87L19.8705 79.81C20.0705 80.02 20.3005 80.18 20.5605 80.3C20.8205 80.42 21.1105 80.47 21.4305 80.47C21.6305 80.47 21.7905 80.44 21.9005 80.37C22.0205 80.31 22.0705 80.21 22.0705 80.09C22.0705 79.95 22.0005 79.84 21.8705 79.77C21.7305 79.7 21.5605 79.64 21.3405 79.58C21.1205 79.52 20.8905 79.45 20.6505 79.38C20.4105 79.3 20.1805 79.2 19.9705 79.07C19.7605 78.94 19.5805 78.77 19.4405 78.54C19.3005 78.31 19.2405 78.02 19.2405 77.66C19.2405 77.3 19.3405 76.96 19.5305 76.68C19.7205 76.4 19.9905 76.19 20.3505 76.03C20.7005 75.87 21.1205 75.79 21.6105 75.79C22.1005 75.79 22.5505 75.88 22.9805 76.05C23.4105 76.22 23.7405 76.48 24.0005 76.81L22.9605 77.88C22.7805 77.66 22.5705 77.51 22.3405 77.42C22.1105 77.33 21.8905 77.28 21.6705 77.28C21.4505 77.28 21.3105 77.31 21.2005 77.38C21.1005 77.44 21.0405 77.53 21.0405 77.63C21.0405 77.75 21.1105 77.85 21.2505 77.92C21.3905 77.99 21.5705 78.06 21.7805 78.11C21.9905 78.17 22.2205 78.23 22.4605 78.31C22.7005 78.39 22.9305 78.49 23.1405 78.63C23.3605 78.77 23.5305 78.95 23.6705 79.18C23.8105 79.41 23.8705 79.71 23.8705 80.07C23.8705 80.64 23.6605 81.09 23.2305 81.43C22.8005 81.77 22.2205 81.94 21.5005 81.94L21.4805 81.96Z" fill="#C6E236"/>
<path d="M26.9708 81.96C26.6308 81.96 26.2908 81.91 25.9508 81.82C25.6108 81.73 25.3108 81.6 25.0308 81.44C24.7508 81.28 24.5108 81.09 24.3008 80.87L25.3608 79.81C25.5608 80.02 25.7908 80.18 26.0508 80.3C26.3108 80.42 26.6008 80.47 26.9208 80.47C27.1208 80.47 27.2808 80.44 27.3908 80.37C27.5108 80.31 27.5608 80.21 27.5608 80.09C27.5608 79.95 27.4908 79.84 27.3608 79.77C27.2208 79.7 27.0508 79.64 26.8308 79.58C26.6108 79.52 26.3808 79.45 26.1408 79.38C25.9008 79.3 25.6708 79.2 25.4608 79.07C25.2508 78.94 25.0708 78.77 24.9308 78.54C24.7908 78.31 24.7308 78.02 24.7308 77.66C24.7308 77.3 24.8308 76.96 25.0208 76.68C25.2108 76.4 25.4808 76.19 25.8408 76.03C26.1908 75.87 26.6108 75.79 27.1008 75.79C27.5908 75.79 28.0408 75.88 28.4708 76.05C28.9008 76.22 29.2308 76.48 29.4908 76.81L28.4508 77.88C28.2708 77.66 28.0608 77.51 27.8308 77.42C27.6008 77.33 27.3808 77.28 27.1608 77.28C26.9408 77.28 26.8008 77.31 26.6908 77.38C26.5908 77.44 26.5308 77.53 26.5308 77.63C26.5308 77.75 26.6008 77.85 26.7408 77.92C26.8808 77.99 27.0608 78.06 27.2708 78.11C27.4808 78.17 27.7108 78.23 27.9508 78.31C28.1908 78.39 28.4208 78.49 28.6308 78.63C28.8508 78.77 29.0208 78.95 29.1608 79.18C29.3008 79.41 29.3608 79.71 29.3608 80.07C29.3608 80.64 29.1508 81.09 28.7208 81.43C28.2908 81.77 27.7108 81.94 26.9908 81.94L26.9708 81.96Z" fill="#C6E236"/>
<path d="M32.6113 81.8101V73.1001H34.4613V81.8101H32.6113Z" fill="#C6E236"/>
<path d="M36.6816 75.1801C36.4016 75.1801 36.1616 75.0801 35.9716 74.8801C35.7816 74.6801 35.6816 74.4401 35.6816 74.1601C35.6816 73.8801 35.7816 73.6301 35.9716 73.4401C36.1616 73.2501 36.4016 73.1501 36.6816 73.1501C36.9816 73.1501 37.2116 73.2501 37.3916 73.4401C37.5716 73.6301 37.6616 73.8701 37.6616 74.1601C37.6616 74.4501 37.5716 74.6801 37.3916 74.8801C37.2116 75.0801 36.9716 75.1801 36.6816 75.1801ZM35.7616 81.8001V75.9701H37.6116V81.8001H35.7616Z" fill="#C6E236"/>
<path d="M38.4004 77.5501V75.9801H46.5804V77.5501H38.4004ZM39.7104 81.8101V73.5701H41.5704V81.8101H39.7104ZM43.4304 81.8101V73.5701H45.2704V81.8101H43.4304Z" fill="#C6E236"/>
<path d="M50.1211 81.9401C49.4911 81.9401 48.9311 81.8101 48.4411 81.5501C47.9511 81.2901 47.5711 80.9301 47.2911 80.4601C47.0111 80.0001 46.8711 79.4701 46.8711 78.8801C46.8711 78.2901 47.0111 77.7901 47.2811 77.3301C47.5511 76.8701 47.9211 76.5101 48.4011 76.2401C48.8711 75.9801 49.4011 75.8401 50.0011 75.8401C50.6011 75.8401 51.1011 75.9601 51.5411 76.2101C51.9811 76.4601 52.3311 76.8001 52.5811 77.2401C52.8411 77.6801 52.9611 78.1801 52.9611 78.7501C52.9611 78.8601 52.9611 78.9801 52.9411 79.0901C52.9211 79.2001 52.9011 79.3401 52.8611 79.4801L47.8411 79.5001V78.2301L52.0611 78.2101L51.2711 78.7501C51.2711 78.4201 51.2111 78.1501 51.1111 77.9301C51.0111 77.7101 50.8711 77.5401 50.6811 77.4201C50.4911 77.3001 50.2711 77.2401 50.0011 77.2401C49.7111 77.2401 49.4611 77.3101 49.2511 77.4401C49.0411 77.5801 48.8711 77.7601 48.7611 78.0001C48.6511 78.2401 48.5911 78.5301 48.5911 78.8601C48.5911 79.1901 48.6511 79.4901 48.7811 79.7401C48.9111 79.9901 49.0811 80.1801 49.3111 80.3101C49.5411 80.4401 49.8111 80.5101 50.1211 80.5101C50.4011 80.5101 50.6611 80.4601 50.8911 80.3601C51.1211 80.2601 51.3311 80.1101 51.5011 79.9101L52.5211 80.9201C52.2311 81.2601 51.8811 81.5201 51.4811 81.6801C51.0811 81.8401 50.6211 81.9301 50.1211 81.9301V81.9401Z" fill="#C6E236"/>
<path d="M53.8203 81.8101V75.9801H55.6703V81.8101H53.8203ZM55.6703 78.6201L54.9003 78.0201C55.0503 77.3301 55.3103 76.8001 55.6703 76.4201C56.0303 76.0401 56.5303 75.8601 57.1603 75.8601C57.4403 75.8601 57.6903 75.9001 57.9003 75.9901C58.1103 76.0801 58.3003 76.2001 58.4603 76.3701L57.3703 77.7601C57.3003 77.6801 57.2003 77.6201 57.0803 77.5701C56.9603 77.5201 56.8203 77.5001 56.6703 77.5001C56.3603 77.5001 56.1103 77.5901 55.9303 77.7801C55.7503 77.9701 55.6603 78.2501 55.6603 78.6301L55.6703 78.6201Z" fill="#C6E236"/>
</g>
<defs>
<clipPath id="clip0_6_3082">
<rect width="64" height="90" fill="white"/>
</clipPath>
</defs>
</svg>
