<svg width="64" height="90" viewBox="0 0 64 90" fill="none" xmlns="http://www.w3.org/2000/svg">
<g clip-path="url(#clip0_6_3067)">
<path d="M7.38086 81.8098V73.3398H9.28086V81.8098H7.38086ZM8.84086 81.8098V80.1498H13.0309V81.8098H8.84086Z" fill="#C6E236"/>
<path d="M16.7207 81.9398C16.0907 81.9398 15.5307 81.8099 15.0407 81.5499C14.5507 81.2899 14.1707 80.9298 13.8907 80.4598C13.6107 79.9998 13.4707 79.4698 13.4707 78.8798C13.4707 78.2898 13.6107 77.7898 13.8807 77.3298C14.1507 76.8698 14.5207 76.5098 15.0007 76.2398C15.4707 75.9798 16.0007 75.8398 16.6007 75.8398C17.2007 75.8398 17.7007 75.9598 18.1407 76.2098C18.5807 76.4598 18.9307 76.7998 19.1807 77.2398C19.4407 77.6798 19.5607 78.1798 19.5607 78.7498C19.5607 78.8598 19.5607 78.9798 19.5407 79.0898C19.5207 79.1998 19.5007 79.3399 19.4607 79.4799L14.4407 79.4998V78.2299L18.6607 78.2098L17.8707 78.7498C17.8707 78.4198 17.8107 78.1498 17.7107 77.9298C17.6107 77.7098 17.4707 77.5398 17.2807 77.4198C17.0907 77.2998 16.8707 77.2398 16.6007 77.2398C16.3107 77.2398 16.0607 77.3098 15.8507 77.4398C15.6407 77.5798 15.4707 77.7598 15.3607 77.9998C15.2507 78.2398 15.1907 78.5298 15.1907 78.8598C15.1907 79.1898 15.2507 79.4898 15.3807 79.7398C15.5107 79.9898 15.6807 80.1798 15.9107 80.3098C16.1407 80.4398 16.4107 80.5098 16.7207 80.5098C17.0007 80.5098 17.2607 80.4598 17.4907 80.3598C17.7207 80.2598 17.9307 80.1099 18.1007 79.9099L19.1207 80.9198C18.8307 81.2598 18.4807 81.5198 18.0807 81.6798C17.6807 81.8398 17.2207 81.9298 16.7207 81.9298V81.9398Z" fill="#C6E236"/>
<path d="M22.5606 81.96C22.2206 81.96 21.8806 81.91 21.5406 81.82C21.2006 81.73 20.9006 81.6 20.6206 81.44C20.3406 81.28 20.1006 81.09 19.8906 80.87L20.9506 79.81C21.1506 80.02 21.3806 80.18 21.6406 80.3C21.9006 80.42 22.1906 80.47 22.5106 80.47C22.7106 80.47 22.8706 80.44 22.9806 80.37C23.1006 80.31 23.1506 80.21 23.1506 80.09C23.1506 79.95 23.0806 79.84 22.9506 79.77C22.8106 79.7 22.6406 79.64 22.4206 79.58C22.2006 79.52 21.9706 79.45 21.7306 79.38C21.4906 79.3 21.2606 79.2 21.0506 79.07C20.8406 78.94 20.6606 78.77 20.5206 78.54C20.3806 78.31 20.3206 78.02 20.3206 77.66C20.3206 77.3 20.4206 76.96 20.6106 76.68C20.8006 76.4 21.0706 76.19 21.4306 76.03C21.7806 75.87 22.2006 75.79 22.6906 75.79C23.1806 75.79 23.6306 75.88 24.0606 76.05C24.4906 76.22 24.8206 76.48 25.0806 76.81L24.0406 77.88C23.8606 77.66 23.6506 77.51 23.4206 77.42C23.1906 77.33 22.9706 77.28 22.7506 77.28C22.5306 77.28 22.3906 77.31 22.2806 77.38C22.1806 77.44 22.1206 77.53 22.1206 77.63C22.1206 77.75 22.1906 77.85 22.3306 77.92C22.4706 77.99 22.6506 78.06 22.8606 78.11C23.0706 78.17 23.3006 78.23 23.5406 78.31C23.7806 78.39 24.0106 78.49 24.2206 78.63C24.4406 78.77 24.6106 78.95 24.7506 79.18C24.8906 79.41 24.9506 79.71 24.9506 80.07C24.9506 80.64 24.7406 81.09 24.3106 81.43C23.8806 81.77 23.3006 81.94 22.5806 81.94L22.5606 81.96Z" fill="#C6E236"/>
<path d="M28.0509 81.96C27.7109 81.96 27.3709 81.91 27.0309 81.82C26.6909 81.73 26.3909 81.6 26.1109 81.44C25.8309 81.28 25.5909 81.09 25.3809 80.87L26.4409 79.81C26.6409 80.02 26.8709 80.18 27.1309 80.3C27.3909 80.42 27.6809 80.47 28.0009 80.47C28.2009 80.47 28.3609 80.44 28.4709 80.37C28.5909 80.31 28.6409 80.21 28.6409 80.09C28.6409 79.95 28.5709 79.84 28.4409 79.77C28.3009 79.7 28.1309 79.64 27.9109 79.58C27.6909 79.52 27.4609 79.45 27.2209 79.38C26.9809 79.3 26.7509 79.2 26.5409 79.07C26.3309 78.94 26.1509 78.77 26.0109 78.54C25.8709 78.31 25.8109 78.02 25.8109 77.66C25.8109 77.3 25.9109 76.96 26.1009 76.68C26.2909 76.4 26.5609 76.19 26.9209 76.03C27.2709 75.87 27.6909 75.79 28.1809 75.79C28.6709 75.79 29.1209 75.88 29.5509 76.05C29.9809 76.22 30.3109 76.48 30.5709 76.81L29.5309 77.88C29.3509 77.66 29.1409 77.51 28.9109 77.42C28.6809 77.33 28.4609 77.28 28.2409 77.28C28.0209 77.28 27.8809 77.31 27.7709 77.38C27.6709 77.44 27.6109 77.53 27.6109 77.63C27.6109 77.75 27.6809 77.85 27.8209 77.92C27.9609 77.99 28.1409 78.06 28.3509 78.11C28.5609 78.17 28.7909 78.23 29.0309 78.31C29.2709 78.39 29.5009 78.49 29.7109 78.63C29.9309 78.77 30.1009 78.95 30.2409 79.18C30.3809 79.41 30.4409 79.71 30.4409 80.07C30.4409 80.64 30.2309 81.09 29.8009 81.43C29.3709 81.77 28.7909 81.94 28.0709 81.94L28.0509 81.96Z" fill="#C6E236"/>
<path d="M37.8799 81.94C37.2499 81.94 36.6599 81.83 36.1199 81.61C35.5799 81.39 35.1099 81.08 34.6999 80.68C34.2999 80.28 33.9799 79.81 33.7599 79.28C33.5399 78.75 33.4199 78.17 33.4199 77.56C33.4199 76.95 33.5299 76.37 33.7599 75.84C33.9899 75.31 34.2999 74.85 34.6999 74.45C35.0999 74.06 35.5699 73.75 36.1099 73.53C36.6499 73.31 37.2299 73.2 37.8699 73.2C38.5099 73.2 39.1399 73.31 39.6599 73.52C40.1799 73.74 40.6399 74.03 41.0299 74.41L39.7599 75.69C39.5399 75.45 39.2799 75.26 38.9599 75.13C38.6399 75 38.2799 74.93 37.8599 74.93C37.4899 74.93 37.1599 74.99 36.8499 75.12C36.5499 75.24 36.2799 75.42 36.0599 75.65C35.8399 75.88 35.6599 76.16 35.5399 76.49C35.4199 76.82 35.3599 77.17 35.3599 77.56C35.3599 77.95 35.4199 78.32 35.5399 78.65C35.6599 78.98 35.8299 79.25 36.0599 79.49C36.2799 79.73 36.5499 79.91 36.8499 80.03C37.1499 80.15 37.4899 80.22 37.8599 80.22C38.2899 80.22 38.6699 80.15 38.9899 80.02C39.3099 79.89 39.5799 79.7 39.8099 79.45L41.0899 80.73C40.6899 81.11 40.2299 81.41 39.6999 81.62C39.1699 81.83 38.5599 81.94 37.8599 81.94H37.8799Z" fill="#C6E236"/>
<path d="M45.8516 81.9499C45.2116 81.9499 44.6216 81.8399 44.0716 81.6099C43.5316 81.3899 43.0516 81.0699 42.6416 80.6699C42.2316 80.2699 41.9216 79.7999 41.6916 79.2699C41.4716 78.7399 41.3516 78.1599 41.3516 77.5499C41.3516 76.9399 41.4616 76.3499 41.6916 75.8199C41.9116 75.2899 42.2316 74.8299 42.6316 74.4299C43.0316 74.0299 43.5016 73.7299 44.0516 73.5099C44.5916 73.2899 45.1916 73.1799 45.8316 73.1799C46.4716 73.1799 47.0516 73.2899 47.5916 73.5099C48.1316 73.7299 48.6016 74.0399 49.0116 74.4299C49.4216 74.8299 49.7316 75.2899 49.9516 75.8199C50.1716 76.3499 50.2816 76.9299 50.2816 77.5499C50.2816 78.1699 50.1716 78.7399 49.9416 79.2699C49.7216 79.7999 49.4016 80.2699 49.0016 80.6599C48.6016 81.0599 48.1316 81.3699 47.6016 81.5899C47.0616 81.8099 46.4816 81.9299 45.8516 81.9299V81.9499ZM45.8316 80.2199C46.3316 80.2199 46.7716 80.1099 47.1516 79.8799C47.5316 79.6499 47.8216 79.3399 48.0316 78.9399C48.2416 78.5399 48.3516 78.0799 48.3516 77.5499C48.3516 77.1599 48.2916 76.7999 48.1716 76.4799C48.0516 76.1599 47.8816 75.8799 47.6516 75.6399C47.4316 75.3999 47.1616 75.2199 46.8516 75.0999C46.5416 74.9799 46.2016 74.9099 45.8316 74.9099C45.3316 74.9099 44.8816 75.0199 44.5016 75.2399C44.1216 75.4599 43.8316 75.7699 43.6216 76.1599C43.4116 76.5599 43.3116 77.0199 43.3116 77.5499C43.3116 77.9499 43.3716 78.3099 43.4916 78.6399C43.6116 78.9699 43.7816 79.2499 44.0116 79.4899C44.2316 79.7299 44.5016 79.9099 44.8116 80.0299C45.1216 80.1499 45.4616 80.2199 45.8416 80.2199H45.8316Z" fill="#C6E236"/>
<path d="M50.9499 80.75L54.1999 77.39C54.3899 77.18 54.5499 77 54.6699 76.83C54.7899 76.66 54.8799 76.51 54.9299 76.36C54.9799 76.21 55.0099 76.07 55.0099 75.92C55.0099 75.59 54.8999 75.33 54.6899 75.15C54.4799 74.96 54.1999 74.87 53.8699 74.87C53.5399 74.87 53.2299 74.96 52.9599 75.14C52.6899 75.32 52.4299 75.61 52.1899 76.02L50.9199 74.92C51.2599 74.35 51.6899 73.92 52.2099 73.64C52.7299 73.35 53.3199 73.21 53.9999 73.21C54.5799 73.21 55.0899 73.32 55.5199 73.53C55.9499 73.74 56.2799 74.05 56.5199 74.45C56.7499 74.85 56.8699 75.32 56.8699 75.85C56.8699 76.19 56.8299 76.51 56.7399 76.79C56.6499 77.07 56.5199 77.35 56.3199 77.62C56.1199 77.89 55.8599 78.19 55.5299 78.52L53.2599 80.76L50.9299 80.74L50.9499 80.75ZM50.9499 81.81V80.75L52.5499 80.2H57.0599V81.81H50.9499Z" fill="#C6E236"/>
<path d="M34.5 45.3H17.9C10.5 45.3 4.5 39.3 4.5 31.9C4.5 26.4 7.9 21.5 12.9 19.5C14.2 13.4 19.6 9 25.9 9C28.1 9 30.3 9.6 32.2 10.6C34.1 9.6 36.3 9 38.5 9C44.9 9 50.4 13.6 51.6 19.8C56.3 22 59.3 26.7 59.3 31.9C59.3 38.8 53.9 44.6 47.1 45.2C46.5 45.2 46.1 44.8 46 44.3C46 43.8 46.4 43.3 46.9 43.2C52.7 42.7 57.3 37.7 57.3 31.9C57.3 27.3 54.6 23.2 50.4 21.4C50.1 21.3 49.8 21 49.8 20.6C49 15.1 44.1 11 38.6 11C36.6 11 34.6 11.6 32.8 12.6C32.5 12.8 32.1 12.8 31.8 12.6C30 11.6 28 11 26 11C20.5 11 15.8 14.9 14.8 20.4C14.7 20.8 14.5 21 14.1 21.2C9.5 22.8 6.5 27.1 6.5 31.9C6.5 38.2 11.6 43.3 17.9 43.3H34.4C34.9 43.3 35.4 43.8 35.4 44.3C35.4 44.8 35 45.3 34.5 45.3Z" fill="#C6E236"/>
<path d="M40.8008 56.6999C36.1008 56.6999 32.3008 52.8999 32.3008 48.1999C32.3008 45.2999 33.8008 42.5999 36.2008 41.0999V21.9999C36.2008 19.4999 38.3008 17.3999 40.8008 17.3999C43.3008 17.3999 45.4008 19.4999 45.4008 21.9999V41.0999C47.8008 42.6999 49.3008 45.2999 49.3008 48.1999C49.3008 52.8999 45.5008 56.6999 40.8008 56.6999ZM40.8008 19.3999C39.3008 19.3999 38.2008 20.5999 38.2008 21.9999V41.6999C38.2008 42.0999 38.0008 42.3999 37.7008 42.5999C35.6008 43.7999 34.4008 45.8999 34.4008 48.2999C34.4008 51.8999 37.3008 54.7999 40.9008 54.7999C44.5008 54.7999 47.4008 51.8999 47.4008 48.2999C47.4008 45.8999 46.1008 43.7999 44.1008 42.5999C43.8008 42.3999 43.6008 42.0999 43.6008 41.6999V21.9999C43.4008 20.4999 42.3008 19.3999 40.8008 19.3999Z" fill="#C6E236"/>
<path d="M40.8008 47C40.3008 47 39.8008 46.5 39.8008 46V23.5C39.8008 23 40.3008 22.5 40.8008 22.5C41.3008 22.5 41.8008 23 41.8008 23.5V46C41.8008 46.6 41.3008 47 40.8008 47Z" fill="#C6E236"/>
<path d="M40.8 51.6C39 51.6 37.5 50.1 37.5 48.3C37.5 46.5 39 45 40.8 45C42.6 45 44.1 46.5 44.1 48.3C44.1 50.1 42.6 51.6 40.8 51.6ZM40.8 47C40.1 47 39.5 47.6 39.5 48.3C39.5 49 40.1 49.6 40.8 49.6C41.5 49.6 42.1 49 42.1 48.3C42.1 47.6 41.5 47 40.8 47Z" fill="#C6E236"/>
</g>
<defs>
<clipPath id="clip0_6_3067">
<rect width="64" height="90" fill="white"/>
</clipPath>
</defs>
</svg>
