<?xml version="1.0" encoding="UTF-8"?><svg id="Layer_1" xmlns="http://www.w3.org/2000/svg" viewBox="0 0 128 128"><defs><style>.cls-1{fill:none;}.cls-2{fill:#fff;}.cls-3{fill:#c3d83d;}.cls-4,.cls-5{fill:#602a76;}.cls-5{fill-rule:evenodd;}</style></defs><rect class="cls-1" width="128" height="128"/><path class="cls-2" d="m111.07,76.23c-.1-.3-.1-.6-.1-.9s-.1-.7-.1-1c0-.4-.1-.9-.1-1.2h0c-1-10.2-2.3-22.4-4.1-34.6-.3-2.9-1.9-5.3-4.3-6.6-.6-.3-1.6-.8-2.4-1.3-.5-.2-.9-.5-1.3-.7-5-2.7-10.2-5.3-15.2-7.8-4.2-2.1-8.6-4.3-12.9-6.5-.7-.4-1.4-.6-2.2-.7-.3-.2-.9-.3-1.7-.2-.6.1-.8.2-1.4.4h-.1q-.2.1-.3.1t-.7.3l-1.5.6c-9.3,3.9-19.1,7.9-26.6,10.9l-4.2,1.7-3.5,1.5c-.4.2-.6.2-.7.3h0c-1.9.8-3.5,2.5-4.2,4.5-3.1,8.7-6,17.3-9.4,27.7v.1c-.3.8-.6,1.7-.6,2.6-.3,2.7.4,4.7,1.9,5.9l2.9,3.4c3.3,3.8,7.9,8.9,12.3,13.9,4.5,5.1,9.2,10.3,12.5,14.1.1.1.4.6.7,1.1.3.5.5.9.6,1.1,1.4,1.7,3.6,2.7,5.8,2.7h.4c.7-.1,1.6-.2,2.4-.4.8-.1,1.6-.3,2.2-.3,3.2-.4,6.7-.7,10-1,4-.4,8.2-.8,11.9-1.2.9-.1,1.8-.2,2.7-.4,3.4-.5,6.6-.9,10-1.1h1.2c.7,0,1.3-.1,1.8-.2.9-.2,1.8-.7,2.5-1.3.8-.6,1.4-1.7,2-2.7.3-.5.5-1,.8-1.4l2.7-3.6c.6-.9,1.6-2.4,2.7-4,1.8-2.7,3.8-5.7,4.8-7.2.1-.1.2-.4.5-.7.2-.3.5-.8.7-1.1.1-.2.4-.4.6-.6.2-.2.2-.3.3-.3.7-1.1.8-1.7.9-3-.1-.1-.1-.5-.2-.9"/><path class="cls-3" d="m104.57,59.83c.2,1.8.4,3.5.6,5.1.5,4.2,1,7.7,1.1,11.4v1.9c-.1.4-.3,1.2-.5,1.5l-.7,1.2c-.8,1.4-1.7,3-2.7,4.7-2.1,3.7-4.6,7.9-6.3,10.9l-.1.2c-.6.9-.8,1.1-1.5,1.9-1.6,1.4-2,1.7-3.4,1.8-1.6.2-3.2.4-4.7.7-3.2.5-6.2,1-9.5,1.1-5.1.4-11.1.9-16.8,1.4-1.9.2-3.8.3-5.6.5-.4,0-.9.1-1.5.1-1,.1-2.1.2-2.8.2h-.2c-1.1-.1-2.1-.6-2.8-1.4,0,0-.1-.1-.2-.2-.1-.1-.2-.3-.3-.3-.2-.3-.6-.7-1-1.2s-.9-1.1-1.2-1.4c-3-3.7-6.8-8.4-10.9-13.3-1.6-2.1-3.3-4.2-4.9-6.3-3.3-4.2-6.4-8.2-9-11.4l-.1-.2c-.6-.7-1.5-1.8-1.4-2.6,0-.2.1-.4.1-.6q0-.1.1-.2t.1-.2s0-.1.1-.1c.1-.2.1-.3.2-.5,2.9-8.2,5.5-16.1,7.9-23.4.2-.6.4-1.1.5-1.7.3-.9.6-1.8.8-2.6.2-.8.8-1.6,1.7-2,1.2-.6,2.4-1.1,3.5-1.7.8-.4,1.6-.8,2.4-1.2.3-.2.6-.3.9-.4.2-.1.3-.1.5-.2.4-.2.9-.4,1.3-.6.2-.1.4-.2.6-.3.2-.1.3-.2.5-.2.4-.2.7-.3,1.1-.5,1.9-.9,3.9-1.8,6.1-2.8.4-.2.9-.4,1.3-.6h0c1.9-.8,3.9-1.7,6.1-2.6l8.9-3.9c.7-.3,1.4-.6,2-.9,1.6-.7,2.9-1.3,4.2-1,.1.2.6.3,1.3.6.1,0,.3.1.4.1.2.1.5.2.7.3l.9.6h0c2.4,1.5,4.5,2.8,6.5,4.1,2,1.3,4,2.5,6,3.8,2.2,1.4,4.6,2.8,7.6,4.4l6.3,3.8c2.4,1.9,3,5.8,3,5.9,1.5,6.8,2.1,12.5,2.8,18v.3Zm6.5,16.4c-.1-.3-.1-.6-.1-.9s-.1-.7-.1-1c0-.4-.1-.9-.1-1.2h0c-1-10.2-2.3-22.4-4.1-34.6-.3-2.9-1.9-5.3-4.3-6.6-.6-.3-1.6-.8-2.4-1.3-.5-.2-.9-.5-1.3-.7-5-2.7-10.2-5.3-15.2-7.8-4.2-2.1-8.6-4.3-12.9-6.5-.7-.4-1.4-.6-2.2-.7-.3-.2-.9-.3-1.7-.2-.6.1-.8.2-1.4.4h-.1q-.2.1-.3.1-.2.1-.7.3l-1.5.6c-9.3,3.9-19.1,7.9-26.6,10.9l-4.2,1.7-3.5,1.5c-.4.2-.6.2-.7.3h0c-1.9.8-3.5,2.5-4.2,4.5-3.1,8.7-6,17.3-9.4,27.7v.1c-.3.8-.6,1.7-.6,2.6-.3,2.7.4,4.7,1.9,5.9l2.9,3.4c3.3,3.8,7.9,8.9,12.3,13.9,4.5,5.1,9.2,10.3,12.5,14.1.1.1.4.6.7,1.1.3.5.5.9.6,1.1,1.4,1.7,3.6,2.7,5.8,2.7h.4c.7-.1,1.6-.2,2.4-.4.8-.1,1.6-.3,2.2-.3,3.2-.4,6.7-.7,10-1,4-.4,8.2-.8,11.9-1.2.9-.1,1.8-.2,2.7-.4,3.4-.5,6.6-.9,10-1.1h1.2c.7,0,1.3-.1,1.8-.2.9-.2,1.8-.7,2.5-1.3.8-.6,1.4-1.7,2-2.7.3-.5.5-1,.8-1.4l2.7-3.6c.6-.9,1.6-2.4,2.7-4,1.8-2.7,3.8-5.7,4.8-7.2.1-.1.2-.4.5-.7.2-.3.5-.8.7-1.1.1-.2.4-.4.6-.6.2-.2.2-.3.3-.3.7-1.1.8-1.7.9-3-.1-.1-.1-.5-.2-.9"/><path class="cls-4" d="m86.47,72.73c-.8-1-2.4-1.9-5.4-.7-.2.1-.5.2-.7.3-.1-.2-.2-.4-.3-.6-.7-1.2-1.9-1.9-3.3-1.9h-.1c-1.4,0-2.7.7-3.4,1.8l-2.8,4.2c-1.8-.2-3.3-.5-4.4-.8.1-.1.2-.2.4-.3,1.4-1.1,2.1-2.8,1.9-4.3-.1-1.1-.5-1.9-1.3-2.5-.9-.7-2.2-.9-4-.7-.8.1-1.6.5-2.3,1l-9.5,7.5h-2.3v-.6c0-1.1-.9-2-2-2h-5.2c-1.1,0-2,.9-2,2v11.7c0,1.1.9,2,2,2h5.2c1.1,0,2-.9,2-2v-1.1l2.6.6h18.2c3.7-.6,9.9-1.8,11.2-3.4l5.1-5.4c1.4-1.2,1.5-3.4.4-4.8Zm-11.5.2c.4-.6,1.1-1,1.8-.9.7,0,1.3.3,1.6.9.1.2.2.4.3.6-.6.5-1,1-1.3,1.5-.7,1-1.1,1.5-4.6,1.3l2.2-3.4Zm-27.9,14h-5.2v-11.7h5.2v11.7Zm37.6-10.6l-5.1,5.4-.1.1c-.6.7-5.6,1.9-9.8,2.6h-17.6l-3-.7v-5.8h2.6c.2,0,.5-.1.6-.2l9.7-7.7c.4-.3.8-.5,1.3-.6,1.2-.2,2-.1,2.5.3.1.1.4.3.5,1.1.1.9-.3,1.9-1.2,2.5-1.2,1-3.2,3.2-2.7,6.9.1.5.5.9,1,.9h.1c.6-.1,1-.6.9-1.1-.1-1.2,0-2.1.4-2.9,1.3.3,4.2,1,7.5,1.2,4.5.3,5.5-.6,6.6-2.1.5-.7,1.1-1.5,2.9-2.3,1.4-.6,2.5-.6,3,.1.6.6.5,1.6-.1,2.3Z"/><path class="cls-4" d="m65.97,65.93c-3.8,0-6.9-3.1-6.9-6.9s3.1-6.9,6.9-6.9,6.9,3.1,6.9,6.9-3.2,6.9-6.9,6.9Zm0-11.6c-2.7,0-4.8,2.2-4.8,4.8s2.2,4.8,4.8,4.8,4.8-2.2,4.8-4.8-2.2-4.8-4.8-4.8Z"/><polygon class="cls-5" points="65.17 36.53 67.17 40.43 69.07 36.53 68.17 36.53 68.17 28.73 66.17 28.73 66.17 36.53 65.17 36.53"/><polygon class="cls-5" points="56.17 45.93 58.07 49.83 60.07 45.93 59.07 45.93 59.07 38.13 57.07 38.13 57.07 45.93 56.17 45.93"/><polygon class="cls-5" points="72.77 45.93 74.77 49.83 76.67 45.93 75.77 45.93 75.77 38.13 73.77 38.13 73.77 45.93 72.77 45.93"/><path class="cls-4" d="m68.18,57.35c-.18-.34-.43-.6-.74-.8-.31-.2-.67-.3-1.06-.3-.32,0-.61.07-.87.2-.23.12-.42.29-.57.49v-.6h-.81v6.07h.81v-2.39c.15.2.33.37.56.49.26.13.55.2.88.2.39,0,.74-.1,1.06-.29.32-.19.56-.46.74-.8.18-.34.27-.71.27-1.13s-.09-.8-.27-1.13Zm-.74,1.89c-.12.22-.28.39-.48.52-.2.13-.44.19-.71.19s-.5-.06-.71-.19c-.21-.13-.37-.3-.48-.52-.11-.22-.17-.47-.17-.75s.06-.54.17-.76c.11-.22.27-.39.48-.52s.44-.19.7-.19.51.06.71.19.36.3.48.52c.12.22.18.47.18.75s-.06.54-.18.76Z"/></svg>